M48
;DRILL file {KiCad (5.0.2-5)-5} date Sunday, 20 February 2022 at 19:00:46
;FORMAT={-:-/ absolute / inch / decimal}
FMAT,2
INCH,TZ
T1C0.0300
T2C0.0315
T3C0.0354
T4C0.0394
T5C0.0400
T6C0.0433
T7C0.1260
T8C0.1378
%
G90
G05
T1
X4.9562Y-1.2937
X4.9562Y-2.8562
X5.6437Y-1.2937
X5.6437Y-2.8562
T2
X4.0531Y-2.35
X4.25Y-2.35
X3.375Y-2.65
X3.775Y-2.65
X4.6Y-2.45
X4.6Y-2.85
X3.45Y-1.375
X3.85Y-1.375
X3.375Y-2.85
X3.775Y-2.85
X4.45Y-2.45
X4.45Y-2.85
X3.95Y-2.55
X3.95Y-2.65
X3.95Y-2.75
X3.95Y-2.85
X4.25Y-2.55
X4.25Y-2.65
X4.25Y-2.75
X4.25Y-2.85
X3.375Y-2.5
X3.775Y-2.5
X4.15Y-1.375
X4.55Y-1.375
T3
X3.1Y-1.275
X3.1Y-1.375
T4
X3.1Y-2.75
X3.1Y-2.85
X5.25Y-3.1
X5.35Y-3.1
X4.45Y-1.
X4.55Y-1.
X5.175Y-1.
X5.275Y-1.
X3.1Y-1.65
X3.1Y-1.75
X3.1Y-1.85
X3.1Y-1.95
X3.1Y-2.2
X3.1Y-2.3
X3.1Y-2.4
T5
X3.45Y-1.55
X3.45Y-2.15
X3.55Y-1.55
X3.55Y-2.15
X3.65Y-1.55
X3.65Y-2.15
X3.695Y-2.035
X3.75Y-1.55
X3.75Y-2.15
X3.795Y-2.035
X3.85Y-1.55
X3.85Y-2.15
X3.95Y-1.55
X3.95Y-2.15
X4.05Y-1.55
X4.05Y-2.15
X4.105Y-2.035
X4.15Y-1.55
X4.15Y-2.15
X4.205Y-2.035
X4.25Y-1.55
X4.25Y-2.15
X4.35Y-1.55
X4.35Y-2.15
X4.45Y-1.55
X4.45Y-2.15
X4.55Y-1.55
X4.55Y-2.15
X4.65Y-1.6
X4.65Y-1.7
X4.65Y-1.8
X4.65Y-1.9
X4.65Y-2.
X4.65Y-2.1
T6
X4.15Y-0.975
X4.15Y-1.075
X4.15Y-1.175
X4.35Y-1.175
X4.65Y-1.175
T7
X3.1Y-3.125
X5.7Y-1.
X5.7Y-3.125
X3.1Y-1.
T8
X3.4941Y-1.075
T0
M30
