G04 #@! TF.GenerationSoftware,KiCad,Pcbnew,(5.0.2-5)-5*
G04 #@! TF.CreationDate,2022-02-20T19:00:33+00:00*
G04 #@! TF.ProjectId,soldering_iron,736f6c64-6572-4696-9e67-5f69726f6e2e,rev?*
G04 #@! TF.SameCoordinates,Original*
G04 #@! TF.FileFunction,Copper,L1,Top*
G04 #@! TF.FilePolarity,Positive*
%FSLAX46Y46*%
G04 Gerber Fmt 4.6, Leading zero omitted, Abs format (unit mm)*
G04 Created by KiCad (PCBNEW (5.0.2-5)-5) date Sunday, 20 February 2022 at 19:00:33*
%MOMM*%
%LPD*%
G01*
G04 APERTURE LIST*
G04 #@! TA.AperFunction,ComponentPad*
%ADD10C,1.524000*%
G04 #@! TD*
G04 #@! TA.AperFunction,ComponentPad*
%ADD11O,1.700000X1.700000*%
G04 #@! TD*
G04 #@! TA.AperFunction,ComponentPad*
%ADD12R,1.700000X1.700000*%
G04 #@! TD*
G04 #@! TA.AperFunction,ComponentPad*
%ADD13O,2.400000X1.600000*%
G04 #@! TD*
G04 #@! TA.AperFunction,ComponentPad*
%ADD14R,2.400000X1.600000*%
G04 #@! TD*
G04 #@! TA.AperFunction,ComponentPad*
%ADD15O,2.200000X2.200000*%
G04 #@! TD*
G04 #@! TA.AperFunction,ComponentPad*
%ADD16R,2.200000X2.200000*%
G04 #@! TD*
G04 #@! TA.AperFunction,ComponentPad*
%ADD17C,1.800000*%
G04 #@! TD*
G04 #@! TA.AperFunction,ComponentPad*
%ADD18R,1.800000X1.800000*%
G04 #@! TD*
G04 #@! TA.AperFunction,ComponentPad*
%ADD19O,2.000000X1.905000*%
G04 #@! TD*
G04 #@! TA.AperFunction,ComponentPad*
%ADD20R,2.000000X1.905000*%
G04 #@! TD*
G04 #@! TA.AperFunction,ComponentPad*
%ADD21O,1.600000X1.600000*%
G04 #@! TD*
G04 #@! TA.AperFunction,ComponentPad*
%ADD22C,1.600000*%
G04 #@! TD*
G04 #@! TA.AperFunction,ComponentPad*
%ADD23C,1.879600*%
G04 #@! TD*
G04 #@! TA.AperFunction,Conductor*
%ADD24C,1.000000*%
G04 #@! TD*
G04 #@! TA.AperFunction,Conductor*
%ADD25C,2.000000*%
G04 #@! TD*
G04 APERTURE END LIST*
D10*
G04 #@! TO.P,U1,4*
G04 #@! TO.N,+24v*
X143351250Y-32861250D03*
G04 #@! TO.P,U1,1*
G04 #@! TO.N,GND*
X125888750Y-32861250D03*
G04 #@! TO.P,U1,3*
G04 #@! TO.N,Net-(J5-Pad2)*
X143351250Y-72548750D03*
G04 #@! TO.P,U1,2*
G04 #@! TO.N,GND*
X125888750Y-72548750D03*
G04 #@! TD*
D11*
G04 #@! TO.P,J1,2*
G04 #@! TO.N,+24v*
X133985000Y-25400000D03*
D12*
G04 #@! TO.P,J1,1*
G04 #@! TO.N,GND*
X131445000Y-25400000D03*
G04 #@! TD*
D11*
G04 #@! TO.P,J3,3*
G04 #@! TO.N,VCC*
X78740000Y-60960000D03*
G04 #@! TO.P,J3,2*
G04 #@! TO.N,SETPOINT*
X78740000Y-58420000D03*
D12*
G04 #@! TO.P,J3,1*
G04 #@! TO.N,GND*
X78740000Y-55880000D03*
G04 #@! TD*
D13*
G04 #@! TO.P,U2,8*
G04 #@! TO.N,VCC*
X107950000Y-64770000D03*
G04 #@! TO.P,U2,4*
G04 #@! TO.N,GND*
X100330000Y-72390000D03*
G04 #@! TO.P,U2,7*
G04 #@! TO.N,Net-(U2-Pad6)*
X107950000Y-67310000D03*
G04 #@! TO.P,U2,3*
G04 #@! TO.N,PTC*
X100330000Y-69850000D03*
G04 #@! TO.P,U2,6*
G04 #@! TO.N,Net-(U2-Pad6)*
X107950000Y-69850000D03*
G04 #@! TO.P,U2,2*
G04 #@! TO.N,Net-(R5-Pad1)*
X100330000Y-67310000D03*
G04 #@! TO.P,U2,5*
G04 #@! TO.N,Net-(R1-Pad2)*
X107950000Y-72390000D03*
D14*
G04 #@! TO.P,U2,1*
G04 #@! TO.N,PTC_SENSOR*
X100330000Y-64770000D03*
G04 #@! TD*
D15*
G04 #@! TO.P,D1,2*
G04 #@! TO.N,+24v*
X118110000Y-29845000D03*
D16*
G04 #@! TO.P,D1,1*
G04 #@! TO.N,Net-(D1-Pad1)*
X110490000Y-29845000D03*
G04 #@! TD*
D17*
G04 #@! TO.P,D2,2*
G04 #@! TO.N,Net-(D2-Pad2)*
X78740000Y-34925000D03*
D18*
G04 #@! TO.P,D2,1*
G04 #@! TO.N,GND*
X78740000Y-32385000D03*
G04 #@! TD*
D11*
G04 #@! TO.P,J5,2*
G04 #@! TO.N,Net-(J5-Pad2)*
X135890000Y-78740000D03*
D12*
G04 #@! TO.P,J5,1*
G04 #@! TO.N,VCC*
X133350000Y-78740000D03*
G04 #@! TD*
D19*
G04 #@! TO.P,Q1,3*
G04 #@! TO.N,GND*
X105410000Y-24765000D03*
G04 #@! TO.P,Q1,2*
G04 #@! TO.N,Net-(D1-Pad1)*
X105410000Y-27305000D03*
D20*
G04 #@! TO.P,Q1,1*
G04 #@! TO.N,HEAT*
X105410000Y-29845000D03*
G04 #@! TD*
D21*
G04 #@! TO.P,R1,2*
G04 #@! TO.N,Net-(R1-Pad2)*
X113030000Y-72390000D03*
D22*
G04 #@! TO.P,R1,1*
G04 #@! TO.N,VCC*
X113030000Y-62230000D03*
G04 #@! TD*
D21*
G04 #@! TO.P,R2,2*
G04 #@! TO.N,GND*
X116840000Y-62230000D03*
D22*
G04 #@! TO.P,R2,1*
G04 #@! TO.N,Net-(R1-Pad2)*
X116840000Y-72390000D03*
G04 #@! TD*
D21*
G04 #@! TO.P,R3,2*
G04 #@! TO.N,GND*
X115570000Y-34925000D03*
D22*
G04 #@! TO.P,R3,1*
G04 #@! TO.N,HEAT*
X105410000Y-34925000D03*
G04 #@! TD*
D21*
G04 #@! TO.P,R4,2*
G04 #@! TO.N,PTC*
X85725000Y-72390000D03*
D22*
G04 #@! TO.P,R4,1*
G04 #@! TO.N,VCC*
X95885000Y-72390000D03*
G04 #@! TD*
D21*
G04 #@! TO.P,R5,2*
G04 #@! TO.N,GND*
X85725000Y-67310000D03*
D22*
G04 #@! TO.P,R5,1*
G04 #@! TO.N,Net-(R5-Pad1)*
X95885000Y-67310000D03*
G04 #@! TD*
D21*
G04 #@! TO.P,R6,2*
G04 #@! TO.N,Net-(R5-Pad1)*
X95885000Y-63500000D03*
D22*
G04 #@! TO.P,R6,1*
G04 #@! TO.N,PTC_SENSOR*
X85725000Y-63500000D03*
G04 #@! TD*
D21*
G04 #@! TO.P,R7,2*
G04 #@! TO.N,Net-(R7-Pad2)*
X97790000Y-34925000D03*
D22*
G04 #@! TO.P,R7,1*
G04 #@! TO.N,Net-(D2-Pad2)*
X87630000Y-34925000D03*
G04 #@! TD*
G04 #@! TO.P,C1,2*
G04 #@! TO.N,GND*
X102950000Y-59690000D03*
G04 #@! TO.P,C1,1*
G04 #@! TO.N,VCC*
X107950000Y-59690000D03*
G04 #@! TD*
D11*
G04 #@! TO.P,J6,2*
G04 #@! TO.N,+24v*
X115570000Y-25400000D03*
D12*
G04 #@! TO.P,J6,1*
G04 #@! TO.N,Net-(D1-Pad1)*
X113030000Y-25400000D03*
G04 #@! TD*
D11*
G04 #@! TO.P,J2,4*
G04 #@! TO.N,VCC*
X78740000Y-49530000D03*
G04 #@! TO.P,J2,3*
G04 #@! TO.N,SDA*
X78740000Y-46990000D03*
G04 #@! TO.P,J2,2*
G04 #@! TO.N,SCL*
X78740000Y-44450000D03*
D12*
G04 #@! TO.P,J2,1*
G04 #@! TO.N,GND*
X78740000Y-41910000D03*
G04 #@! TD*
D11*
G04 #@! TO.P,J4,2*
G04 #@! TO.N,PTC*
X78740000Y-72390000D03*
D12*
G04 #@! TO.P,J4,1*
G04 #@! TO.N,GND*
X78740000Y-69850000D03*
G04 #@! TD*
D23*
G04 #@! TO.P,U3,JP7_12*
G04 #@! TO.N,N/C*
X115570000Y-39370000D03*
G04 #@! TO.P,U3,JP7_11*
X113030000Y-39370000D03*
G04 #@! TO.P,U3,JP7_10*
X110490000Y-39370000D03*
G04 #@! TO.P,U3,JP7_9*
G04 #@! TO.N,GND*
X107950000Y-39370000D03*
G04 #@! TO.P,U3,JP7_8*
G04 #@! TO.N,HEAT*
X105410000Y-39370000D03*
G04 #@! TO.P,U3,JP7_7*
G04 #@! TO.N,N/C*
X102870000Y-39370000D03*
G04 #@! TO.P,U3,JP7_6*
X100330000Y-39370000D03*
G04 #@! TO.P,U3,JP7_5*
G04 #@! TO.N,Net-(R7-Pad2)*
X97790000Y-39370000D03*
G04 #@! TO.P,U3,JP7_4*
G04 #@! TO.N,N/C*
X95250000Y-39370000D03*
G04 #@! TO.P,U3,JP7_3*
X92710000Y-39370000D03*
G04 #@! TO.P,U3,JP7_2*
X90170000Y-39370000D03*
G04 #@! TO.P,U3,JP7_1*
X87630000Y-39370000D03*
G04 #@! TO.P,U3,JP6_12*
X87630000Y-54610000D03*
G04 #@! TO.P,U3,JP6_11*
X90170000Y-54610000D03*
G04 #@! TO.P,U3,JP6_10*
X92710000Y-54610000D03*
G04 #@! TO.P,U3,JP6_9*
X95250000Y-54610000D03*
G04 #@! TO.P,U3,JP6_8*
G04 #@! TO.N,SETPOINT*
X97790000Y-54610000D03*
G04 #@! TO.P,U3,JP6_7*
G04 #@! TO.N,PTC_SENSOR*
X100330000Y-54610000D03*
G04 #@! TO.P,U3,JP6_6*
G04 #@! TO.N,N/C*
X102870000Y-54610000D03*
G04 #@! TO.P,U3,JP6_5*
X105410000Y-54610000D03*
G04 #@! TO.P,U3,JP6_4*
G04 #@! TO.N,VCC*
X107950000Y-54610000D03*
G04 #@! TO.P,U3,JP6_3*
G04 #@! TO.N,N/C*
X110490000Y-54610000D03*
G04 #@! TO.P,U3,JP6_2*
G04 #@! TO.N,GND*
X113030000Y-54610000D03*
G04 #@! TO.P,U3,JP6_1*
G04 #@! TO.N,N/C*
X115570000Y-54610000D03*
G04 #@! TO.P,U3,JP3_1*
X93853000Y-51689000D03*
G04 #@! TO.P,U3,JP3_2*
X96393000Y-51689000D03*
G04 #@! TO.P,U3,JP2_2*
G04 #@! TO.N,SCL*
X106807000Y-51689000D03*
G04 #@! TO.P,U3,JP2_1*
G04 #@! TO.N,SDA*
X104267000Y-51689000D03*
G04 #@! TO.P,U3,JP1_6*
G04 #@! TO.N,GND*
X118110000Y-40640000D03*
G04 #@! TO.P,U3,JP1_5*
X118110000Y-43180000D03*
G04 #@! TO.P,U3,JP1_4*
G04 #@! TO.N,VCC*
X118110000Y-45720000D03*
G04 #@! TO.P,U3,JP1_3*
G04 #@! TO.N,N/C*
X118110000Y-48260000D03*
G04 #@! TO.P,U3,JP1_2*
X118110000Y-50800000D03*
G04 #@! TO.P,U3,JP1_1*
X118110000Y-53340000D03*
G04 #@! TD*
D24*
G04 #@! TO.N,SDA*
X78740000Y-46990000D02*
X98425000Y-46990000D01*
X104267000Y-51689000D02*
X104267000Y-49657000D01*
X104267000Y-49657000D02*
X101600000Y-46990000D01*
X101600000Y-46990000D02*
X98425000Y-46990000D01*
G04 #@! TO.N,SETPOINT*
X97790000Y-55880000D02*
X95250000Y-58420000D01*
X97790000Y-54610000D02*
X97790000Y-55880000D01*
G04 #@! TO.N,SCL*
X78740000Y-44450000D02*
X99060000Y-44450000D01*
X106807000Y-51689000D02*
X106807000Y-48387000D01*
X106807000Y-48387000D02*
X102870000Y-44450000D01*
X102870000Y-44450000D02*
X99060000Y-44450000D01*
D25*
G04 #@! TO.N,VCC*
X107950000Y-54610000D02*
X107950000Y-59690000D01*
X107950000Y-59690000D02*
X107950000Y-64770000D01*
X122555000Y-45720000D02*
X118110000Y-45720000D01*
X122555000Y-59690000D02*
X122555000Y-45720000D01*
X113030000Y-62230000D02*
X113030000Y-59690000D01*
X113030000Y-59690000D02*
X122555000Y-59690000D01*
X107950000Y-59690000D02*
X113030000Y-59690000D01*
X122555000Y-78740000D02*
X122555000Y-59690000D01*
X133350000Y-78740000D02*
X122555000Y-78740000D01*
D24*
G04 #@! TO.N,PTC*
X78740000Y-72390000D02*
X85725000Y-72390000D01*
X85725000Y-72390000D02*
X90170000Y-72390000D01*
X92710000Y-69850000D02*
X100330000Y-69850000D01*
X90170000Y-72390000D02*
X92710000Y-69850000D01*
G04 #@! TO.N,Net-(R1-Pad2)*
X107950000Y-72390000D02*
X113030000Y-72390000D01*
X116840000Y-72390000D02*
X113030000Y-72390000D01*
G04 #@! TO.N,Net-(R5-Pad1)*
X95885000Y-63500000D02*
X95885000Y-67310000D01*
X95885000Y-67310000D02*
X100330000Y-67310000D01*
D25*
G04 #@! TO.N,+24v*
X118110000Y-29845000D02*
X140335000Y-29845000D01*
X133985000Y-29845000D02*
X133985000Y-25400000D01*
X140335000Y-29845000D02*
X143351250Y-32861250D01*
X133985000Y-29845000D02*
X140335000Y-29845000D01*
X118110000Y-27940000D02*
X115570000Y-25400000D01*
X118110000Y-29845000D02*
X118110000Y-27940000D01*
G04 #@! TO.N,Net-(D1-Pad1)*
X111125000Y-27305000D02*
X113030000Y-25400000D01*
X110490000Y-29845000D02*
X110490000Y-27305000D01*
X110490000Y-27305000D02*
X111125000Y-27305000D01*
X105410000Y-27305000D02*
X110490000Y-27305000D01*
D24*
G04 #@! TO.N,Net-(D2-Pad2)*
X78740000Y-34925000D02*
X87630000Y-34925000D01*
G04 #@! TO.N,HEAT*
X105410000Y-29845000D02*
X105410000Y-39370000D01*
G04 #@! TO.N,PTC_SENSOR*
X100330000Y-60325000D02*
X100330000Y-54610000D01*
X100330000Y-64770000D02*
X100330000Y-60325000D01*
X93980000Y-60960000D02*
X100330000Y-60960000D01*
X88265000Y-60960000D02*
X93980000Y-60960000D01*
X85725000Y-63500000D02*
X88265000Y-60960000D01*
G04 #@! TO.N,Net-(U2-Pad6)*
X107823000Y-69850000D02*
X107823000Y-67310000D01*
G04 #@! TO.N,SETPOINT*
X95250000Y-58420000D02*
X78740000Y-58420000D01*
G04 #@! TO.N,Net-(R7-Pad2)*
X97790000Y-34925000D02*
X97790000Y-39370000D01*
G04 #@! TD*
M02*
