G04 #@! TF.GenerationSoftware,KiCad,Pcbnew,(5.0.2-5)-5*
G04 #@! TF.CreationDate,2022-02-20T19:00:33+00:00*
G04 #@! TF.ProjectId,soldering_iron,736f6c64-6572-4696-9e67-5f69726f6e2e,rev?*
G04 #@! TF.SameCoordinates,Original*
G04 #@! TF.FileFunction,Legend,Top*
G04 #@! TF.FilePolarity,Positive*
%FSLAX46Y46*%
G04 Gerber Fmt 4.6, Leading zero omitted, Abs format (unit mm)*
G04 Created by KiCad (PCBNEW (5.0.2-5)-5) date Sunday, 20 February 2022 at 19:00:33*
%MOMM*%
%LPD*%
G01*
G04 APERTURE LIST*
%ADD10C,0.152400*%
%ADD11C,0.150000*%
%ADD12C,0.120000*%
%ADD13C,0.127000*%
G04 APERTURE END LIST*
D10*
X137970380Y-79199619D02*
X137970380Y-78183619D01*
X138454190Y-78522285D02*
X138454190Y-79199619D01*
X138454190Y-78619047D02*
X138502571Y-78570666D01*
X138599333Y-78522285D01*
X138744476Y-78522285D01*
X138841238Y-78570666D01*
X138889619Y-78667428D01*
X138889619Y-79199619D01*
X129328333Y-78183619D02*
X129521857Y-78183619D01*
X129618619Y-78232000D01*
X129715380Y-78328761D01*
X129763761Y-78522285D01*
X129763761Y-78860952D01*
X129715380Y-79054476D01*
X129618619Y-79151238D01*
X129521857Y-79199619D01*
X129328333Y-79199619D01*
X129231571Y-79151238D01*
X129134809Y-79054476D01*
X129086428Y-78860952D01*
X129086428Y-78522285D01*
X129134809Y-78328761D01*
X129231571Y-78232000D01*
X129328333Y-78183619D01*
X130634619Y-78522285D02*
X130634619Y-79199619D01*
X130199190Y-78522285D02*
X130199190Y-79054476D01*
X130247571Y-79151238D01*
X130344333Y-79199619D01*
X130489476Y-79199619D01*
X130586238Y-79151238D01*
X130634619Y-79102857D01*
X130973285Y-78522285D02*
X131360333Y-78522285D01*
X131118428Y-78183619D02*
X131118428Y-79054476D01*
X131166809Y-79151238D01*
X131263571Y-79199619D01*
X131360333Y-79199619D01*
X85785476Y-81691238D02*
X85930619Y-81739619D01*
X86172523Y-81739619D01*
X86269285Y-81691238D01*
X86317666Y-81642857D01*
X86366047Y-81546095D01*
X86366047Y-81449333D01*
X86317666Y-81352571D01*
X86269285Y-81304190D01*
X86172523Y-81255809D01*
X85979000Y-81207428D01*
X85882238Y-81159047D01*
X85833857Y-81110666D01*
X85785476Y-81013904D01*
X85785476Y-80917142D01*
X85833857Y-80820380D01*
X85882238Y-80772000D01*
X85979000Y-80723619D01*
X86220904Y-80723619D01*
X86366047Y-80772000D01*
X86946619Y-81739619D02*
X86849857Y-81691238D01*
X86801476Y-81642857D01*
X86753095Y-81546095D01*
X86753095Y-81255809D01*
X86801476Y-81159047D01*
X86849857Y-81110666D01*
X86946619Y-81062285D01*
X87091761Y-81062285D01*
X87188523Y-81110666D01*
X87236904Y-81159047D01*
X87285285Y-81255809D01*
X87285285Y-81546095D01*
X87236904Y-81642857D01*
X87188523Y-81691238D01*
X87091761Y-81739619D01*
X86946619Y-81739619D01*
X87865857Y-81739619D02*
X87769095Y-81691238D01*
X87720714Y-81594476D01*
X87720714Y-80723619D01*
X88688333Y-81739619D02*
X88688333Y-80723619D01*
X88688333Y-81691238D02*
X88591571Y-81739619D01*
X88398047Y-81739619D01*
X88301285Y-81691238D01*
X88252904Y-81642857D01*
X88204523Y-81546095D01*
X88204523Y-81255809D01*
X88252904Y-81159047D01*
X88301285Y-81110666D01*
X88398047Y-81062285D01*
X88591571Y-81062285D01*
X88688333Y-81110666D01*
X89559190Y-81691238D02*
X89462428Y-81739619D01*
X89268904Y-81739619D01*
X89172142Y-81691238D01*
X89123761Y-81594476D01*
X89123761Y-81207428D01*
X89172142Y-81110666D01*
X89268904Y-81062285D01*
X89462428Y-81062285D01*
X89559190Y-81110666D01*
X89607571Y-81207428D01*
X89607571Y-81304190D01*
X89123761Y-81400952D01*
X90043000Y-81739619D02*
X90043000Y-81062285D01*
X90043000Y-81255809D02*
X90091380Y-81159047D01*
X90139761Y-81110666D01*
X90236523Y-81062285D01*
X90333285Y-81062285D01*
X90671952Y-81739619D02*
X90671952Y-81062285D01*
X90671952Y-80723619D02*
X90623571Y-80772000D01*
X90671952Y-80820380D01*
X90720333Y-80772000D01*
X90671952Y-80723619D01*
X90671952Y-80820380D01*
X91155761Y-81062285D02*
X91155761Y-81739619D01*
X91155761Y-81159047D02*
X91204142Y-81110666D01*
X91300904Y-81062285D01*
X91446047Y-81062285D01*
X91542809Y-81110666D01*
X91591190Y-81207428D01*
X91591190Y-81739619D01*
X92510428Y-81062285D02*
X92510428Y-81884761D01*
X92462047Y-81981523D01*
X92413666Y-82029904D01*
X92316904Y-82078285D01*
X92171761Y-82078285D01*
X92075000Y-82029904D01*
X92510428Y-81691238D02*
X92413666Y-81739619D01*
X92220142Y-81739619D01*
X92123380Y-81691238D01*
X92075000Y-81642857D01*
X92026619Y-81546095D01*
X92026619Y-81255809D01*
X92075000Y-81159047D01*
X92123380Y-81110666D01*
X92220142Y-81062285D01*
X92413666Y-81062285D01*
X92510428Y-81110666D01*
X93768333Y-81739619D02*
X93768333Y-80723619D01*
X94252142Y-81739619D02*
X94252142Y-81062285D01*
X94252142Y-81255809D02*
X94300523Y-81159047D01*
X94348904Y-81110666D01*
X94445666Y-81062285D01*
X94542428Y-81062285D01*
X95026238Y-81739619D02*
X94929476Y-81691238D01*
X94881095Y-81642857D01*
X94832714Y-81546095D01*
X94832714Y-81255809D01*
X94881095Y-81159047D01*
X94929476Y-81110666D01*
X95026238Y-81062285D01*
X95171380Y-81062285D01*
X95268142Y-81110666D01*
X95316523Y-81159047D01*
X95364904Y-81255809D01*
X95364904Y-81546095D01*
X95316523Y-81642857D01*
X95268142Y-81691238D01*
X95171380Y-81739619D01*
X95026238Y-81739619D01*
X95800333Y-81062285D02*
X95800333Y-81739619D01*
X95800333Y-81159047D02*
X95848714Y-81110666D01*
X95945476Y-81062285D01*
X96090619Y-81062285D01*
X96187380Y-81110666D01*
X96235761Y-81207428D01*
X96235761Y-81739619D01*
X97493666Y-81739619D02*
X97493666Y-80723619D01*
X97493666Y-81207428D02*
X98074238Y-81207428D01*
X98074238Y-81739619D02*
X98074238Y-80723619D01*
X98945095Y-81691238D02*
X98848333Y-81739619D01*
X98654809Y-81739619D01*
X98558047Y-81691238D01*
X98509666Y-81594476D01*
X98509666Y-81207428D01*
X98558047Y-81110666D01*
X98654809Y-81062285D01*
X98848333Y-81062285D01*
X98945095Y-81110666D01*
X98993476Y-81207428D01*
X98993476Y-81304190D01*
X98509666Y-81400952D01*
X99864333Y-81739619D02*
X99864333Y-81207428D01*
X99815952Y-81110666D01*
X99719190Y-81062285D01*
X99525666Y-81062285D01*
X99428904Y-81110666D01*
X99864333Y-81691238D02*
X99767571Y-81739619D01*
X99525666Y-81739619D01*
X99428904Y-81691238D01*
X99380523Y-81594476D01*
X99380523Y-81497714D01*
X99428904Y-81400952D01*
X99525666Y-81352571D01*
X99767571Y-81352571D01*
X99864333Y-81304190D01*
X100203000Y-81062285D02*
X100590047Y-81062285D01*
X100348142Y-80723619D02*
X100348142Y-81594476D01*
X100396523Y-81691238D01*
X100493285Y-81739619D01*
X100590047Y-81739619D01*
X101315761Y-81691238D02*
X101219000Y-81739619D01*
X101025476Y-81739619D01*
X100928714Y-81691238D01*
X100880333Y-81594476D01*
X100880333Y-81207428D01*
X100928714Y-81110666D01*
X101025476Y-81062285D01*
X101219000Y-81062285D01*
X101315761Y-81110666D01*
X101364142Y-81207428D01*
X101364142Y-81304190D01*
X100880333Y-81400952D01*
X101799571Y-81739619D02*
X101799571Y-81062285D01*
X101799571Y-81255809D02*
X101847952Y-81159047D01*
X101896333Y-81110666D01*
X101993095Y-81062285D01*
X102089857Y-81062285D01*
X103783190Y-81642857D02*
X103734809Y-81691238D01*
X103589666Y-81739619D01*
X103492904Y-81739619D01*
X103347761Y-81691238D01*
X103251000Y-81594476D01*
X103202619Y-81497714D01*
X103154238Y-81304190D01*
X103154238Y-81159047D01*
X103202619Y-80965523D01*
X103251000Y-80868761D01*
X103347761Y-80772000D01*
X103492904Y-80723619D01*
X103589666Y-80723619D01*
X103734809Y-80772000D01*
X103783190Y-80820380D01*
X104363761Y-81739619D02*
X104267000Y-81691238D01*
X104218619Y-81642857D01*
X104170238Y-81546095D01*
X104170238Y-81255809D01*
X104218619Y-81159047D01*
X104267000Y-81110666D01*
X104363761Y-81062285D01*
X104508904Y-81062285D01*
X104605666Y-81110666D01*
X104654047Y-81159047D01*
X104702428Y-81255809D01*
X104702428Y-81546095D01*
X104654047Y-81642857D01*
X104605666Y-81691238D01*
X104508904Y-81739619D01*
X104363761Y-81739619D01*
X105137857Y-81062285D02*
X105137857Y-81739619D01*
X105137857Y-81159047D02*
X105186238Y-81110666D01*
X105283000Y-81062285D01*
X105428142Y-81062285D01*
X105524904Y-81110666D01*
X105573285Y-81207428D01*
X105573285Y-81739619D01*
X105911952Y-81062285D02*
X106299000Y-81062285D01*
X106057095Y-80723619D02*
X106057095Y-81594476D01*
X106105476Y-81691238D01*
X106202238Y-81739619D01*
X106299000Y-81739619D01*
X106637666Y-81739619D02*
X106637666Y-81062285D01*
X106637666Y-81255809D02*
X106686047Y-81159047D01*
X106734428Y-81110666D01*
X106831190Y-81062285D01*
X106927952Y-81062285D01*
X107411761Y-81739619D02*
X107315000Y-81691238D01*
X107266619Y-81642857D01*
X107218238Y-81546095D01*
X107218238Y-81255809D01*
X107266619Y-81159047D01*
X107315000Y-81110666D01*
X107411761Y-81062285D01*
X107556904Y-81062285D01*
X107653666Y-81110666D01*
X107702047Y-81159047D01*
X107750428Y-81255809D01*
X107750428Y-81546095D01*
X107702047Y-81642857D01*
X107653666Y-81691238D01*
X107556904Y-81739619D01*
X107411761Y-81739619D01*
X108331000Y-81739619D02*
X108234238Y-81691238D01*
X108185857Y-81594476D01*
X108185857Y-80723619D01*
X108863190Y-81739619D02*
X108766428Y-81691238D01*
X108718047Y-81594476D01*
X108718047Y-80723619D01*
X109637285Y-81691238D02*
X109540523Y-81739619D01*
X109347000Y-81739619D01*
X109250238Y-81691238D01*
X109201857Y-81594476D01*
X109201857Y-81207428D01*
X109250238Y-81110666D01*
X109347000Y-81062285D01*
X109540523Y-81062285D01*
X109637285Y-81110666D01*
X109685666Y-81207428D01*
X109685666Y-81304190D01*
X109201857Y-81400952D01*
X110121095Y-81739619D02*
X110121095Y-81062285D01*
X110121095Y-81255809D02*
X110169476Y-81159047D01*
X110217857Y-81110666D01*
X110314619Y-81062285D01*
X110411380Y-81062285D01*
X111524142Y-81352571D02*
X112298238Y-81352571D01*
X113556142Y-81739619D02*
X113556142Y-80723619D01*
X114136714Y-81739619D02*
X113701285Y-81159047D01*
X114136714Y-80723619D02*
X113556142Y-81304190D01*
X115104333Y-80772000D02*
X115007571Y-80723619D01*
X114862428Y-80723619D01*
X114717285Y-80772000D01*
X114620523Y-80868761D01*
X114572142Y-80965523D01*
X114523761Y-81159047D01*
X114523761Y-81304190D01*
X114572142Y-81497714D01*
X114620523Y-81594476D01*
X114717285Y-81691238D01*
X114862428Y-81739619D01*
X114959190Y-81739619D01*
X115104333Y-81691238D01*
X115152714Y-81642857D01*
X115152714Y-81304190D01*
X114959190Y-81304190D01*
X116313857Y-80820380D02*
X116362238Y-80772000D01*
X116459000Y-80723619D01*
X116700904Y-80723619D01*
X116797666Y-80772000D01*
X116846047Y-80820380D01*
X116894428Y-80917142D01*
X116894428Y-81013904D01*
X116846047Y-81159047D01*
X116265476Y-81739619D01*
X116894428Y-81739619D01*
X117523380Y-80723619D02*
X117620142Y-80723619D01*
X117716904Y-80772000D01*
X117765285Y-80820380D01*
X117813666Y-80917142D01*
X117862047Y-81110666D01*
X117862047Y-81352571D01*
X117813666Y-81546095D01*
X117765285Y-81642857D01*
X117716904Y-81691238D01*
X117620142Y-81739619D01*
X117523380Y-81739619D01*
X117426619Y-81691238D01*
X117378238Y-81642857D01*
X117329857Y-81546095D01*
X117281476Y-81352571D01*
X117281476Y-81110666D01*
X117329857Y-80917142D01*
X117378238Y-80820380D01*
X117426619Y-80772000D01*
X117523380Y-80723619D01*
X118249095Y-80820380D02*
X118297476Y-80772000D01*
X118394238Y-80723619D01*
X118636142Y-80723619D01*
X118732904Y-80772000D01*
X118781285Y-80820380D01*
X118829666Y-80917142D01*
X118829666Y-81013904D01*
X118781285Y-81159047D01*
X118200714Y-81739619D01*
X118829666Y-81739619D01*
X119216714Y-80820380D02*
X119265095Y-80772000D01*
X119361857Y-80723619D01*
X119603761Y-80723619D01*
X119700523Y-80772000D01*
X119748904Y-80820380D01*
X119797285Y-80917142D01*
X119797285Y-81013904D01*
X119748904Y-81159047D01*
X119168333Y-81739619D01*
X119797285Y-81739619D01*
X120281095Y-81691238D02*
X120281095Y-81739619D01*
X120232714Y-81836380D01*
X120184333Y-81884761D01*
X121684142Y-80723619D02*
X121780904Y-80723619D01*
X121877666Y-80772000D01*
X121926047Y-80820380D01*
X121974428Y-80917142D01*
X122022809Y-81110666D01*
X122022809Y-81352571D01*
X121974428Y-81546095D01*
X121926047Y-81642857D01*
X121877666Y-81691238D01*
X121780904Y-81739619D01*
X121684142Y-81739619D01*
X121587380Y-81691238D01*
X121539000Y-81642857D01*
X121490619Y-81546095D01*
X121442238Y-81352571D01*
X121442238Y-81110666D01*
X121490619Y-80917142D01*
X121539000Y-80820380D01*
X121587380Y-80772000D01*
X121684142Y-80723619D01*
X122361476Y-81062285D02*
X122603380Y-81739619D01*
X122845285Y-81062285D01*
X123764523Y-81739619D02*
X123183952Y-81739619D01*
X123474238Y-81739619D02*
X123474238Y-80723619D01*
X123377476Y-80868761D01*
X123280714Y-80965523D01*
X123183952Y-81013904D01*
X80663142Y-57863619D02*
X80905047Y-58879619D01*
X81098571Y-58153904D01*
X81292095Y-58879619D01*
X81534000Y-57863619D01*
X81921047Y-58879619D02*
X81921047Y-58202285D01*
X81921047Y-57863619D02*
X81872666Y-57912000D01*
X81921047Y-57960380D01*
X81969428Y-57912000D01*
X81921047Y-57863619D01*
X81921047Y-57960380D01*
X82404857Y-58202285D02*
X82404857Y-59218285D01*
X82404857Y-58250666D02*
X82501619Y-58202285D01*
X82695142Y-58202285D01*
X82791904Y-58250666D01*
X82840285Y-58299047D01*
X82888666Y-58395809D01*
X82888666Y-58686095D01*
X82840285Y-58782857D01*
X82791904Y-58831238D01*
X82695142Y-58879619D01*
X82501619Y-58879619D01*
X82404857Y-58831238D01*
X83711142Y-58831238D02*
X83614380Y-58879619D01*
X83420857Y-58879619D01*
X83324095Y-58831238D01*
X83275714Y-58734476D01*
X83275714Y-58347428D01*
X83324095Y-58250666D01*
X83420857Y-58202285D01*
X83614380Y-58202285D01*
X83711142Y-58250666D01*
X83759523Y-58347428D01*
X83759523Y-58444190D01*
X83275714Y-58540952D01*
X84194952Y-58879619D02*
X84194952Y-58202285D01*
X84194952Y-58395809D02*
X84243333Y-58299047D01*
X84291714Y-58250666D01*
X84388476Y-58202285D01*
X84485238Y-58202285D01*
X80753857Y-72849619D02*
X80753857Y-71833619D01*
X81140904Y-71833619D01*
X81237666Y-71882000D01*
X81286047Y-71930380D01*
X81334428Y-72027142D01*
X81334428Y-72172285D01*
X81286047Y-72269047D01*
X81237666Y-72317428D01*
X81140904Y-72365809D01*
X80753857Y-72365809D01*
X81624714Y-71833619D02*
X82205285Y-71833619D01*
X81915000Y-72849619D02*
X81915000Y-71833619D01*
X83124523Y-72752857D02*
X83076142Y-72801238D01*
X82931000Y-72849619D01*
X82834238Y-72849619D01*
X82689095Y-72801238D01*
X82592333Y-72704476D01*
X82543952Y-72607714D01*
X82495571Y-72414190D01*
X82495571Y-72269047D01*
X82543952Y-72075523D01*
X82592333Y-71978761D01*
X82689095Y-71882000D01*
X82834238Y-71833619D01*
X82931000Y-71833619D01*
X83076142Y-71882000D01*
X83124523Y-71930380D01*
X81140904Y-69342000D02*
X81044142Y-69293619D01*
X80899000Y-69293619D01*
X80753857Y-69342000D01*
X80657095Y-69438761D01*
X80608714Y-69535523D01*
X80560333Y-69729047D01*
X80560333Y-69874190D01*
X80608714Y-70067714D01*
X80657095Y-70164476D01*
X80753857Y-70261238D01*
X80899000Y-70309619D01*
X80995761Y-70309619D01*
X81140904Y-70261238D01*
X81189285Y-70212857D01*
X81189285Y-69874190D01*
X80995761Y-69874190D01*
X81624714Y-70309619D02*
X81624714Y-69293619D01*
X82205285Y-70309619D01*
X82205285Y-69293619D01*
X82689095Y-70309619D02*
X82689095Y-69293619D01*
X82931000Y-69293619D01*
X83076142Y-69342000D01*
X83172904Y-69438761D01*
X83221285Y-69535523D01*
X83269666Y-69729047D01*
X83269666Y-69874190D01*
X83221285Y-70067714D01*
X83172904Y-70164476D01*
X83076142Y-70261238D01*
X82931000Y-70309619D01*
X82689095Y-70309619D01*
X80705476Y-60403619D02*
X81044142Y-61419619D01*
X81382809Y-60403619D01*
X82156904Y-61371238D02*
X82060142Y-61419619D01*
X81866619Y-61419619D01*
X81769857Y-61371238D01*
X81721476Y-61322857D01*
X81673095Y-61226095D01*
X81673095Y-60935809D01*
X81721476Y-60839047D01*
X81769857Y-60790666D01*
X81866619Y-60742285D01*
X82060142Y-60742285D01*
X82156904Y-60790666D01*
X83027761Y-61371238D02*
X82931000Y-61419619D01*
X82737476Y-61419619D01*
X82640714Y-61371238D01*
X82592333Y-61322857D01*
X82543952Y-61226095D01*
X82543952Y-60935809D01*
X82592333Y-60839047D01*
X82640714Y-60790666D01*
X82737476Y-60742285D01*
X82931000Y-60742285D01*
X83027761Y-60790666D01*
X80705476Y-48973619D02*
X81044142Y-49989619D01*
X81382809Y-48973619D01*
X82156904Y-49941238D02*
X82060142Y-49989619D01*
X81866619Y-49989619D01*
X81769857Y-49941238D01*
X81721476Y-49892857D01*
X81673095Y-49796095D01*
X81673095Y-49505809D01*
X81721476Y-49409047D01*
X81769857Y-49360666D01*
X81866619Y-49312285D01*
X82060142Y-49312285D01*
X82156904Y-49360666D01*
X83027761Y-49941238D02*
X82931000Y-49989619D01*
X82737476Y-49989619D01*
X82640714Y-49941238D01*
X82592333Y-49892857D01*
X82543952Y-49796095D01*
X82543952Y-49505809D01*
X82592333Y-49409047D01*
X82640714Y-49360666D01*
X82737476Y-49312285D01*
X82931000Y-49312285D01*
X83027761Y-49360666D01*
X80681285Y-47401238D02*
X80826428Y-47449619D01*
X81068333Y-47449619D01*
X81165095Y-47401238D01*
X81213476Y-47352857D01*
X81261857Y-47256095D01*
X81261857Y-47159333D01*
X81213476Y-47062571D01*
X81165095Y-47014190D01*
X81068333Y-46965809D01*
X80874809Y-46917428D01*
X80778047Y-46869047D01*
X80729666Y-46820666D01*
X80681285Y-46723904D01*
X80681285Y-46627142D01*
X80729666Y-46530380D01*
X80778047Y-46482000D01*
X80874809Y-46433619D01*
X81116714Y-46433619D01*
X81261857Y-46482000D01*
X81697285Y-47449619D02*
X81697285Y-46433619D01*
X81939190Y-46433619D01*
X82084333Y-46482000D01*
X82181095Y-46578761D01*
X82229476Y-46675523D01*
X82277857Y-46869047D01*
X82277857Y-47014190D01*
X82229476Y-47207714D01*
X82181095Y-47304476D01*
X82084333Y-47401238D01*
X81939190Y-47449619D01*
X81697285Y-47449619D01*
X82664904Y-47159333D02*
X83148714Y-47159333D01*
X82568142Y-47449619D02*
X82906809Y-46433619D01*
X83245476Y-47449619D01*
X80705476Y-44861238D02*
X80850619Y-44909619D01*
X81092523Y-44909619D01*
X81189285Y-44861238D01*
X81237666Y-44812857D01*
X81286047Y-44716095D01*
X81286047Y-44619333D01*
X81237666Y-44522571D01*
X81189285Y-44474190D01*
X81092523Y-44425809D01*
X80899000Y-44377428D01*
X80802238Y-44329047D01*
X80753857Y-44280666D01*
X80705476Y-44183904D01*
X80705476Y-44087142D01*
X80753857Y-43990380D01*
X80802238Y-43942000D01*
X80899000Y-43893619D01*
X81140904Y-43893619D01*
X81286047Y-43942000D01*
X82302047Y-44812857D02*
X82253666Y-44861238D01*
X82108523Y-44909619D01*
X82011761Y-44909619D01*
X81866619Y-44861238D01*
X81769857Y-44764476D01*
X81721476Y-44667714D01*
X81673095Y-44474190D01*
X81673095Y-44329047D01*
X81721476Y-44135523D01*
X81769857Y-44038761D01*
X81866619Y-43942000D01*
X82011761Y-43893619D01*
X82108523Y-43893619D01*
X82253666Y-43942000D01*
X82302047Y-43990380D01*
X83221285Y-44909619D02*
X82737476Y-44909619D01*
X82737476Y-43893619D01*
X81140904Y-55372000D02*
X81044142Y-55323619D01*
X80899000Y-55323619D01*
X80753857Y-55372000D01*
X80657095Y-55468761D01*
X80608714Y-55565523D01*
X80560333Y-55759047D01*
X80560333Y-55904190D01*
X80608714Y-56097714D01*
X80657095Y-56194476D01*
X80753857Y-56291238D01*
X80899000Y-56339619D01*
X80995761Y-56339619D01*
X81140904Y-56291238D01*
X81189285Y-56242857D01*
X81189285Y-55904190D01*
X80995761Y-55904190D01*
X81624714Y-56339619D02*
X81624714Y-55323619D01*
X82205285Y-56339619D01*
X82205285Y-55323619D01*
X82689095Y-56339619D02*
X82689095Y-55323619D01*
X82931000Y-55323619D01*
X83076142Y-55372000D01*
X83172904Y-55468761D01*
X83221285Y-55565523D01*
X83269666Y-55759047D01*
X83269666Y-55904190D01*
X83221285Y-56097714D01*
X83172904Y-56194476D01*
X83076142Y-56291238D01*
X82931000Y-56339619D01*
X82689095Y-56339619D01*
X81140904Y-41402000D02*
X81044142Y-41353619D01*
X80899000Y-41353619D01*
X80753857Y-41402000D01*
X80657095Y-41498761D01*
X80608714Y-41595523D01*
X80560333Y-41789047D01*
X80560333Y-41934190D01*
X80608714Y-42127714D01*
X80657095Y-42224476D01*
X80753857Y-42321238D01*
X80899000Y-42369619D01*
X80995761Y-42369619D01*
X81140904Y-42321238D01*
X81189285Y-42272857D01*
X81189285Y-41934190D01*
X80995761Y-41934190D01*
X81624714Y-42369619D02*
X81624714Y-41353619D01*
X82205285Y-42369619D01*
X82205285Y-41353619D01*
X82689095Y-42369619D02*
X82689095Y-41353619D01*
X82931000Y-41353619D01*
X83076142Y-41402000D01*
X83172904Y-41498761D01*
X83221285Y-41595523D01*
X83269666Y-41789047D01*
X83269666Y-41934190D01*
X83221285Y-42127714D01*
X83172904Y-42224476D01*
X83076142Y-42321238D01*
X82931000Y-42369619D01*
X82689095Y-42369619D01*
X81140904Y-31877000D02*
X81044142Y-31828619D01*
X80899000Y-31828619D01*
X80753857Y-31877000D01*
X80657095Y-31973761D01*
X80608714Y-32070523D01*
X80560333Y-32264047D01*
X80560333Y-32409190D01*
X80608714Y-32602714D01*
X80657095Y-32699476D01*
X80753857Y-32796238D01*
X80899000Y-32844619D01*
X80995761Y-32844619D01*
X81140904Y-32796238D01*
X81189285Y-32747857D01*
X81189285Y-32409190D01*
X80995761Y-32409190D01*
X81624714Y-32844619D02*
X81624714Y-31828619D01*
X82205285Y-32844619D01*
X82205285Y-31828619D01*
X82689095Y-32844619D02*
X82689095Y-31828619D01*
X82931000Y-31828619D01*
X83076142Y-31877000D01*
X83172904Y-31973761D01*
X83221285Y-32070523D01*
X83269666Y-32264047D01*
X83269666Y-32409190D01*
X83221285Y-32602714D01*
X83172904Y-32699476D01*
X83076142Y-32796238D01*
X82931000Y-32844619D01*
X82689095Y-32844619D01*
X117196809Y-24843619D02*
X117535476Y-25859619D01*
X117874142Y-24843619D01*
X118212809Y-25859619D02*
X118212809Y-25182285D01*
X118212809Y-24843619D02*
X118164428Y-24892000D01*
X118212809Y-24940380D01*
X118261190Y-24892000D01*
X118212809Y-24843619D01*
X118212809Y-24940380D01*
X118696619Y-25182285D02*
X118696619Y-25859619D01*
X118696619Y-25279047D02*
X118745000Y-25230666D01*
X118841761Y-25182285D01*
X118986904Y-25182285D01*
X119083666Y-25230666D01*
X119132047Y-25327428D01*
X119132047Y-25859619D01*
X120680238Y-26246666D02*
X120631857Y-26198285D01*
X120535095Y-26053142D01*
X120486714Y-25956380D01*
X120438333Y-25811238D01*
X120389952Y-25569333D01*
X120389952Y-25375809D01*
X120438333Y-25133904D01*
X120486714Y-24988761D01*
X120535095Y-24892000D01*
X120631857Y-24746857D01*
X120680238Y-24698476D01*
X121067285Y-25472571D02*
X121841380Y-25472571D01*
X121454333Y-25859619D02*
X121454333Y-25085523D01*
X122276809Y-24940380D02*
X122325190Y-24892000D01*
X122421952Y-24843619D01*
X122663857Y-24843619D01*
X122760619Y-24892000D01*
X122809000Y-24940380D01*
X122857380Y-25037142D01*
X122857380Y-25133904D01*
X122809000Y-25279047D01*
X122228428Y-25859619D01*
X122857380Y-25859619D01*
X123728238Y-25182285D02*
X123728238Y-25859619D01*
X123486333Y-24795238D02*
X123244428Y-25520952D01*
X123873380Y-25520952D01*
X124163666Y-25182285D02*
X124405571Y-25859619D01*
X124647476Y-25182285D01*
X124937761Y-26246666D02*
X124986142Y-26198285D01*
X125082904Y-26053142D01*
X125131285Y-25956380D01*
X125179666Y-25811238D01*
X125228047Y-25569333D01*
X125228047Y-25375809D01*
X125179666Y-25133904D01*
X125131285Y-24988761D01*
X125082904Y-24892000D01*
X124986142Y-24746857D01*
X124937761Y-24698476D01*
X129400904Y-27432000D02*
X129304142Y-27383619D01*
X129159000Y-27383619D01*
X129013857Y-27432000D01*
X128917095Y-27528761D01*
X128868714Y-27625523D01*
X128820333Y-27819047D01*
X128820333Y-27964190D01*
X128868714Y-28157714D01*
X128917095Y-28254476D01*
X129013857Y-28351238D01*
X129159000Y-28399619D01*
X129255761Y-28399619D01*
X129400904Y-28351238D01*
X129449285Y-28302857D01*
X129449285Y-27964190D01*
X129255761Y-27964190D01*
X129884714Y-28399619D02*
X129884714Y-27383619D01*
X130465285Y-28399619D01*
X130465285Y-27383619D01*
X130949095Y-28399619D02*
X130949095Y-27383619D01*
X131191000Y-27383619D01*
X131336142Y-27432000D01*
X131432904Y-27528761D01*
X131481285Y-27625523D01*
X131529666Y-27819047D01*
X131529666Y-27964190D01*
X131481285Y-28157714D01*
X131432904Y-28254476D01*
X131336142Y-28351238D01*
X131191000Y-28399619D01*
X130949095Y-28399619D01*
X133706809Y-27383619D02*
X134045476Y-28399619D01*
X134384142Y-27383619D01*
X134722809Y-28399619D02*
X134722809Y-27722285D01*
X134722809Y-27383619D02*
X134674428Y-27432000D01*
X134722809Y-27480380D01*
X134771190Y-27432000D01*
X134722809Y-27383619D01*
X134722809Y-27480380D01*
X135206619Y-27722285D02*
X135206619Y-28399619D01*
X135206619Y-27819047D02*
X135255000Y-27770666D01*
X135351761Y-27722285D01*
X135496904Y-27722285D01*
X135593666Y-27770666D01*
X135642047Y-27867428D01*
X135642047Y-28399619D01*
X137190238Y-28786666D02*
X137141857Y-28738285D01*
X137045095Y-28593142D01*
X136996714Y-28496380D01*
X136948333Y-28351238D01*
X136899952Y-28109333D01*
X136899952Y-27915809D01*
X136948333Y-27673904D01*
X136996714Y-27528761D01*
X137045095Y-27432000D01*
X137141857Y-27286857D01*
X137190238Y-27238476D01*
X137577285Y-28012571D02*
X138351380Y-28012571D01*
X137964333Y-28399619D02*
X137964333Y-27625523D01*
X138786809Y-27480380D02*
X138835190Y-27432000D01*
X138931952Y-27383619D01*
X139173857Y-27383619D01*
X139270619Y-27432000D01*
X139319000Y-27480380D01*
X139367380Y-27577142D01*
X139367380Y-27673904D01*
X139319000Y-27819047D01*
X138738428Y-28399619D01*
X139367380Y-28399619D01*
X140238238Y-27722285D02*
X140238238Y-28399619D01*
X139996333Y-27335238D02*
X139754428Y-28060952D01*
X140383380Y-28060952D01*
X140673666Y-27722285D02*
X140915571Y-28399619D01*
X141157476Y-27722285D01*
X141447761Y-28786666D02*
X141496142Y-28738285D01*
X141592904Y-28593142D01*
X141641285Y-28496380D01*
X141689666Y-28351238D01*
X141738047Y-28109333D01*
X141738047Y-27915809D01*
X141689666Y-27673904D01*
X141641285Y-27528761D01*
X141592904Y-27432000D01*
X141496142Y-27286857D01*
X141447761Y-27238476D01*
D11*
G04 #@! TO.C,U1*
X144938750Y-31273750D02*
X144938750Y-74136250D01*
X144938750Y-74136250D02*
X124301250Y-74136250D01*
X124301250Y-31273750D02*
X124301250Y-74136250D01*
X144938750Y-31273750D02*
X124301250Y-31273750D01*
D12*
G04 #@! TO.C,J1*
X130115000Y-26730000D02*
X130115000Y-25400000D01*
X131445000Y-26730000D02*
X130115000Y-26730000D01*
X132715000Y-26730000D02*
X132715000Y-24070000D01*
X132715000Y-24070000D02*
X135315000Y-24070000D01*
X132715000Y-26730000D02*
X135315000Y-26730000D01*
X135315000Y-26730000D02*
X135315000Y-24070000D01*
G04 #@! TO.C,J3*
X77410000Y-54550000D02*
X78740000Y-54550000D01*
X77410000Y-55880000D02*
X77410000Y-54550000D01*
X77410000Y-57150000D02*
X80070000Y-57150000D01*
X80070000Y-57150000D02*
X80070000Y-62290000D01*
X77410000Y-57150000D02*
X77410000Y-62290000D01*
X77410000Y-62290000D02*
X80070000Y-62290000D01*
G04 #@! TO.C,U2*
X109390000Y-63380000D02*
X98890000Y-63380000D01*
X109390000Y-73780000D02*
X109390000Y-63380000D01*
X98890000Y-73780000D02*
X109390000Y-73780000D01*
X98890000Y-63380000D02*
X98890000Y-73780000D01*
X106390000Y-63440000D02*
X105140000Y-63440000D01*
X106390000Y-73720000D02*
X106390000Y-63440000D01*
X101890000Y-73720000D02*
X106390000Y-73720000D01*
X101890000Y-63440000D02*
X101890000Y-73720000D01*
X103140000Y-63440000D02*
X101890000Y-63440000D01*
X105140000Y-63440000D02*
G75*
G02X103140000Y-63440000I-1000000J0D01*
G01*
G04 #@! TO.C,D1*
X112360000Y-28375000D02*
X112360000Y-31315000D01*
X112600000Y-28375000D02*
X112600000Y-31315000D01*
X112480000Y-28375000D02*
X112480000Y-31315000D01*
X117020000Y-31315000D02*
X117020000Y-31185000D01*
X111580000Y-31315000D02*
X117020000Y-31315000D01*
X111580000Y-31185000D02*
X111580000Y-31315000D01*
X117020000Y-28375000D02*
X117020000Y-28505000D01*
X111580000Y-28375000D02*
X117020000Y-28375000D01*
X111580000Y-28505000D02*
X111580000Y-28375000D01*
G04 #@! TO.C,D2*
X77660000Y-32095000D02*
X77504000Y-32095000D01*
X79976000Y-32095000D02*
X79820000Y-32095000D01*
X77660163Y-34696130D02*
G75*
G02X77660000Y-32614039I1079837J1041130D01*
G01*
X79819837Y-34696130D02*
G75*
G03X79820000Y-32614039I-1079837J1041130D01*
G01*
X77661392Y-35327335D02*
G75*
G02X77504484Y-32095000I1078608J1672335D01*
G01*
X79818608Y-35327335D02*
G75*
G03X79975516Y-32095000I-1078608J1672335D01*
G01*
G04 #@! TO.C,J5*
X132020000Y-80070000D02*
X132020000Y-78740000D01*
X133350000Y-80070000D02*
X132020000Y-80070000D01*
X134620000Y-80070000D02*
X134620000Y-77410000D01*
X134620000Y-77410000D02*
X137220000Y-77410000D01*
X134620000Y-80070000D02*
X137220000Y-80070000D01*
X137220000Y-80070000D02*
X137220000Y-77410000D01*
G04 #@! TO.C,Q1*
X101720000Y-24765000D02*
X104260000Y-24765000D01*
X101720000Y-27305000D02*
X104260000Y-27305000D01*
X101720000Y-29845000D02*
X104260000Y-29845000D01*
X85830000Y-22185000D02*
X101720000Y-22185000D01*
X85830000Y-32425000D02*
X101720000Y-32425000D01*
X85830000Y-32425000D02*
X85830000Y-22185000D01*
X101720000Y-32425000D02*
X101720000Y-22185000D01*
G04 #@! TO.C,R1*
X113030000Y-71350000D02*
X113030000Y-70580000D01*
X113030000Y-63270000D02*
X113030000Y-64040000D01*
X114400000Y-70580000D02*
X114400000Y-64040000D01*
X111660000Y-70580000D02*
X114400000Y-70580000D01*
X111660000Y-64040000D02*
X111660000Y-70580000D01*
X114400000Y-64040000D02*
X111660000Y-64040000D01*
G04 #@! TO.C,R2*
X116840000Y-63270000D02*
X116840000Y-64040000D01*
X116840000Y-71350000D02*
X116840000Y-70580000D01*
X115470000Y-64040000D02*
X115470000Y-70580000D01*
X118210000Y-64040000D02*
X115470000Y-64040000D01*
X118210000Y-70580000D02*
X118210000Y-64040000D01*
X115470000Y-70580000D02*
X118210000Y-70580000D01*
G04 #@! TO.C,R3*
X114530000Y-34925000D02*
X113760000Y-34925000D01*
X106450000Y-34925000D02*
X107220000Y-34925000D01*
X113760000Y-33555000D02*
X107220000Y-33555000D01*
X113760000Y-36295000D02*
X113760000Y-33555000D01*
X107220000Y-36295000D02*
X113760000Y-36295000D01*
X107220000Y-33555000D02*
X107220000Y-36295000D01*
G04 #@! TO.C,R4*
X86765000Y-72390000D02*
X87535000Y-72390000D01*
X94845000Y-72390000D02*
X94075000Y-72390000D01*
X87535000Y-73760000D02*
X94075000Y-73760000D01*
X87535000Y-71020000D02*
X87535000Y-73760000D01*
X94075000Y-71020000D02*
X87535000Y-71020000D01*
X94075000Y-73760000D02*
X94075000Y-71020000D01*
G04 #@! TO.C,R5*
X86765000Y-67310000D02*
X87535000Y-67310000D01*
X94845000Y-67310000D02*
X94075000Y-67310000D01*
X87535000Y-68680000D02*
X94075000Y-68680000D01*
X87535000Y-65940000D02*
X87535000Y-68680000D01*
X94075000Y-65940000D02*
X87535000Y-65940000D01*
X94075000Y-68680000D02*
X94075000Y-65940000D01*
G04 #@! TO.C,R6*
X94845000Y-63500000D02*
X94075000Y-63500000D01*
X86765000Y-63500000D02*
X87535000Y-63500000D01*
X94075000Y-62130000D02*
X87535000Y-62130000D01*
X94075000Y-64870000D02*
X94075000Y-62130000D01*
X87535000Y-64870000D02*
X94075000Y-64870000D01*
X87535000Y-62130000D02*
X87535000Y-64870000D01*
G04 #@! TO.C,R7*
X96750000Y-34925000D02*
X95980000Y-34925000D01*
X88670000Y-34925000D02*
X89440000Y-34925000D01*
X95980000Y-33555000D02*
X89440000Y-33555000D01*
X95980000Y-36295000D02*
X95980000Y-33555000D01*
X89440000Y-36295000D02*
X95980000Y-36295000D01*
X89440000Y-33555000D02*
X89440000Y-36295000D01*
G04 #@! TO.C,C1*
X102980000Y-58635000D02*
X102980000Y-58320000D01*
X102980000Y-61060000D02*
X102980000Y-60745000D01*
X107920000Y-58635000D02*
X107920000Y-58320000D01*
X107920000Y-61060000D02*
X107920000Y-60745000D01*
X107920000Y-58320000D02*
X102980000Y-58320000D01*
X107920000Y-61060000D02*
X102980000Y-61060000D01*
G04 #@! TO.C,J6*
X111700000Y-26730000D02*
X111700000Y-25400000D01*
X113030000Y-26730000D02*
X111700000Y-26730000D01*
X114300000Y-26730000D02*
X114300000Y-24070000D01*
X114300000Y-24070000D02*
X116900000Y-24070000D01*
X114300000Y-26730000D02*
X116900000Y-26730000D01*
X116900000Y-26730000D02*
X116900000Y-24070000D01*
G04 #@! TO.C,J2*
X77410000Y-40580000D02*
X78740000Y-40580000D01*
X77410000Y-41910000D02*
X77410000Y-40580000D01*
X77410000Y-43180000D02*
X80070000Y-43180000D01*
X80070000Y-43180000D02*
X80070000Y-50860000D01*
X77410000Y-43180000D02*
X77410000Y-50860000D01*
X77410000Y-50860000D02*
X80070000Y-50860000D01*
G04 #@! TO.C,J4*
X77410000Y-68520000D02*
X78740000Y-68520000D01*
X77410000Y-69850000D02*
X77410000Y-68520000D01*
X77410000Y-71120000D02*
X80070000Y-71120000D01*
X80070000Y-71120000D02*
X80070000Y-73720000D01*
X77410000Y-71120000D02*
X77410000Y-73720000D01*
X77410000Y-73720000D02*
X80070000Y-73720000D01*
D13*
G04 #@! TO.C,U3*
X119380000Y-38100000D02*
X86360000Y-38100000D01*
X86360000Y-38100000D02*
X86360000Y-55880000D01*
X86360000Y-55880000D02*
X119380000Y-55880000D01*
X119380000Y-55880000D02*
X119380000Y-38100000D01*
G04 #@! TO.C,U1*
D11*
X146050095Y-52157380D02*
X146050095Y-52966904D01*
X146097714Y-53062142D01*
X146145333Y-53109761D01*
X146240571Y-53157380D01*
X146431047Y-53157380D01*
X146526285Y-53109761D01*
X146573904Y-53062142D01*
X146621523Y-52966904D01*
X146621523Y-52157380D01*
X147621523Y-53157380D02*
X147050095Y-53157380D01*
X147335809Y-53157380D02*
X147335809Y-52157380D01*
X147240571Y-52300238D01*
X147145333Y-52395476D01*
X147050095Y-52443095D01*
X123730000Y-75636428D02*
X124491904Y-75636428D01*
X124825238Y-75017380D02*
X125158571Y-76017380D01*
X125491904Y-75017380D01*
X125968095Y-76017380D02*
X125872857Y-75969761D01*
X125825238Y-75922142D01*
X125777619Y-75826904D01*
X125777619Y-75541190D01*
X125825238Y-75445952D01*
X125872857Y-75398333D01*
X125968095Y-75350714D01*
X126110952Y-75350714D01*
X126206190Y-75398333D01*
X126253809Y-75445952D01*
X126301428Y-75541190D01*
X126301428Y-75826904D01*
X126253809Y-75922142D01*
X126206190Y-75969761D01*
X126110952Y-76017380D01*
X125968095Y-76017380D01*
X127158571Y-75350714D02*
X127158571Y-76017380D01*
X126730000Y-75350714D02*
X126730000Y-75874523D01*
X126777619Y-75969761D01*
X126872857Y-76017380D01*
X127015714Y-76017380D01*
X127110952Y-75969761D01*
X127158571Y-75922142D01*
X127491904Y-75350714D02*
X127872857Y-75350714D01*
X127634761Y-75017380D02*
X127634761Y-75874523D01*
X127682380Y-75969761D01*
X127777619Y-76017380D01*
X127872857Y-76017380D01*
X140875000Y-75636428D02*
X141636904Y-75636428D01*
X141255952Y-76017380D02*
X141255952Y-75255476D01*
X141970238Y-75017380D02*
X142303571Y-76017380D01*
X142636904Y-75017380D01*
X143113095Y-76017380D02*
X143017857Y-75969761D01*
X142970238Y-75922142D01*
X142922619Y-75826904D01*
X142922619Y-75541190D01*
X142970238Y-75445952D01*
X143017857Y-75398333D01*
X143113095Y-75350714D01*
X143255952Y-75350714D01*
X143351190Y-75398333D01*
X143398809Y-75445952D01*
X143446428Y-75541190D01*
X143446428Y-75826904D01*
X143398809Y-75922142D01*
X143351190Y-75969761D01*
X143255952Y-76017380D01*
X143113095Y-76017380D01*
X144303571Y-75350714D02*
X144303571Y-76017380D01*
X143875000Y-75350714D02*
X143875000Y-75874523D01*
X143922619Y-75969761D01*
X144017857Y-76017380D01*
X144160714Y-76017380D01*
X144255952Y-75969761D01*
X144303571Y-75922142D01*
X144636904Y-75350714D02*
X145017857Y-75350714D01*
X144779761Y-75017380D02*
X144779761Y-75874523D01*
X144827380Y-75969761D01*
X144922619Y-76017380D01*
X145017857Y-76017380D01*
X124484000Y-29916428D02*
X125245904Y-29916428D01*
X125579238Y-29297380D02*
X125912571Y-30297380D01*
X126245904Y-29297380D01*
X126579238Y-30297380D02*
X126579238Y-29630714D01*
X126579238Y-29297380D02*
X126531619Y-29345000D01*
X126579238Y-29392619D01*
X126626857Y-29345000D01*
X126579238Y-29297380D01*
X126579238Y-29392619D01*
X127055428Y-29630714D02*
X127055428Y-30297380D01*
X127055428Y-29725952D02*
X127103047Y-29678333D01*
X127198285Y-29630714D01*
X127341142Y-29630714D01*
X127436380Y-29678333D01*
X127484000Y-29773571D01*
X127484000Y-30297380D01*
X141375000Y-29916428D02*
X142136904Y-29916428D01*
X141755952Y-30297380D02*
X141755952Y-29535476D01*
X142470238Y-29297380D02*
X142803571Y-30297380D01*
X143136904Y-29297380D01*
X143470238Y-30297380D02*
X143470238Y-29630714D01*
X143470238Y-29297380D02*
X143422619Y-29345000D01*
X143470238Y-29392619D01*
X143517857Y-29345000D01*
X143470238Y-29297380D01*
X143470238Y-29392619D01*
X143946428Y-29630714D02*
X143946428Y-30297380D01*
X143946428Y-29725952D02*
X143994047Y-29678333D01*
X144089285Y-29630714D01*
X144232142Y-29630714D01*
X144327380Y-29678333D01*
X144375000Y-29773571D01*
X144375000Y-30297380D01*
G04 #@! TO.C,J1*
X128571666Y-24852380D02*
X128571666Y-25566666D01*
X128524047Y-25709523D01*
X128428809Y-25804761D01*
X128285952Y-25852380D01*
X128190714Y-25852380D01*
X129571666Y-25852380D02*
X129000238Y-25852380D01*
X129285952Y-25852380D02*
X129285952Y-24852380D01*
X129190714Y-24995238D01*
X129095476Y-25090476D01*
X129000238Y-25138095D01*
X130310238Y-23312380D02*
X130310238Y-22312380D01*
X130691190Y-22312380D01*
X130786428Y-22360000D01*
X130834047Y-22407619D01*
X130881666Y-22502857D01*
X130881666Y-22645714D01*
X130834047Y-22740952D01*
X130786428Y-22788571D01*
X130691190Y-22836190D01*
X130310238Y-22836190D01*
X131215000Y-22312380D02*
X131453095Y-23312380D01*
X131643571Y-22598095D01*
X131834047Y-23312380D01*
X132072142Y-22312380D01*
X133024523Y-23312380D02*
X132691190Y-22836190D01*
X132453095Y-23312380D02*
X132453095Y-22312380D01*
X132834047Y-22312380D01*
X132929285Y-22360000D01*
X132976904Y-22407619D01*
X133024523Y-22502857D01*
X133024523Y-22645714D01*
X132976904Y-22740952D01*
X132929285Y-22788571D01*
X132834047Y-22836190D01*
X132453095Y-22836190D01*
X134215000Y-23312380D02*
X134215000Y-22312380D01*
X134691190Y-22645714D02*
X134691190Y-23312380D01*
X134691190Y-22740952D02*
X134738809Y-22693333D01*
X134834047Y-22645714D01*
X134976904Y-22645714D01*
X135072142Y-22693333D01*
X135119761Y-22788571D01*
X135119761Y-23312380D01*
G04 #@! TO.C,J3*
X78406666Y-53002380D02*
X78406666Y-53716666D01*
X78359047Y-53859523D01*
X78263809Y-53954761D01*
X78120952Y-54002380D01*
X78025714Y-54002380D01*
X78787619Y-53002380D02*
X79406666Y-53002380D01*
X79073333Y-53383333D01*
X79216190Y-53383333D01*
X79311428Y-53430952D01*
X79359047Y-53478571D01*
X79406666Y-53573809D01*
X79406666Y-53811904D01*
X79359047Y-53907142D01*
X79311428Y-53954761D01*
X79216190Y-54002380D01*
X78930476Y-54002380D01*
X78835238Y-53954761D01*
X78787619Y-53907142D01*
X76604761Y-61300952D02*
X76652380Y-61158095D01*
X76652380Y-60920000D01*
X76604761Y-60824761D01*
X76557142Y-60777142D01*
X76461904Y-60729523D01*
X76366666Y-60729523D01*
X76271428Y-60777142D01*
X76223809Y-60824761D01*
X76176190Y-60920000D01*
X76128571Y-61110476D01*
X76080952Y-61205714D01*
X76033333Y-61253333D01*
X75938095Y-61300952D01*
X75842857Y-61300952D01*
X75747619Y-61253333D01*
X75700000Y-61205714D01*
X75652380Y-61110476D01*
X75652380Y-60872380D01*
X75700000Y-60729523D01*
X76604761Y-59920000D02*
X76652380Y-60015238D01*
X76652380Y-60205714D01*
X76604761Y-60300952D01*
X76509523Y-60348571D01*
X76128571Y-60348571D01*
X76033333Y-60300952D01*
X75985714Y-60205714D01*
X75985714Y-60015238D01*
X76033333Y-59920000D01*
X76128571Y-59872380D01*
X76223809Y-59872380D01*
X76319047Y-60348571D01*
X75985714Y-59586666D02*
X75985714Y-59205714D01*
X75652380Y-59443809D02*
X76509523Y-59443809D01*
X76604761Y-59396190D01*
X76652380Y-59300952D01*
X76652380Y-59205714D01*
X75985714Y-58872380D02*
X76985714Y-58872380D01*
X76033333Y-58872380D02*
X75985714Y-58777142D01*
X75985714Y-58586666D01*
X76033333Y-58491428D01*
X76080952Y-58443809D01*
X76176190Y-58396190D01*
X76461904Y-58396190D01*
X76557142Y-58443809D01*
X76604761Y-58491428D01*
X76652380Y-58586666D01*
X76652380Y-58777142D01*
X76604761Y-58872380D01*
X76652380Y-57824761D02*
X76604761Y-57920000D01*
X76557142Y-57967619D01*
X76461904Y-58015238D01*
X76176190Y-58015238D01*
X76080952Y-57967619D01*
X76033333Y-57920000D01*
X75985714Y-57824761D01*
X75985714Y-57681904D01*
X76033333Y-57586666D01*
X76080952Y-57539047D01*
X76176190Y-57491428D01*
X76461904Y-57491428D01*
X76557142Y-57539047D01*
X76604761Y-57586666D01*
X76652380Y-57681904D01*
X76652380Y-57824761D01*
X76652380Y-57062857D02*
X75985714Y-57062857D01*
X75652380Y-57062857D02*
X75700000Y-57110476D01*
X75747619Y-57062857D01*
X75700000Y-57015238D01*
X75652380Y-57062857D01*
X75747619Y-57062857D01*
X75985714Y-56586666D02*
X76652380Y-56586666D01*
X76080952Y-56586666D02*
X76033333Y-56539047D01*
X75985714Y-56443809D01*
X75985714Y-56300952D01*
X76033333Y-56205714D01*
X76128571Y-56158095D01*
X76652380Y-56158095D01*
X75985714Y-55824761D02*
X75985714Y-55443809D01*
X75652380Y-55681904D02*
X76509523Y-55681904D01*
X76604761Y-55634285D01*
X76652380Y-55539047D01*
X76652380Y-55443809D01*
G04 #@! TO.C,U2*
X99060095Y-61682380D02*
X99060095Y-62491904D01*
X99107714Y-62587142D01*
X99155333Y-62634761D01*
X99250571Y-62682380D01*
X99441047Y-62682380D01*
X99536285Y-62634761D01*
X99583904Y-62587142D01*
X99631523Y-62491904D01*
X99631523Y-61682380D01*
X100060095Y-61777619D02*
X100107714Y-61730000D01*
X100202952Y-61682380D01*
X100441047Y-61682380D01*
X100536285Y-61730000D01*
X100583904Y-61777619D01*
X100631523Y-61872857D01*
X100631523Y-61968095D01*
X100583904Y-62110952D01*
X100012476Y-62682380D01*
X100631523Y-62682380D01*
G04 #@! TO.C,D1*
X119911904Y-30297380D02*
X119911904Y-29297380D01*
X120150000Y-29297380D01*
X120292857Y-29345000D01*
X120388095Y-29440238D01*
X120435714Y-29535476D01*
X120483333Y-29725952D01*
X120483333Y-29868809D01*
X120435714Y-30059285D01*
X120388095Y-30154523D01*
X120292857Y-30249761D01*
X120150000Y-30297380D01*
X119911904Y-30297380D01*
X121435714Y-30297380D02*
X120864285Y-30297380D01*
X121150000Y-30297380D02*
X121150000Y-29297380D01*
X121054761Y-29440238D01*
X120959523Y-29535476D01*
X120864285Y-29583095D01*
X110228095Y-28197380D02*
X110228095Y-27197380D01*
X110799523Y-28197380D02*
X110370952Y-27625952D01*
X110799523Y-27197380D02*
X110228095Y-27768809D01*
G04 #@! TO.C,D2*
X78001904Y-30932380D02*
X78001904Y-29932380D01*
X78240000Y-29932380D01*
X78382857Y-29980000D01*
X78478095Y-30075238D01*
X78525714Y-30170476D01*
X78573333Y-30360952D01*
X78573333Y-30503809D01*
X78525714Y-30694285D01*
X78478095Y-30789523D01*
X78382857Y-30884761D01*
X78240000Y-30932380D01*
X78001904Y-30932380D01*
X78954285Y-30027619D02*
X79001904Y-29980000D01*
X79097142Y-29932380D01*
X79335238Y-29932380D01*
X79430476Y-29980000D01*
X79478095Y-30027619D01*
X79525714Y-30122857D01*
X79525714Y-30218095D01*
X79478095Y-30360952D01*
X78906666Y-30932380D01*
X79525714Y-30932380D01*
X76232380Y-34297857D02*
X76232380Y-34774047D01*
X75232380Y-34774047D01*
X75708571Y-33964523D02*
X75708571Y-33631190D01*
X76232380Y-33488333D02*
X76232380Y-33964523D01*
X75232380Y-33964523D01*
X75232380Y-33488333D01*
X76232380Y-33059761D02*
X75232380Y-33059761D01*
X75232380Y-32821666D01*
X75280000Y-32678809D01*
X75375238Y-32583571D01*
X75470476Y-32535952D01*
X75660952Y-32488333D01*
X75803809Y-32488333D01*
X75994285Y-32535952D01*
X76089523Y-32583571D01*
X76184761Y-32678809D01*
X76232380Y-32821666D01*
X76232380Y-33059761D01*
G04 #@! TO.C,J5*
X134286666Y-75652380D02*
X134286666Y-76366666D01*
X134239047Y-76509523D01*
X134143809Y-76604761D01*
X134000952Y-76652380D01*
X133905714Y-76652380D01*
X135239047Y-75652380D02*
X134762857Y-75652380D01*
X134715238Y-76128571D01*
X134762857Y-76080952D01*
X134858095Y-76033333D01*
X135096190Y-76033333D01*
X135191428Y-76080952D01*
X135239047Y-76128571D01*
X135286666Y-76223809D01*
X135286666Y-76461904D01*
X135239047Y-76557142D01*
X135191428Y-76604761D01*
X135096190Y-76652380D01*
X134858095Y-76652380D01*
X134762857Y-76604761D01*
X134715238Y-76557142D01*
X129691428Y-80732380D02*
X129215238Y-80732380D01*
X129167619Y-81208571D01*
X129215238Y-81160952D01*
X129310476Y-81113333D01*
X129548571Y-81113333D01*
X129643809Y-81160952D01*
X129691428Y-81208571D01*
X129739047Y-81303809D01*
X129739047Y-81541904D01*
X129691428Y-81637142D01*
X129643809Y-81684761D01*
X129548571Y-81732380D01*
X129310476Y-81732380D01*
X129215238Y-81684761D01*
X129167619Y-81637142D01*
X130072380Y-81065714D02*
X130310476Y-81732380D01*
X130548571Y-81065714D01*
X131691428Y-81732380D02*
X131691428Y-80732380D01*
X132072380Y-80732380D01*
X132167619Y-80780000D01*
X132215238Y-80827619D01*
X132262857Y-80922857D01*
X132262857Y-81065714D01*
X132215238Y-81160952D01*
X132167619Y-81208571D01*
X132072380Y-81256190D01*
X131691428Y-81256190D01*
X132596190Y-81065714D02*
X132786666Y-81732380D01*
X132977142Y-81256190D01*
X133167619Y-81732380D01*
X133358095Y-81065714D01*
X133739047Y-81732380D02*
X133739047Y-81065714D01*
X133739047Y-81256190D02*
X133786666Y-81160952D01*
X133834285Y-81113333D01*
X133929523Y-81065714D01*
X134024761Y-81065714D01*
X135405714Y-80732380D02*
X135405714Y-81446666D01*
X135358095Y-81589523D01*
X135262857Y-81684761D01*
X135120000Y-81732380D01*
X135024761Y-81732380D01*
X136310476Y-81065714D02*
X136310476Y-81732380D01*
X135881904Y-81065714D02*
X135881904Y-81589523D01*
X135929523Y-81684761D01*
X136024761Y-81732380D01*
X136167619Y-81732380D01*
X136262857Y-81684761D01*
X136310476Y-81637142D01*
X136786666Y-81732380D02*
X136786666Y-81065714D01*
X136786666Y-81160952D02*
X136834285Y-81113333D01*
X136929523Y-81065714D01*
X137072380Y-81065714D01*
X137167619Y-81113333D01*
X137215238Y-81208571D01*
X137215238Y-81732380D01*
X137215238Y-81208571D02*
X137262857Y-81113333D01*
X137358095Y-81065714D01*
X137500952Y-81065714D01*
X137596190Y-81113333D01*
X137643809Y-81208571D01*
X137643809Y-81732380D01*
X138120000Y-81065714D02*
X138120000Y-82065714D01*
X138120000Y-81113333D02*
X138215238Y-81065714D01*
X138405714Y-81065714D01*
X138500952Y-81113333D01*
X138548571Y-81160952D01*
X138596190Y-81256190D01*
X138596190Y-81541904D01*
X138548571Y-81637142D01*
X138500952Y-81684761D01*
X138405714Y-81732380D01*
X138215238Y-81732380D01*
X138120000Y-81684761D01*
X139405714Y-81684761D02*
X139310476Y-81732380D01*
X139120000Y-81732380D01*
X139024761Y-81684761D01*
X138977142Y-81589523D01*
X138977142Y-81208571D01*
X139024761Y-81113333D01*
X139120000Y-81065714D01*
X139310476Y-81065714D01*
X139405714Y-81113333D01*
X139453333Y-81208571D01*
X139453333Y-81303809D01*
X138977142Y-81399047D01*
X139881904Y-81732380D02*
X139881904Y-81065714D01*
X139881904Y-81256190D02*
X139929523Y-81160952D01*
X139977142Y-81113333D01*
X140072380Y-81065714D01*
X140167619Y-81065714D01*
G04 #@! TO.C,Q1*
X84359761Y-23407619D02*
X84264523Y-23360000D01*
X84169285Y-23264761D01*
X84026428Y-23121904D01*
X83931190Y-23074285D01*
X83835952Y-23074285D01*
X83883571Y-23312380D02*
X83788333Y-23264761D01*
X83693095Y-23169523D01*
X83645476Y-22979047D01*
X83645476Y-22645714D01*
X83693095Y-22455238D01*
X83788333Y-22360000D01*
X83883571Y-22312380D01*
X84074047Y-22312380D01*
X84169285Y-22360000D01*
X84264523Y-22455238D01*
X84312142Y-22645714D01*
X84312142Y-22979047D01*
X84264523Y-23169523D01*
X84169285Y-23264761D01*
X84074047Y-23312380D01*
X83883571Y-23312380D01*
X85264523Y-23312380D02*
X84693095Y-23312380D01*
X84978809Y-23312380D02*
X84978809Y-22312380D01*
X84883571Y-22455238D01*
X84788333Y-22550476D01*
X84693095Y-22598095D01*
G04 #@! TO.C,H1*
X81153095Y-25852380D02*
X81153095Y-24852380D01*
X81153095Y-25328571D02*
X81724523Y-25328571D01*
X81724523Y-25852380D02*
X81724523Y-24852380D01*
X82724523Y-25852380D02*
X82153095Y-25852380D01*
X82438809Y-25852380D02*
X82438809Y-24852380D01*
X82343571Y-24995238D01*
X82248333Y-25090476D01*
X82153095Y-25138095D01*
G04 #@! TO.C,H2*
X147193095Y-79827380D02*
X147193095Y-78827380D01*
X147193095Y-79303571D02*
X147764523Y-79303571D01*
X147764523Y-79827380D02*
X147764523Y-78827380D01*
X148193095Y-78922619D02*
X148240714Y-78875000D01*
X148335952Y-78827380D01*
X148574047Y-78827380D01*
X148669285Y-78875000D01*
X148716904Y-78922619D01*
X148764523Y-79017857D01*
X148764523Y-79113095D01*
X148716904Y-79255952D01*
X148145476Y-79827380D01*
X148764523Y-79827380D01*
G04 #@! TO.C,H3*
X147193095Y-25852380D02*
X147193095Y-24852380D01*
X147193095Y-25328571D02*
X147764523Y-25328571D01*
X147764523Y-25852380D02*
X147764523Y-24852380D01*
X148145476Y-24852380D02*
X148764523Y-24852380D01*
X148431190Y-25233333D01*
X148574047Y-25233333D01*
X148669285Y-25280952D01*
X148716904Y-25328571D01*
X148764523Y-25423809D01*
X148764523Y-25661904D01*
X148716904Y-25757142D01*
X148669285Y-25804761D01*
X148574047Y-25852380D01*
X148288333Y-25852380D01*
X148193095Y-25804761D01*
X148145476Y-25757142D01*
G04 #@! TO.C,H4*
X81153095Y-79827380D02*
X81153095Y-78827380D01*
X81153095Y-79303571D02*
X81724523Y-79303571D01*
X81724523Y-79827380D02*
X81724523Y-78827380D01*
X82629285Y-79160714D02*
X82629285Y-79827380D01*
X82391190Y-78779761D02*
X82153095Y-79494047D01*
X82772142Y-79494047D01*
G04 #@! TO.C,R1*
X112863333Y-60777380D02*
X112530000Y-60301190D01*
X112291904Y-60777380D02*
X112291904Y-59777380D01*
X112672857Y-59777380D01*
X112768095Y-59825000D01*
X112815714Y-59872619D01*
X112863333Y-59967857D01*
X112863333Y-60110714D01*
X112815714Y-60205952D01*
X112768095Y-60253571D01*
X112672857Y-60301190D01*
X112291904Y-60301190D01*
X113815714Y-60777380D02*
X113244285Y-60777380D01*
X113530000Y-60777380D02*
X113530000Y-59777380D01*
X113434761Y-59920238D01*
X113339523Y-60015476D01*
X113244285Y-60063095D01*
G04 #@! TO.C,R2*
X116673333Y-60777380D02*
X116340000Y-60301190D01*
X116101904Y-60777380D02*
X116101904Y-59777380D01*
X116482857Y-59777380D01*
X116578095Y-59825000D01*
X116625714Y-59872619D01*
X116673333Y-59967857D01*
X116673333Y-60110714D01*
X116625714Y-60205952D01*
X116578095Y-60253571D01*
X116482857Y-60301190D01*
X116101904Y-60301190D01*
X117054285Y-59872619D02*
X117101904Y-59825000D01*
X117197142Y-59777380D01*
X117435238Y-59777380D01*
X117530476Y-59825000D01*
X117578095Y-59872619D01*
X117625714Y-59967857D01*
X117625714Y-60063095D01*
X117578095Y-60205952D01*
X117006666Y-60777380D01*
X117625714Y-60777380D01*
G04 #@! TO.C,R3*
X102703333Y-35377380D02*
X102370000Y-34901190D01*
X102131904Y-35377380D02*
X102131904Y-34377380D01*
X102512857Y-34377380D01*
X102608095Y-34425000D01*
X102655714Y-34472619D01*
X102703333Y-34567857D01*
X102703333Y-34710714D01*
X102655714Y-34805952D01*
X102608095Y-34853571D01*
X102512857Y-34901190D01*
X102131904Y-34901190D01*
X103036666Y-34377380D02*
X103655714Y-34377380D01*
X103322380Y-34758333D01*
X103465238Y-34758333D01*
X103560476Y-34805952D01*
X103608095Y-34853571D01*
X103655714Y-34948809D01*
X103655714Y-35186904D01*
X103608095Y-35282142D01*
X103560476Y-35329761D01*
X103465238Y-35377380D01*
X103179523Y-35377380D01*
X103084285Y-35329761D01*
X103036666Y-35282142D01*
G04 #@! TO.C,R4*
X85558333Y-70937380D02*
X85225000Y-70461190D01*
X84986904Y-70937380D02*
X84986904Y-69937380D01*
X85367857Y-69937380D01*
X85463095Y-69985000D01*
X85510714Y-70032619D01*
X85558333Y-70127857D01*
X85558333Y-70270714D01*
X85510714Y-70365952D01*
X85463095Y-70413571D01*
X85367857Y-70461190D01*
X84986904Y-70461190D01*
X86415476Y-70270714D02*
X86415476Y-70937380D01*
X86177380Y-69889761D02*
X85939285Y-70604047D01*
X86558333Y-70604047D01*
G04 #@! TO.C,R5*
X83653333Y-67762380D02*
X83320000Y-67286190D01*
X83081904Y-67762380D02*
X83081904Y-66762380D01*
X83462857Y-66762380D01*
X83558095Y-66810000D01*
X83605714Y-66857619D01*
X83653333Y-66952857D01*
X83653333Y-67095714D01*
X83605714Y-67190952D01*
X83558095Y-67238571D01*
X83462857Y-67286190D01*
X83081904Y-67286190D01*
X84558095Y-66762380D02*
X84081904Y-66762380D01*
X84034285Y-67238571D01*
X84081904Y-67190952D01*
X84177142Y-67143333D01*
X84415238Y-67143333D01*
X84510476Y-67190952D01*
X84558095Y-67238571D01*
X84605714Y-67333809D01*
X84605714Y-67571904D01*
X84558095Y-67667142D01*
X84510476Y-67714761D01*
X84415238Y-67762380D01*
X84177142Y-67762380D01*
X84081904Y-67714761D01*
X84034285Y-67667142D01*
G04 #@! TO.C,R6*
X83653333Y-63952380D02*
X83320000Y-63476190D01*
X83081904Y-63952380D02*
X83081904Y-62952380D01*
X83462857Y-62952380D01*
X83558095Y-63000000D01*
X83605714Y-63047619D01*
X83653333Y-63142857D01*
X83653333Y-63285714D01*
X83605714Y-63380952D01*
X83558095Y-63428571D01*
X83462857Y-63476190D01*
X83081904Y-63476190D01*
X84510476Y-62952380D02*
X84320000Y-62952380D01*
X84224761Y-63000000D01*
X84177142Y-63047619D01*
X84081904Y-63190476D01*
X84034285Y-63380952D01*
X84034285Y-63761904D01*
X84081904Y-63857142D01*
X84129523Y-63904761D01*
X84224761Y-63952380D01*
X84415238Y-63952380D01*
X84510476Y-63904761D01*
X84558095Y-63857142D01*
X84605714Y-63761904D01*
X84605714Y-63523809D01*
X84558095Y-63428571D01*
X84510476Y-63380952D01*
X84415238Y-63333333D01*
X84224761Y-63333333D01*
X84129523Y-63380952D01*
X84081904Y-63428571D01*
X84034285Y-63523809D01*
G04 #@! TO.C,R7*
X85558333Y-35377380D02*
X85225000Y-34901190D01*
X84986904Y-35377380D02*
X84986904Y-34377380D01*
X85367857Y-34377380D01*
X85463095Y-34425000D01*
X85510714Y-34472619D01*
X85558333Y-34567857D01*
X85558333Y-34710714D01*
X85510714Y-34805952D01*
X85463095Y-34853571D01*
X85367857Y-34901190D01*
X84986904Y-34901190D01*
X85891666Y-34377380D02*
X86558333Y-34377380D01*
X86129761Y-35377380D01*
G04 #@! TO.C,C1*
X100798333Y-60047142D02*
X100750714Y-60094761D01*
X100607857Y-60142380D01*
X100512619Y-60142380D01*
X100369761Y-60094761D01*
X100274523Y-59999523D01*
X100226904Y-59904285D01*
X100179285Y-59713809D01*
X100179285Y-59570952D01*
X100226904Y-59380476D01*
X100274523Y-59285238D01*
X100369761Y-59190000D01*
X100512619Y-59142380D01*
X100607857Y-59142380D01*
X100750714Y-59190000D01*
X100798333Y-59237619D01*
X101750714Y-60142380D02*
X101179285Y-60142380D01*
X101465000Y-60142380D02*
X101465000Y-59142380D01*
X101369761Y-59285238D01*
X101274523Y-59380476D01*
X101179285Y-59428095D01*
G04 #@! TO.C,J6*
X110156666Y-24852380D02*
X110156666Y-25566666D01*
X110109047Y-25709523D01*
X110013809Y-25804761D01*
X109870952Y-25852380D01*
X109775714Y-25852380D01*
X111061428Y-24852380D02*
X110870952Y-24852380D01*
X110775714Y-24900000D01*
X110728095Y-24947619D01*
X110632857Y-25090476D01*
X110585238Y-25280952D01*
X110585238Y-25661904D01*
X110632857Y-25757142D01*
X110680476Y-25804761D01*
X110775714Y-25852380D01*
X110966190Y-25852380D01*
X111061428Y-25804761D01*
X111109047Y-25757142D01*
X111156666Y-25661904D01*
X111156666Y-25423809D01*
X111109047Y-25328571D01*
X111061428Y-25280952D01*
X110966190Y-25233333D01*
X110775714Y-25233333D01*
X110680476Y-25280952D01*
X110632857Y-25328571D01*
X110585238Y-25423809D01*
X112109523Y-23312380D02*
X112109523Y-22312380D01*
X112109523Y-22788571D02*
X112680952Y-22788571D01*
X112680952Y-23312380D02*
X112680952Y-22312380D01*
X113538095Y-23264761D02*
X113442857Y-23312380D01*
X113252380Y-23312380D01*
X113157142Y-23264761D01*
X113109523Y-23169523D01*
X113109523Y-22788571D01*
X113157142Y-22693333D01*
X113252380Y-22645714D01*
X113442857Y-22645714D01*
X113538095Y-22693333D01*
X113585714Y-22788571D01*
X113585714Y-22883809D01*
X113109523Y-22979047D01*
X114442857Y-23312380D02*
X114442857Y-22788571D01*
X114395238Y-22693333D01*
X114300000Y-22645714D01*
X114109523Y-22645714D01*
X114014285Y-22693333D01*
X114442857Y-23264761D02*
X114347619Y-23312380D01*
X114109523Y-23312380D01*
X114014285Y-23264761D01*
X113966666Y-23169523D01*
X113966666Y-23074285D01*
X114014285Y-22979047D01*
X114109523Y-22931428D01*
X114347619Y-22931428D01*
X114442857Y-22883809D01*
X114776190Y-22645714D02*
X115157142Y-22645714D01*
X114919047Y-22312380D02*
X114919047Y-23169523D01*
X114966666Y-23264761D01*
X115061904Y-23312380D01*
X115157142Y-23312380D01*
X115871428Y-23264761D02*
X115776190Y-23312380D01*
X115585714Y-23312380D01*
X115490476Y-23264761D01*
X115442857Y-23169523D01*
X115442857Y-22788571D01*
X115490476Y-22693333D01*
X115585714Y-22645714D01*
X115776190Y-22645714D01*
X115871428Y-22693333D01*
X115919047Y-22788571D01*
X115919047Y-22883809D01*
X115442857Y-22979047D01*
X116347619Y-23312380D02*
X116347619Y-22645714D01*
X116347619Y-22836190D02*
X116395238Y-22740952D01*
X116442857Y-22693333D01*
X116538095Y-22645714D01*
X116633333Y-22645714D01*
G04 #@! TO.C,J2*
X78406666Y-39032380D02*
X78406666Y-39746666D01*
X78359047Y-39889523D01*
X78263809Y-39984761D01*
X78120952Y-40032380D01*
X78025714Y-40032380D01*
X78835238Y-39127619D02*
X78882857Y-39080000D01*
X78978095Y-39032380D01*
X79216190Y-39032380D01*
X79311428Y-39080000D01*
X79359047Y-39127619D01*
X79406666Y-39222857D01*
X79406666Y-39318095D01*
X79359047Y-39460952D01*
X78787619Y-40032380D01*
X79406666Y-40032380D01*
X76652380Y-48577142D02*
X76652380Y-49148571D01*
X76652380Y-48862857D02*
X75652380Y-48862857D01*
X75795238Y-48958095D01*
X75890476Y-49053333D01*
X75938095Y-49148571D01*
X75652380Y-47720000D02*
X75652380Y-47910476D01*
X75700000Y-48005714D01*
X75747619Y-48053333D01*
X75890476Y-48148571D01*
X76080952Y-48196190D01*
X76461904Y-48196190D01*
X76557142Y-48148571D01*
X76604761Y-48100952D01*
X76652380Y-48005714D01*
X76652380Y-47815238D01*
X76604761Y-47720000D01*
X76557142Y-47672380D01*
X76461904Y-47624761D01*
X76223809Y-47624761D01*
X76128571Y-47672380D01*
X76080952Y-47720000D01*
X76033333Y-47815238D01*
X76033333Y-48005714D01*
X76080952Y-48100952D01*
X76128571Y-48148571D01*
X76223809Y-48196190D01*
X76652380Y-47291428D02*
X75985714Y-46767619D01*
X75985714Y-47291428D02*
X76652380Y-46767619D01*
X75747619Y-46434285D02*
X75700000Y-46386666D01*
X75652380Y-46291428D01*
X75652380Y-46053333D01*
X75700000Y-45958095D01*
X75747619Y-45910476D01*
X75842857Y-45862857D01*
X75938095Y-45862857D01*
X76080952Y-45910476D01*
X76652380Y-46481904D01*
X76652380Y-45862857D01*
X76652380Y-44196190D02*
X76652380Y-44672380D01*
X75652380Y-44672380D01*
X76557142Y-43291428D02*
X76604761Y-43339047D01*
X76652380Y-43481904D01*
X76652380Y-43577142D01*
X76604761Y-43720000D01*
X76509523Y-43815238D01*
X76414285Y-43862857D01*
X76223809Y-43910476D01*
X76080952Y-43910476D01*
X75890476Y-43862857D01*
X75795238Y-43815238D01*
X75700000Y-43720000D01*
X75652380Y-43577142D01*
X75652380Y-43481904D01*
X75700000Y-43339047D01*
X75747619Y-43291428D01*
X76652380Y-42862857D02*
X75652380Y-42862857D01*
X75652380Y-42624761D01*
X75700000Y-42481904D01*
X75795238Y-42386666D01*
X75890476Y-42339047D01*
X76080952Y-42291428D01*
X76223809Y-42291428D01*
X76414285Y-42339047D01*
X76509523Y-42386666D01*
X76604761Y-42481904D01*
X76652380Y-42624761D01*
X76652380Y-42862857D01*
G04 #@! TO.C,J4*
X78406666Y-66972380D02*
X78406666Y-67686666D01*
X78359047Y-67829523D01*
X78263809Y-67924761D01*
X78120952Y-67972380D01*
X78025714Y-67972380D01*
X79311428Y-67305714D02*
X79311428Y-67972380D01*
X79073333Y-66924761D02*
X78835238Y-67639047D01*
X79454285Y-67639047D01*
X76604761Y-73453333D02*
X76652380Y-73310476D01*
X76652380Y-73072380D01*
X76604761Y-72977142D01*
X76557142Y-72929523D01*
X76461904Y-72881904D01*
X76366666Y-72881904D01*
X76271428Y-72929523D01*
X76223809Y-72977142D01*
X76176190Y-73072380D01*
X76128571Y-73262857D01*
X76080952Y-73358095D01*
X76033333Y-73405714D01*
X75938095Y-73453333D01*
X75842857Y-73453333D01*
X75747619Y-73405714D01*
X75700000Y-73358095D01*
X75652380Y-73262857D01*
X75652380Y-73024761D01*
X75700000Y-72881904D01*
X76604761Y-72072380D02*
X76652380Y-72167619D01*
X76652380Y-72358095D01*
X76604761Y-72453333D01*
X76509523Y-72500952D01*
X76128571Y-72500952D01*
X76033333Y-72453333D01*
X75985714Y-72358095D01*
X75985714Y-72167619D01*
X76033333Y-72072380D01*
X76128571Y-72024761D01*
X76223809Y-72024761D01*
X76319047Y-72500952D01*
X75985714Y-71596190D02*
X76652380Y-71596190D01*
X76080952Y-71596190D02*
X76033333Y-71548571D01*
X75985714Y-71453333D01*
X75985714Y-71310476D01*
X76033333Y-71215238D01*
X76128571Y-71167619D01*
X76652380Y-71167619D01*
X76604761Y-70739047D02*
X76652380Y-70643809D01*
X76652380Y-70453333D01*
X76604761Y-70358095D01*
X76509523Y-70310476D01*
X76461904Y-70310476D01*
X76366666Y-70358095D01*
X76319047Y-70453333D01*
X76319047Y-70596190D01*
X76271428Y-70691428D01*
X76176190Y-70739047D01*
X76128571Y-70739047D01*
X76033333Y-70691428D01*
X75985714Y-70596190D01*
X75985714Y-70453333D01*
X76033333Y-70358095D01*
X76652380Y-69739047D02*
X76604761Y-69834285D01*
X76557142Y-69881904D01*
X76461904Y-69929523D01*
X76176190Y-69929523D01*
X76080952Y-69881904D01*
X76033333Y-69834285D01*
X75985714Y-69739047D01*
X75985714Y-69596190D01*
X76033333Y-69500952D01*
X76080952Y-69453333D01*
X76176190Y-69405714D01*
X76461904Y-69405714D01*
X76557142Y-69453333D01*
X76604761Y-69500952D01*
X76652380Y-69596190D01*
X76652380Y-69739047D01*
X76652380Y-68977142D02*
X75985714Y-68977142D01*
X76176190Y-68977142D02*
X76080952Y-68929523D01*
X76033333Y-68881904D01*
X75985714Y-68786666D01*
X75985714Y-68691428D01*
G04 #@! TO.C,U3*
X119888095Y-38187380D02*
X119888095Y-38996904D01*
X119935714Y-39092142D01*
X119983333Y-39139761D01*
X120078571Y-39187380D01*
X120269047Y-39187380D01*
X120364285Y-39139761D01*
X120411904Y-39092142D01*
X120459523Y-38996904D01*
X120459523Y-38187380D01*
X120840476Y-38187380D02*
X121459523Y-38187380D01*
X121126190Y-38568333D01*
X121269047Y-38568333D01*
X121364285Y-38615952D01*
X121411904Y-38663571D01*
X121459523Y-38758809D01*
X121459523Y-38996904D01*
X121411904Y-39092142D01*
X121364285Y-39139761D01*
X121269047Y-39187380D01*
X120983333Y-39187380D01*
X120888095Y-39139761D01*
X120840476Y-39092142D01*
G04 #@! TD*
M02*
