G04 #@! TF.GenerationSoftware,KiCad,Pcbnew,(5.0.2-5)-5*
G04 #@! TF.CreationDate,2022-02-20T19:00:33+00:00*
G04 #@! TF.ProjectId,soldering_iron,736f6c64-6572-4696-9e67-5f69726f6e2e,rev?*
G04 #@! TF.SameCoordinates,Original*
G04 #@! TF.FileFunction,Copper,L2,Bot*
G04 #@! TF.FilePolarity,Positive*
%FSLAX46Y46*%
G04 Gerber Fmt 4.6, Leading zero omitted, Abs format (unit mm)*
G04 Created by KiCad (PCBNEW (5.0.2-5)-5) date Sunday, 20 February 2022 at 19:00:33*
%MOMM*%
%LPD*%
G01*
G04 APERTURE LIST*
G04 #@! TA.AperFunction,ComponentPad*
%ADD10C,1.524000*%
G04 #@! TD*
G04 #@! TA.AperFunction,ComponentPad*
%ADD11O,1.700000X1.700000*%
G04 #@! TD*
G04 #@! TA.AperFunction,ComponentPad*
%ADD12R,1.700000X1.700000*%
G04 #@! TD*
G04 #@! TA.AperFunction,ComponentPad*
%ADD13O,2.400000X1.600000*%
G04 #@! TD*
G04 #@! TA.AperFunction,ComponentPad*
%ADD14R,2.400000X1.600000*%
G04 #@! TD*
G04 #@! TA.AperFunction,ComponentPad*
%ADD15O,2.200000X2.200000*%
G04 #@! TD*
G04 #@! TA.AperFunction,ComponentPad*
%ADD16R,2.200000X2.200000*%
G04 #@! TD*
G04 #@! TA.AperFunction,ComponentPad*
%ADD17C,1.800000*%
G04 #@! TD*
G04 #@! TA.AperFunction,ComponentPad*
%ADD18R,1.800000X1.800000*%
G04 #@! TD*
G04 #@! TA.AperFunction,ComponentPad*
%ADD19O,2.000000X1.905000*%
G04 #@! TD*
G04 #@! TA.AperFunction,ComponentPad*
%ADD20R,2.000000X1.905000*%
G04 #@! TD*
G04 #@! TA.AperFunction,ComponentPad*
%ADD21O,1.600000X1.600000*%
G04 #@! TD*
G04 #@! TA.AperFunction,ComponentPad*
%ADD22C,1.600000*%
G04 #@! TD*
G04 #@! TA.AperFunction,ComponentPad*
%ADD23C,1.879600*%
G04 #@! TD*
G04 #@! TA.AperFunction,Conductor*
%ADD24C,1.000000*%
G04 #@! TD*
G04 #@! TA.AperFunction,Conductor*
%ADD25C,2.000000*%
G04 #@! TD*
G04 #@! TA.AperFunction,Conductor*
%ADD26C,0.254000*%
G04 #@! TD*
G04 APERTURE END LIST*
D10*
G04 #@! TO.P,U1,4*
G04 #@! TO.N,+24v*
X143351250Y-32861250D03*
G04 #@! TO.P,U1,1*
G04 #@! TO.N,GND*
X125888750Y-32861250D03*
G04 #@! TO.P,U1,3*
G04 #@! TO.N,Net-(J5-Pad2)*
X143351250Y-72548750D03*
G04 #@! TO.P,U1,2*
G04 #@! TO.N,GND*
X125888750Y-72548750D03*
G04 #@! TD*
D11*
G04 #@! TO.P,J1,2*
G04 #@! TO.N,+24v*
X133985000Y-25400000D03*
D12*
G04 #@! TO.P,J1,1*
G04 #@! TO.N,GND*
X131445000Y-25400000D03*
G04 #@! TD*
D11*
G04 #@! TO.P,J3,3*
G04 #@! TO.N,VCC*
X78740000Y-60960000D03*
G04 #@! TO.P,J3,2*
G04 #@! TO.N,SETPOINT*
X78740000Y-58420000D03*
D12*
G04 #@! TO.P,J3,1*
G04 #@! TO.N,GND*
X78740000Y-55880000D03*
G04 #@! TD*
D13*
G04 #@! TO.P,U2,8*
G04 #@! TO.N,VCC*
X107950000Y-64770000D03*
G04 #@! TO.P,U2,4*
G04 #@! TO.N,GND*
X100330000Y-72390000D03*
G04 #@! TO.P,U2,7*
G04 #@! TO.N,Net-(U2-Pad6)*
X107950000Y-67310000D03*
G04 #@! TO.P,U2,3*
G04 #@! TO.N,PTC*
X100330000Y-69850000D03*
G04 #@! TO.P,U2,6*
G04 #@! TO.N,Net-(U2-Pad6)*
X107950000Y-69850000D03*
G04 #@! TO.P,U2,2*
G04 #@! TO.N,Net-(R5-Pad1)*
X100330000Y-67310000D03*
G04 #@! TO.P,U2,5*
G04 #@! TO.N,Net-(R1-Pad2)*
X107950000Y-72390000D03*
D14*
G04 #@! TO.P,U2,1*
G04 #@! TO.N,PTC_SENSOR*
X100330000Y-64770000D03*
G04 #@! TD*
D15*
G04 #@! TO.P,D1,2*
G04 #@! TO.N,+24v*
X118110000Y-29845000D03*
D16*
G04 #@! TO.P,D1,1*
G04 #@! TO.N,Net-(D1-Pad1)*
X110490000Y-29845000D03*
G04 #@! TD*
D17*
G04 #@! TO.P,D2,2*
G04 #@! TO.N,Net-(D2-Pad2)*
X78740000Y-34925000D03*
D18*
G04 #@! TO.P,D2,1*
G04 #@! TO.N,GND*
X78740000Y-32385000D03*
G04 #@! TD*
D11*
G04 #@! TO.P,J5,2*
G04 #@! TO.N,Net-(J5-Pad2)*
X135890000Y-78740000D03*
D12*
G04 #@! TO.P,J5,1*
G04 #@! TO.N,VCC*
X133350000Y-78740000D03*
G04 #@! TD*
D19*
G04 #@! TO.P,Q1,3*
G04 #@! TO.N,GND*
X105410000Y-24765000D03*
G04 #@! TO.P,Q1,2*
G04 #@! TO.N,Net-(D1-Pad1)*
X105410000Y-27305000D03*
D20*
G04 #@! TO.P,Q1,1*
G04 #@! TO.N,HEAT*
X105410000Y-29845000D03*
G04 #@! TD*
D21*
G04 #@! TO.P,R1,2*
G04 #@! TO.N,Net-(R1-Pad2)*
X113030000Y-72390000D03*
D22*
G04 #@! TO.P,R1,1*
G04 #@! TO.N,VCC*
X113030000Y-62230000D03*
G04 #@! TD*
D21*
G04 #@! TO.P,R2,2*
G04 #@! TO.N,GND*
X116840000Y-62230000D03*
D22*
G04 #@! TO.P,R2,1*
G04 #@! TO.N,Net-(R1-Pad2)*
X116840000Y-72390000D03*
G04 #@! TD*
D21*
G04 #@! TO.P,R3,2*
G04 #@! TO.N,GND*
X115570000Y-34925000D03*
D22*
G04 #@! TO.P,R3,1*
G04 #@! TO.N,HEAT*
X105410000Y-34925000D03*
G04 #@! TD*
D21*
G04 #@! TO.P,R4,2*
G04 #@! TO.N,PTC*
X85725000Y-72390000D03*
D22*
G04 #@! TO.P,R4,1*
G04 #@! TO.N,VCC*
X95885000Y-72390000D03*
G04 #@! TD*
D21*
G04 #@! TO.P,R5,2*
G04 #@! TO.N,GND*
X85725000Y-67310000D03*
D22*
G04 #@! TO.P,R5,1*
G04 #@! TO.N,Net-(R5-Pad1)*
X95885000Y-67310000D03*
G04 #@! TD*
D21*
G04 #@! TO.P,R6,2*
G04 #@! TO.N,Net-(R5-Pad1)*
X95885000Y-63500000D03*
D22*
G04 #@! TO.P,R6,1*
G04 #@! TO.N,PTC_SENSOR*
X85725000Y-63500000D03*
G04 #@! TD*
D21*
G04 #@! TO.P,R7,2*
G04 #@! TO.N,Net-(R7-Pad2)*
X97790000Y-34925000D03*
D22*
G04 #@! TO.P,R7,1*
G04 #@! TO.N,Net-(D2-Pad2)*
X87630000Y-34925000D03*
G04 #@! TD*
G04 #@! TO.P,C1,2*
G04 #@! TO.N,GND*
X102950000Y-59690000D03*
G04 #@! TO.P,C1,1*
G04 #@! TO.N,VCC*
X107950000Y-59690000D03*
G04 #@! TD*
D11*
G04 #@! TO.P,J6,2*
G04 #@! TO.N,+24v*
X115570000Y-25400000D03*
D12*
G04 #@! TO.P,J6,1*
G04 #@! TO.N,Net-(D1-Pad1)*
X113030000Y-25400000D03*
G04 #@! TD*
D11*
G04 #@! TO.P,J2,4*
G04 #@! TO.N,VCC*
X78740000Y-49530000D03*
G04 #@! TO.P,J2,3*
G04 #@! TO.N,SDA*
X78740000Y-46990000D03*
G04 #@! TO.P,J2,2*
G04 #@! TO.N,SCL*
X78740000Y-44450000D03*
D12*
G04 #@! TO.P,J2,1*
G04 #@! TO.N,GND*
X78740000Y-41910000D03*
G04 #@! TD*
D11*
G04 #@! TO.P,J4,2*
G04 #@! TO.N,PTC*
X78740000Y-72390000D03*
D12*
G04 #@! TO.P,J4,1*
G04 #@! TO.N,GND*
X78740000Y-69850000D03*
G04 #@! TD*
D23*
G04 #@! TO.P,U3,JP7_12*
G04 #@! TO.N,N/C*
X115570000Y-39370000D03*
G04 #@! TO.P,U3,JP7_11*
X113030000Y-39370000D03*
G04 #@! TO.P,U3,JP7_10*
X110490000Y-39370000D03*
G04 #@! TO.P,U3,JP7_9*
G04 #@! TO.N,GND*
X107950000Y-39370000D03*
G04 #@! TO.P,U3,JP7_8*
G04 #@! TO.N,HEAT*
X105410000Y-39370000D03*
G04 #@! TO.P,U3,JP7_7*
G04 #@! TO.N,N/C*
X102870000Y-39370000D03*
G04 #@! TO.P,U3,JP7_6*
X100330000Y-39370000D03*
G04 #@! TO.P,U3,JP7_5*
G04 #@! TO.N,Net-(R7-Pad2)*
X97790000Y-39370000D03*
G04 #@! TO.P,U3,JP7_4*
G04 #@! TO.N,N/C*
X95250000Y-39370000D03*
G04 #@! TO.P,U3,JP7_3*
X92710000Y-39370000D03*
G04 #@! TO.P,U3,JP7_2*
X90170000Y-39370000D03*
G04 #@! TO.P,U3,JP7_1*
X87630000Y-39370000D03*
G04 #@! TO.P,U3,JP6_12*
X87630000Y-54610000D03*
G04 #@! TO.P,U3,JP6_11*
X90170000Y-54610000D03*
G04 #@! TO.P,U3,JP6_10*
X92710000Y-54610000D03*
G04 #@! TO.P,U3,JP6_9*
X95250000Y-54610000D03*
G04 #@! TO.P,U3,JP6_8*
G04 #@! TO.N,SETPOINT*
X97790000Y-54610000D03*
G04 #@! TO.P,U3,JP6_7*
G04 #@! TO.N,PTC_SENSOR*
X100330000Y-54610000D03*
G04 #@! TO.P,U3,JP6_6*
G04 #@! TO.N,N/C*
X102870000Y-54610000D03*
G04 #@! TO.P,U3,JP6_5*
X105410000Y-54610000D03*
G04 #@! TO.P,U3,JP6_4*
G04 #@! TO.N,VCC*
X107950000Y-54610000D03*
G04 #@! TO.P,U3,JP6_3*
G04 #@! TO.N,N/C*
X110490000Y-54610000D03*
G04 #@! TO.P,U3,JP6_2*
G04 #@! TO.N,GND*
X113030000Y-54610000D03*
G04 #@! TO.P,U3,JP6_1*
G04 #@! TO.N,N/C*
X115570000Y-54610000D03*
G04 #@! TO.P,U3,JP3_1*
X93853000Y-51689000D03*
G04 #@! TO.P,U3,JP3_2*
X96393000Y-51689000D03*
G04 #@! TO.P,U3,JP2_2*
G04 #@! TO.N,SCL*
X106807000Y-51689000D03*
G04 #@! TO.P,U3,JP2_1*
G04 #@! TO.N,SDA*
X104267000Y-51689000D03*
G04 #@! TO.P,U3,JP1_6*
G04 #@! TO.N,GND*
X118110000Y-40640000D03*
G04 #@! TO.P,U3,JP1_5*
X118110000Y-43180000D03*
G04 #@! TO.P,U3,JP1_4*
G04 #@! TO.N,VCC*
X118110000Y-45720000D03*
G04 #@! TO.P,U3,JP1_3*
G04 #@! TO.N,N/C*
X118110000Y-48260000D03*
G04 #@! TO.P,U3,JP1_2*
X118110000Y-50800000D03*
G04 #@! TO.P,U3,JP1_1*
X118110000Y-53340000D03*
G04 #@! TD*
D24*
G04 #@! TO.N,GND*
X111760000Y-41910000D02*
X113030000Y-43180000D01*
X107950000Y-39370000D02*
X107950000Y-41910000D01*
X79320000Y-41910000D02*
X78740000Y-41910000D01*
X111760000Y-41910000D02*
X79320000Y-41910000D01*
X118110000Y-43180000D02*
X118110000Y-40640000D01*
X113030000Y-54610000D02*
X113030000Y-43180000D01*
X113030000Y-43180000D02*
X118110000Y-43180000D01*
X78740000Y-41910000D02*
X76200000Y-41910000D01*
X78740000Y-69850000D02*
X76200000Y-69850000D01*
X76200000Y-32385000D02*
X78740000Y-32385000D01*
X76200000Y-41910000D02*
X76200000Y-32385000D01*
X118110000Y-40640000D02*
X118110000Y-34925000D01*
X78740000Y-55880000D02*
X76200000Y-55880000D01*
X102235000Y-72390000D02*
X104140000Y-72390000D01*
X100203000Y-72390000D02*
X102235000Y-72390000D01*
X117475000Y-34925000D02*
X125888750Y-34925000D01*
X125888750Y-34925000D02*
X125888750Y-32861250D01*
X125888750Y-72548750D02*
X125888750Y-34925000D01*
X115570000Y-34925000D02*
X117475000Y-34925000D01*
X117475000Y-34925000D02*
X118110000Y-34925000D01*
X125888750Y-32861250D02*
X125888750Y-29106250D01*
X109855000Y-22860000D02*
X107950000Y-24765000D01*
X123190000Y-22860000D02*
X109855000Y-22860000D01*
X125888750Y-25558750D02*
X123190000Y-22860000D01*
X107950000Y-24765000D02*
X105410000Y-24765000D01*
X125888750Y-29106250D02*
X125888750Y-26670000D01*
X125888750Y-26670000D02*
X125888750Y-26035000D01*
X125888750Y-26670000D02*
X125888750Y-25558750D01*
X129595000Y-25400000D02*
X131445000Y-25400000D01*
X125730000Y-25400000D02*
X129595000Y-25400000D01*
X76200000Y-53340000D02*
X76200000Y-41910000D01*
X76200000Y-69850000D02*
X76200000Y-53340000D01*
X113030000Y-57150000D02*
X113030000Y-54610000D01*
X105490000Y-57150000D02*
X113030000Y-57150000D01*
X102950000Y-59690000D02*
X105490000Y-57150000D01*
X102950000Y-62310000D02*
X102950000Y-59690000D01*
X104140000Y-63500000D02*
X102950000Y-62310000D01*
X104140000Y-72390000D02*
X104140000Y-63500000D01*
X113030000Y-57150000D02*
X114300000Y-57150000D01*
X116840000Y-59690000D02*
X116840000Y-62230000D01*
X114300000Y-57150000D02*
X116840000Y-59690000D01*
X91440000Y-67310000D02*
X85725000Y-67310000D01*
X91440000Y-59690000D02*
X91440000Y-67310000D01*
X102950000Y-59690000D02*
X91440000Y-59690000D01*
D25*
G04 #@! TO.N,VCC*
X80645000Y-49530000D02*
X78740000Y-49530000D01*
X83185000Y-49530000D02*
X80645000Y-49530000D01*
X83185000Y-62230000D02*
X83185000Y-49530000D01*
X78740000Y-60960000D02*
X83185000Y-60960000D01*
X83185000Y-63500000D02*
X83185000Y-62230000D01*
X83185000Y-78740000D02*
X83185000Y-63500000D01*
X95885000Y-72390000D02*
X95885000Y-78740000D01*
X95885000Y-78740000D02*
X83185000Y-78740000D01*
X133350000Y-78740000D02*
X95885000Y-78740000D01*
G04 #@! TO.N,Net-(J5-Pad2)*
X137160000Y-78740000D02*
X143351250Y-72548750D01*
X135890000Y-78740000D02*
X137160000Y-78740000D01*
G04 #@! TD*
D26*
G04 #@! TO.N,GND*
G36*
X148577301Y-82537300D02*
X75577700Y-82537300D01*
X75577700Y-78930431D01*
X76505000Y-78930431D01*
X76505000Y-79819569D01*
X76845259Y-80641026D01*
X77473974Y-81269741D01*
X78295431Y-81610000D01*
X79184569Y-81610000D01*
X80006026Y-81269741D01*
X80634741Y-80641026D01*
X80975000Y-79819569D01*
X80975000Y-78930431D01*
X80634741Y-78108974D01*
X80006026Y-77480259D01*
X79184569Y-77140000D01*
X78295431Y-77140000D01*
X77473974Y-77480259D01*
X76845259Y-78108974D01*
X76505000Y-78930431D01*
X75577700Y-78930431D01*
X75577700Y-72390000D01*
X77225908Y-72390000D01*
X77341161Y-72969418D01*
X77669375Y-73460625D01*
X78160582Y-73788839D01*
X78593744Y-73875000D01*
X78886256Y-73875000D01*
X79319418Y-73788839D01*
X79810625Y-73460625D01*
X80138839Y-72969418D01*
X80254092Y-72390000D01*
X80138839Y-71810582D01*
X79810625Y-71319375D01*
X79788967Y-71304904D01*
X79949698Y-71238327D01*
X80128327Y-71059699D01*
X80225000Y-70826310D01*
X80225000Y-70135750D01*
X80066250Y-69977000D01*
X78867000Y-69977000D01*
X78867000Y-69997000D01*
X78613000Y-69997000D01*
X78613000Y-69977000D01*
X77413750Y-69977000D01*
X77255000Y-70135750D01*
X77255000Y-70826310D01*
X77351673Y-71059699D01*
X77530302Y-71238327D01*
X77691033Y-71304904D01*
X77669375Y-71319375D01*
X77341161Y-71810582D01*
X77225908Y-72390000D01*
X75577700Y-72390000D01*
X75577700Y-68873690D01*
X77255000Y-68873690D01*
X77255000Y-69564250D01*
X77413750Y-69723000D01*
X78613000Y-69723000D01*
X78613000Y-68523750D01*
X78867000Y-68523750D01*
X78867000Y-69723000D01*
X80066250Y-69723000D01*
X80225000Y-69564250D01*
X80225000Y-68873690D01*
X80128327Y-68640301D01*
X79949698Y-68461673D01*
X79716309Y-68365000D01*
X79025750Y-68365000D01*
X78867000Y-68523750D01*
X78613000Y-68523750D01*
X78454250Y-68365000D01*
X77763691Y-68365000D01*
X77530302Y-68461673D01*
X77351673Y-68640301D01*
X77255000Y-68873690D01*
X75577700Y-68873690D01*
X75577700Y-54903690D01*
X77255000Y-54903690D01*
X77255000Y-55594250D01*
X77413750Y-55753000D01*
X78613000Y-55753000D01*
X78613000Y-54553750D01*
X78867000Y-54553750D01*
X78867000Y-55753000D01*
X80066250Y-55753000D01*
X80225000Y-55594250D01*
X80225000Y-54903690D01*
X80128327Y-54670301D01*
X79949698Y-54491673D01*
X79716309Y-54395000D01*
X79025750Y-54395000D01*
X78867000Y-54553750D01*
X78613000Y-54553750D01*
X78454250Y-54395000D01*
X77763691Y-54395000D01*
X77530302Y-54491673D01*
X77351673Y-54670301D01*
X77255000Y-54903690D01*
X75577700Y-54903690D01*
X75577700Y-49530000D01*
X77072969Y-49530000D01*
X77199864Y-50167945D01*
X77561231Y-50708769D01*
X78102055Y-51070136D01*
X78578969Y-51165000D01*
X81550001Y-51165000D01*
X81550000Y-59325000D01*
X79921292Y-59325000D01*
X80138839Y-58999418D01*
X80254092Y-58420000D01*
X80138839Y-57840582D01*
X79810625Y-57349375D01*
X79788967Y-57334904D01*
X79949698Y-57268327D01*
X80128327Y-57089699D01*
X80225000Y-56856310D01*
X80225000Y-56165750D01*
X80066250Y-56007000D01*
X78867000Y-56007000D01*
X78867000Y-56027000D01*
X78613000Y-56027000D01*
X78613000Y-56007000D01*
X77413750Y-56007000D01*
X77255000Y-56165750D01*
X77255000Y-56856310D01*
X77351673Y-57089699D01*
X77530302Y-57268327D01*
X77691033Y-57334904D01*
X77669375Y-57349375D01*
X77341161Y-57840582D01*
X77225908Y-58420000D01*
X77341161Y-58999418D01*
X77669375Y-59490625D01*
X77832764Y-59599798D01*
X77561231Y-59781231D01*
X77199864Y-60322055D01*
X77072969Y-60960000D01*
X77199864Y-61597945D01*
X77561231Y-62138769D01*
X78102055Y-62500136D01*
X78578969Y-62595000D01*
X81550000Y-62595000D01*
X81550000Y-63661030D01*
X81550001Y-63661035D01*
X81550000Y-78578969D01*
X81517969Y-78740000D01*
X81644864Y-79377945D01*
X81939948Y-79819569D01*
X82006231Y-79918769D01*
X82547055Y-80280136D01*
X83185000Y-80407031D01*
X83346031Y-80375000D01*
X95723969Y-80375000D01*
X95885000Y-80407031D01*
X96046031Y-80375000D01*
X133511031Y-80375000D01*
X133987945Y-80280136D01*
X134051844Y-80237440D01*
X134200000Y-80237440D01*
X134447765Y-80188157D01*
X134657809Y-80047809D01*
X134733907Y-79933921D01*
X135252055Y-80280136D01*
X135728969Y-80375000D01*
X136998970Y-80375000D01*
X137160000Y-80407031D01*
X137321030Y-80375000D01*
X137321031Y-80375000D01*
X137797945Y-80280136D01*
X138338769Y-79918769D01*
X138429988Y-79782250D01*
X139281807Y-78930431D01*
X142545000Y-78930431D01*
X142545000Y-79819569D01*
X142885259Y-80641026D01*
X143513974Y-81269741D01*
X144335431Y-81610000D01*
X145224569Y-81610000D01*
X146046026Y-81269741D01*
X146674741Y-80641026D01*
X147015000Y-79819569D01*
X147015000Y-78930431D01*
X146674741Y-78108974D01*
X146046026Y-77480259D01*
X145224569Y-77140000D01*
X144335431Y-77140000D01*
X143513974Y-77480259D01*
X142885259Y-78108974D01*
X142545000Y-78930431D01*
X139281807Y-78930431D01*
X144621235Y-73591004D01*
X144891386Y-73186696D01*
X145018281Y-72548750D01*
X144891386Y-71910805D01*
X144530019Y-71369981D01*
X143989195Y-71008614D01*
X143351250Y-70881719D01*
X142713304Y-71008614D01*
X142308996Y-71278765D01*
X136482762Y-77105000D01*
X135728969Y-77105000D01*
X135252055Y-77199864D01*
X134733907Y-77546079D01*
X134657809Y-77432191D01*
X134447765Y-77291843D01*
X134200000Y-77242560D01*
X134051844Y-77242560D01*
X133987945Y-77199864D01*
X133511031Y-77105000D01*
X97520000Y-77105000D01*
X97520000Y-72739039D01*
X98538096Y-72739039D01*
X98555633Y-72821819D01*
X98825500Y-73314896D01*
X99263517Y-73667166D01*
X99803000Y-73825000D01*
X100203000Y-73825000D01*
X100203000Y-72517000D01*
X100457000Y-72517000D01*
X100457000Y-73825000D01*
X100857000Y-73825000D01*
X101396483Y-73667166D01*
X101834500Y-73314896D01*
X102104367Y-72821819D01*
X102121904Y-72739039D01*
X101999915Y-72517000D01*
X100457000Y-72517000D01*
X100203000Y-72517000D01*
X98660085Y-72517000D01*
X98538096Y-72739039D01*
X97520000Y-72739039D01*
X97520000Y-72228969D01*
X97425136Y-71752055D01*
X97063769Y-71211231D01*
X96522944Y-70849864D01*
X95885000Y-70722969D01*
X95247055Y-70849864D01*
X94706231Y-71211231D01*
X94344864Y-71752056D01*
X94250000Y-72228970D01*
X94250001Y-77105000D01*
X84820000Y-77105000D01*
X84820000Y-73511158D01*
X85165091Y-73741740D01*
X85583667Y-73825000D01*
X85866333Y-73825000D01*
X86284909Y-73741740D01*
X86759577Y-73424577D01*
X87076740Y-72949909D01*
X87188113Y-72390000D01*
X87076740Y-71830091D01*
X86759577Y-71355423D01*
X86284909Y-71038260D01*
X85866333Y-70955000D01*
X85583667Y-70955000D01*
X85165091Y-71038260D01*
X84820000Y-71268842D01*
X84820000Y-68407342D01*
X84869866Y-68462389D01*
X85375959Y-68701914D01*
X85598000Y-68580629D01*
X85598000Y-67437000D01*
X85852000Y-67437000D01*
X85852000Y-68580629D01*
X86074041Y-68701914D01*
X86580134Y-68462389D01*
X86956041Y-68047423D01*
X87116904Y-67659039D01*
X86994915Y-67437000D01*
X85852000Y-67437000D01*
X85598000Y-67437000D01*
X85578000Y-67437000D01*
X85578000Y-67183000D01*
X85598000Y-67183000D01*
X85598000Y-66039371D01*
X85852000Y-66039371D01*
X85852000Y-67183000D01*
X86994915Y-67183000D01*
X87081961Y-67024561D01*
X94450000Y-67024561D01*
X94450000Y-67595439D01*
X94668466Y-68122862D01*
X95072138Y-68526534D01*
X95599561Y-68745000D01*
X96170439Y-68745000D01*
X96697862Y-68526534D01*
X97101534Y-68122862D01*
X97320000Y-67595439D01*
X97320000Y-67310000D01*
X98466887Y-67310000D01*
X98578260Y-67869909D01*
X98895423Y-68344577D01*
X99247758Y-68580000D01*
X98895423Y-68815423D01*
X98578260Y-69290091D01*
X98466887Y-69850000D01*
X98578260Y-70409909D01*
X98895423Y-70884577D01*
X99251499Y-71122499D01*
X98825500Y-71465104D01*
X98555633Y-71958181D01*
X98538096Y-72040961D01*
X98660085Y-72263000D01*
X100203000Y-72263000D01*
X100203000Y-72243000D01*
X100457000Y-72243000D01*
X100457000Y-72263000D01*
X101999915Y-72263000D01*
X102121904Y-72040961D01*
X102104367Y-71958181D01*
X101834500Y-71465104D01*
X101408501Y-71122499D01*
X101764577Y-70884577D01*
X102081740Y-70409909D01*
X102193113Y-69850000D01*
X102081740Y-69290091D01*
X101764577Y-68815423D01*
X101412242Y-68580000D01*
X101764577Y-68344577D01*
X102081740Y-67869909D01*
X102193113Y-67310000D01*
X102081740Y-66750091D01*
X101764577Y-66275423D01*
X101643894Y-66194785D01*
X101777765Y-66168157D01*
X101987809Y-66027809D01*
X102128157Y-65817765D01*
X102177440Y-65570000D01*
X102177440Y-64770000D01*
X106086887Y-64770000D01*
X106198260Y-65329909D01*
X106515423Y-65804577D01*
X106867758Y-66040000D01*
X106515423Y-66275423D01*
X106198260Y-66750091D01*
X106086887Y-67310000D01*
X106198260Y-67869909D01*
X106515423Y-68344577D01*
X106867758Y-68580000D01*
X106515423Y-68815423D01*
X106198260Y-69290091D01*
X106086887Y-69850000D01*
X106198260Y-70409909D01*
X106515423Y-70884577D01*
X106867758Y-71120000D01*
X106515423Y-71355423D01*
X106198260Y-71830091D01*
X106086887Y-72390000D01*
X106198260Y-72949909D01*
X106515423Y-73424577D01*
X106990091Y-73741740D01*
X107408667Y-73825000D01*
X108491333Y-73825000D01*
X108909909Y-73741740D01*
X109384577Y-73424577D01*
X109701740Y-72949909D01*
X109813113Y-72390000D01*
X111566887Y-72390000D01*
X111678260Y-72949909D01*
X111995423Y-73424577D01*
X112470091Y-73741740D01*
X112888667Y-73825000D01*
X113171333Y-73825000D01*
X113589909Y-73741740D01*
X114064577Y-73424577D01*
X114381740Y-72949909D01*
X114493113Y-72390000D01*
X114436336Y-72104561D01*
X115405000Y-72104561D01*
X115405000Y-72675439D01*
X115623466Y-73202862D01*
X116027138Y-73606534D01*
X116554561Y-73825000D01*
X117125439Y-73825000D01*
X117652862Y-73606534D01*
X117730433Y-73528963D01*
X125088142Y-73528963D01*
X125157607Y-73771147D01*
X125681052Y-73957894D01*
X126236118Y-73930112D01*
X126619893Y-73771147D01*
X126689358Y-73528963D01*
X125888750Y-72728355D01*
X125088142Y-73528963D01*
X117730433Y-73528963D01*
X118056534Y-73202862D01*
X118275000Y-72675439D01*
X118275000Y-72341052D01*
X124479606Y-72341052D01*
X124507388Y-72896118D01*
X124666353Y-73279893D01*
X124908537Y-73349358D01*
X125709145Y-72548750D01*
X126068355Y-72548750D01*
X126868963Y-73349358D01*
X127111147Y-73279893D01*
X127297894Y-72756448D01*
X127270112Y-72201382D01*
X127111147Y-71817607D01*
X126868963Y-71748142D01*
X126068355Y-72548750D01*
X125709145Y-72548750D01*
X124908537Y-71748142D01*
X124666353Y-71817607D01*
X124479606Y-72341052D01*
X118275000Y-72341052D01*
X118275000Y-72104561D01*
X118056534Y-71577138D01*
X118047933Y-71568537D01*
X125088142Y-71568537D01*
X125888750Y-72369145D01*
X126689358Y-71568537D01*
X126619893Y-71326353D01*
X126096448Y-71139606D01*
X125541382Y-71167388D01*
X125157607Y-71326353D01*
X125088142Y-71568537D01*
X118047933Y-71568537D01*
X117652862Y-71173466D01*
X117125439Y-70955000D01*
X116554561Y-70955000D01*
X116027138Y-71173466D01*
X115623466Y-71577138D01*
X115405000Y-72104561D01*
X114436336Y-72104561D01*
X114381740Y-71830091D01*
X114064577Y-71355423D01*
X113589909Y-71038260D01*
X113171333Y-70955000D01*
X112888667Y-70955000D01*
X112470091Y-71038260D01*
X111995423Y-71355423D01*
X111678260Y-71830091D01*
X111566887Y-72390000D01*
X109813113Y-72390000D01*
X109701740Y-71830091D01*
X109384577Y-71355423D01*
X109032242Y-71120000D01*
X109384577Y-70884577D01*
X109701740Y-70409909D01*
X109813113Y-69850000D01*
X109701740Y-69290091D01*
X109384577Y-68815423D01*
X109032242Y-68580000D01*
X109384577Y-68344577D01*
X109701740Y-67869909D01*
X109813113Y-67310000D01*
X109701740Y-66750091D01*
X109384577Y-66275423D01*
X109032242Y-66040000D01*
X109384577Y-65804577D01*
X109701740Y-65329909D01*
X109813113Y-64770000D01*
X109701740Y-64210091D01*
X109384577Y-63735423D01*
X108909909Y-63418260D01*
X108491333Y-63335000D01*
X107408667Y-63335000D01*
X106990091Y-63418260D01*
X106515423Y-63735423D01*
X106198260Y-64210091D01*
X106086887Y-64770000D01*
X102177440Y-64770000D01*
X102177440Y-63970000D01*
X102128157Y-63722235D01*
X101987809Y-63512191D01*
X101777765Y-63371843D01*
X101530000Y-63322560D01*
X99130000Y-63322560D01*
X98882235Y-63371843D01*
X98672191Y-63512191D01*
X98531843Y-63722235D01*
X98482560Y-63970000D01*
X98482560Y-65570000D01*
X98531843Y-65817765D01*
X98672191Y-66027809D01*
X98882235Y-66168157D01*
X99016106Y-66194785D01*
X98895423Y-66275423D01*
X98578260Y-66750091D01*
X98466887Y-67310000D01*
X97320000Y-67310000D01*
X97320000Y-67024561D01*
X97101534Y-66497138D01*
X96697862Y-66093466D01*
X96170439Y-65875000D01*
X95599561Y-65875000D01*
X95072138Y-66093466D01*
X94668466Y-66497138D01*
X94450000Y-67024561D01*
X87081961Y-67024561D01*
X87116904Y-66960961D01*
X86956041Y-66572577D01*
X86580134Y-66157611D01*
X86074041Y-65918086D01*
X85852000Y-66039371D01*
X85598000Y-66039371D01*
X85375959Y-65918086D01*
X84869866Y-66157611D01*
X84820000Y-66212658D01*
X84820000Y-64624396D01*
X84912138Y-64716534D01*
X85439561Y-64935000D01*
X86010439Y-64935000D01*
X86537862Y-64716534D01*
X86941534Y-64312862D01*
X87160000Y-63785439D01*
X87160000Y-63500000D01*
X94421887Y-63500000D01*
X94533260Y-64059909D01*
X94850423Y-64534577D01*
X95325091Y-64851740D01*
X95743667Y-64935000D01*
X96026333Y-64935000D01*
X96444909Y-64851740D01*
X96919577Y-64534577D01*
X97236740Y-64059909D01*
X97348113Y-63500000D01*
X97236740Y-62940091D01*
X96919577Y-62465423D01*
X96444909Y-62148260D01*
X96026333Y-62065000D01*
X95743667Y-62065000D01*
X95325091Y-62148260D01*
X94850423Y-62465423D01*
X94533260Y-62940091D01*
X94421887Y-63500000D01*
X87160000Y-63500000D01*
X87160000Y-63214561D01*
X86941534Y-62687138D01*
X86537862Y-62283466D01*
X86010439Y-62065000D01*
X85439561Y-62065000D01*
X84912138Y-62283466D01*
X84820000Y-62375604D01*
X84820000Y-61944561D01*
X111595000Y-61944561D01*
X111595000Y-62515439D01*
X111813466Y-63042862D01*
X112217138Y-63446534D01*
X112744561Y-63665000D01*
X113315439Y-63665000D01*
X113842862Y-63446534D01*
X114246534Y-63042862D01*
X114438655Y-62579041D01*
X115448086Y-62579041D01*
X115687611Y-63085134D01*
X116102577Y-63461041D01*
X116490961Y-63621904D01*
X116713000Y-63499915D01*
X116713000Y-62357000D01*
X116967000Y-62357000D01*
X116967000Y-63499915D01*
X117189039Y-63621904D01*
X117577423Y-63461041D01*
X117992389Y-63085134D01*
X118231914Y-62579041D01*
X118110629Y-62357000D01*
X116967000Y-62357000D01*
X116713000Y-62357000D01*
X115569371Y-62357000D01*
X115448086Y-62579041D01*
X114438655Y-62579041D01*
X114465000Y-62515439D01*
X114465000Y-61944561D01*
X114438656Y-61880959D01*
X115448086Y-61880959D01*
X115569371Y-62103000D01*
X116713000Y-62103000D01*
X116713000Y-60960085D01*
X116967000Y-60960085D01*
X116967000Y-62103000D01*
X118110629Y-62103000D01*
X118231914Y-61880959D01*
X117992389Y-61374866D01*
X117577423Y-60998959D01*
X117189039Y-60838096D01*
X116967000Y-60960085D01*
X116713000Y-60960085D01*
X116490961Y-60838096D01*
X116102577Y-60998959D01*
X115687611Y-61374866D01*
X115448086Y-61880959D01*
X114438656Y-61880959D01*
X114246534Y-61417138D01*
X113842862Y-61013466D01*
X113315439Y-60795000D01*
X112744561Y-60795000D01*
X112217138Y-61013466D01*
X111813466Y-61417138D01*
X111595000Y-61944561D01*
X84820000Y-61944561D01*
X84820000Y-61121031D01*
X84852031Y-60960000D01*
X84820000Y-60798969D01*
X84820000Y-60697745D01*
X102121861Y-60697745D01*
X102195995Y-60943864D01*
X102733223Y-61136965D01*
X103303454Y-61109778D01*
X103704005Y-60943864D01*
X103778139Y-60697745D01*
X102950000Y-59869605D01*
X102121861Y-60697745D01*
X84820000Y-60697745D01*
X84820000Y-59473223D01*
X101503035Y-59473223D01*
X101530222Y-60043454D01*
X101696136Y-60444005D01*
X101942255Y-60518139D01*
X102770395Y-59690000D01*
X103129605Y-59690000D01*
X103957745Y-60518139D01*
X104203864Y-60444005D01*
X104396965Y-59906777D01*
X104373021Y-59404561D01*
X106515000Y-59404561D01*
X106515000Y-59975439D01*
X106733466Y-60502862D01*
X107137138Y-60906534D01*
X107664561Y-61125000D01*
X108235439Y-61125000D01*
X108762862Y-60906534D01*
X109166534Y-60502862D01*
X109385000Y-59975439D01*
X109385000Y-59404561D01*
X109166534Y-58877138D01*
X108762862Y-58473466D01*
X108235439Y-58255000D01*
X107664561Y-58255000D01*
X107137138Y-58473466D01*
X106733466Y-58877138D01*
X106515000Y-59404561D01*
X104373021Y-59404561D01*
X104369778Y-59336546D01*
X104203864Y-58935995D01*
X103957745Y-58861861D01*
X103129605Y-59690000D01*
X102770395Y-59690000D01*
X101942255Y-58861861D01*
X101696136Y-58935995D01*
X101503035Y-59473223D01*
X84820000Y-59473223D01*
X84820000Y-58682255D01*
X102121861Y-58682255D01*
X102950000Y-59510395D01*
X103778139Y-58682255D01*
X103704005Y-58436136D01*
X103166777Y-58243035D01*
X102596546Y-58270222D01*
X102195995Y-58436136D01*
X102121861Y-58682255D01*
X84820000Y-58682255D01*
X84820000Y-54296753D01*
X86055200Y-54296753D01*
X86055200Y-54923247D01*
X86294949Y-55502052D01*
X86737948Y-55945051D01*
X87316753Y-56184800D01*
X87943247Y-56184800D01*
X88522052Y-55945051D01*
X88900000Y-55567103D01*
X89277948Y-55945051D01*
X89856753Y-56184800D01*
X90483247Y-56184800D01*
X91062052Y-55945051D01*
X91440000Y-55567103D01*
X91817948Y-55945051D01*
X92396753Y-56184800D01*
X93023247Y-56184800D01*
X93602052Y-55945051D01*
X93980000Y-55567103D01*
X94357948Y-55945051D01*
X94936753Y-56184800D01*
X95563247Y-56184800D01*
X96142052Y-55945051D01*
X96520000Y-55567103D01*
X96897948Y-55945051D01*
X97476753Y-56184800D01*
X98103247Y-56184800D01*
X98682052Y-55945051D01*
X99060000Y-55567103D01*
X99437948Y-55945051D01*
X100016753Y-56184800D01*
X100643247Y-56184800D01*
X101222052Y-55945051D01*
X101600000Y-55567103D01*
X101977948Y-55945051D01*
X102556753Y-56184800D01*
X103183247Y-56184800D01*
X103762052Y-55945051D01*
X104140000Y-55567103D01*
X104517948Y-55945051D01*
X105096753Y-56184800D01*
X105723247Y-56184800D01*
X106302052Y-55945051D01*
X106680000Y-55567103D01*
X107057948Y-55945051D01*
X107636753Y-56184800D01*
X108263247Y-56184800D01*
X108842052Y-55945051D01*
X109220000Y-55567103D01*
X109597948Y-55945051D01*
X110176753Y-56184800D01*
X110803247Y-56184800D01*
X111382052Y-55945051D01*
X111608135Y-55718968D01*
X112100637Y-55718968D01*
X112191923Y-55979580D01*
X112779833Y-56196045D01*
X113405828Y-56171049D01*
X113868077Y-55979580D01*
X113959363Y-55718968D01*
X113030000Y-54789605D01*
X112100637Y-55718968D01*
X111608135Y-55718968D01*
X111822317Y-55504786D01*
X111921032Y-55539363D01*
X112850395Y-54610000D01*
X113209605Y-54610000D01*
X114138968Y-55539363D01*
X114237683Y-55504786D01*
X114677948Y-55945051D01*
X115256753Y-56184800D01*
X115883247Y-56184800D01*
X116462052Y-55945051D01*
X116905051Y-55502052D01*
X117144800Y-54923247D01*
X117144800Y-54601903D01*
X117217948Y-54675051D01*
X117796753Y-54914800D01*
X118423247Y-54914800D01*
X119002052Y-54675051D01*
X119445051Y-54232052D01*
X119684800Y-53653247D01*
X119684800Y-53026753D01*
X119445051Y-52447948D01*
X119067103Y-52070000D01*
X119445051Y-51692052D01*
X119684800Y-51113247D01*
X119684800Y-50486753D01*
X119445051Y-49907948D01*
X119067103Y-49530000D01*
X119445051Y-49152052D01*
X119684800Y-48573247D01*
X119684800Y-47946753D01*
X119445051Y-47367948D01*
X119067103Y-46990000D01*
X119445051Y-46612052D01*
X119684800Y-46033247D01*
X119684800Y-45406753D01*
X119445051Y-44827948D01*
X119004786Y-44387683D01*
X119039363Y-44288968D01*
X118110000Y-43359605D01*
X117180637Y-44288968D01*
X117215214Y-44387683D01*
X116774949Y-44827948D01*
X116535200Y-45406753D01*
X116535200Y-46033247D01*
X116774949Y-46612052D01*
X117152897Y-46990000D01*
X116774949Y-47367948D01*
X116535200Y-47946753D01*
X116535200Y-48573247D01*
X116774949Y-49152052D01*
X117152897Y-49530000D01*
X116774949Y-49907948D01*
X116535200Y-50486753D01*
X116535200Y-51113247D01*
X116774949Y-51692052D01*
X117152897Y-52070000D01*
X116774949Y-52447948D01*
X116535200Y-53026753D01*
X116535200Y-53348097D01*
X116462052Y-53274949D01*
X115883247Y-53035200D01*
X115256753Y-53035200D01*
X114677948Y-53274949D01*
X114237683Y-53715214D01*
X114138968Y-53680637D01*
X113209605Y-54610000D01*
X112850395Y-54610000D01*
X111921032Y-53680637D01*
X111822317Y-53715214D01*
X111608135Y-53501032D01*
X112100637Y-53501032D01*
X113030000Y-54430395D01*
X113959363Y-53501032D01*
X113868077Y-53240420D01*
X113280167Y-53023955D01*
X112654172Y-53048951D01*
X112191923Y-53240420D01*
X112100637Y-53501032D01*
X111608135Y-53501032D01*
X111382052Y-53274949D01*
X110803247Y-53035200D01*
X110176753Y-53035200D01*
X109597948Y-53274949D01*
X109220000Y-53652897D01*
X108842052Y-53274949D01*
X108263247Y-53035200D01*
X107672136Y-53035200D01*
X107699052Y-53024051D01*
X108142051Y-52581052D01*
X108381800Y-52002247D01*
X108381800Y-51375753D01*
X108142051Y-50796948D01*
X107699052Y-50353949D01*
X107120247Y-50114200D01*
X106493753Y-50114200D01*
X105914948Y-50353949D01*
X105537000Y-50731897D01*
X105159052Y-50353949D01*
X104580247Y-50114200D01*
X103953753Y-50114200D01*
X103374948Y-50353949D01*
X102931949Y-50796948D01*
X102692200Y-51375753D01*
X102692200Y-52002247D01*
X102931949Y-52581052D01*
X103374948Y-53024051D01*
X103953753Y-53263800D01*
X104544864Y-53263800D01*
X104517948Y-53274949D01*
X104140000Y-53652897D01*
X103762052Y-53274949D01*
X103183247Y-53035200D01*
X102556753Y-53035200D01*
X101977948Y-53274949D01*
X101600000Y-53652897D01*
X101222052Y-53274949D01*
X100643247Y-53035200D01*
X100016753Y-53035200D01*
X99437948Y-53274949D01*
X99060000Y-53652897D01*
X98682052Y-53274949D01*
X98103247Y-53035200D01*
X97476753Y-53035200D01*
X96897948Y-53274949D01*
X96520000Y-53652897D01*
X96142052Y-53274949D01*
X96115136Y-53263800D01*
X96706247Y-53263800D01*
X97285052Y-53024051D01*
X97728051Y-52581052D01*
X97967800Y-52002247D01*
X97967800Y-51375753D01*
X97728051Y-50796948D01*
X97285052Y-50353949D01*
X96706247Y-50114200D01*
X96079753Y-50114200D01*
X95500948Y-50353949D01*
X95123000Y-50731897D01*
X94745052Y-50353949D01*
X94166247Y-50114200D01*
X93539753Y-50114200D01*
X92960948Y-50353949D01*
X92517949Y-50796948D01*
X92278200Y-51375753D01*
X92278200Y-52002247D01*
X92517949Y-52581052D01*
X92960948Y-53024051D01*
X92987864Y-53035200D01*
X92396753Y-53035200D01*
X91817948Y-53274949D01*
X91440000Y-53652897D01*
X91062052Y-53274949D01*
X90483247Y-53035200D01*
X89856753Y-53035200D01*
X89277948Y-53274949D01*
X88900000Y-53652897D01*
X88522052Y-53274949D01*
X87943247Y-53035200D01*
X87316753Y-53035200D01*
X86737948Y-53274949D01*
X86294949Y-53717948D01*
X86055200Y-54296753D01*
X84820000Y-54296753D01*
X84820000Y-49691031D01*
X84852031Y-49530000D01*
X84725136Y-48892055D01*
X84363769Y-48351231D01*
X83822945Y-47989864D01*
X83346031Y-47895000D01*
X83185000Y-47862969D01*
X83023969Y-47895000D01*
X79921292Y-47895000D01*
X80138839Y-47569418D01*
X80254092Y-46990000D01*
X80138839Y-46410582D01*
X79810625Y-45919375D01*
X79512239Y-45720000D01*
X79810625Y-45520625D01*
X80138839Y-45029418D01*
X80254092Y-44450000D01*
X80138839Y-43870582D01*
X79810625Y-43379375D01*
X79788967Y-43364904D01*
X79949698Y-43298327D01*
X80128327Y-43119699D01*
X80206972Y-42929833D01*
X116523955Y-42929833D01*
X116548951Y-43555828D01*
X116740420Y-44018077D01*
X117001032Y-44109363D01*
X117930395Y-43180000D01*
X118289605Y-43180000D01*
X119218968Y-44109363D01*
X119479580Y-44018077D01*
X119696045Y-43430167D01*
X119671049Y-42804172D01*
X119479580Y-42341923D01*
X119218968Y-42250637D01*
X118289605Y-43180000D01*
X117930395Y-43180000D01*
X117001032Y-42250637D01*
X116740420Y-42341923D01*
X116523955Y-42929833D01*
X80206972Y-42929833D01*
X80225000Y-42886310D01*
X80225000Y-42195750D01*
X80066250Y-42037000D01*
X78867000Y-42037000D01*
X78867000Y-42057000D01*
X78613000Y-42057000D01*
X78613000Y-42037000D01*
X77413750Y-42037000D01*
X77255000Y-42195750D01*
X77255000Y-42886310D01*
X77351673Y-43119699D01*
X77530302Y-43298327D01*
X77691033Y-43364904D01*
X77669375Y-43379375D01*
X77341161Y-43870582D01*
X77225908Y-44450000D01*
X77341161Y-45029418D01*
X77669375Y-45520625D01*
X77967761Y-45720000D01*
X77669375Y-45919375D01*
X77341161Y-46410582D01*
X77225908Y-46990000D01*
X77341161Y-47569418D01*
X77669375Y-48060625D01*
X77832764Y-48169798D01*
X77561231Y-48351231D01*
X77199864Y-48892055D01*
X77072969Y-49530000D01*
X75577700Y-49530000D01*
X75577700Y-40933690D01*
X77255000Y-40933690D01*
X77255000Y-41624250D01*
X77413750Y-41783000D01*
X78613000Y-41783000D01*
X78613000Y-40583750D01*
X78867000Y-40583750D01*
X78867000Y-41783000D01*
X80066250Y-41783000D01*
X80100282Y-41748968D01*
X117180637Y-41748968D01*
X117237043Y-41910000D01*
X117180637Y-42071032D01*
X118110000Y-43000395D01*
X119039363Y-42071032D01*
X118982957Y-41910000D01*
X119039363Y-41748968D01*
X118110000Y-40819605D01*
X117180637Y-41748968D01*
X80100282Y-41748968D01*
X80225000Y-41624250D01*
X80225000Y-40933690D01*
X80128327Y-40700301D01*
X79949698Y-40521673D01*
X79716309Y-40425000D01*
X79025750Y-40425000D01*
X78867000Y-40583750D01*
X78613000Y-40583750D01*
X78454250Y-40425000D01*
X77763691Y-40425000D01*
X77530302Y-40521673D01*
X77351673Y-40700301D01*
X77255000Y-40933690D01*
X75577700Y-40933690D01*
X75577700Y-39056753D01*
X86055200Y-39056753D01*
X86055200Y-39683247D01*
X86294949Y-40262052D01*
X86737948Y-40705051D01*
X87316753Y-40944800D01*
X87943247Y-40944800D01*
X88522052Y-40705051D01*
X88900000Y-40327103D01*
X89277948Y-40705051D01*
X89856753Y-40944800D01*
X90483247Y-40944800D01*
X91062052Y-40705051D01*
X91440000Y-40327103D01*
X91817948Y-40705051D01*
X92396753Y-40944800D01*
X93023247Y-40944800D01*
X93602052Y-40705051D01*
X93980000Y-40327103D01*
X94357948Y-40705051D01*
X94936753Y-40944800D01*
X95563247Y-40944800D01*
X96142052Y-40705051D01*
X96520000Y-40327103D01*
X96897948Y-40705051D01*
X97476753Y-40944800D01*
X98103247Y-40944800D01*
X98682052Y-40705051D01*
X99060000Y-40327103D01*
X99437948Y-40705051D01*
X100016753Y-40944800D01*
X100643247Y-40944800D01*
X101222052Y-40705051D01*
X101600000Y-40327103D01*
X101977948Y-40705051D01*
X102556753Y-40944800D01*
X103183247Y-40944800D01*
X103762052Y-40705051D01*
X104140000Y-40327103D01*
X104517948Y-40705051D01*
X105096753Y-40944800D01*
X105723247Y-40944800D01*
X106302052Y-40705051D01*
X106528135Y-40478968D01*
X107020637Y-40478968D01*
X107111923Y-40739580D01*
X107699833Y-40956045D01*
X108325828Y-40931049D01*
X108788077Y-40739580D01*
X108879363Y-40478968D01*
X107950000Y-39549605D01*
X107020637Y-40478968D01*
X106528135Y-40478968D01*
X106742317Y-40264786D01*
X106841032Y-40299363D01*
X107770395Y-39370000D01*
X108129605Y-39370000D01*
X109058968Y-40299363D01*
X109157683Y-40264786D01*
X109597948Y-40705051D01*
X110176753Y-40944800D01*
X110803247Y-40944800D01*
X111382052Y-40705051D01*
X111760000Y-40327103D01*
X112137948Y-40705051D01*
X112716753Y-40944800D01*
X113343247Y-40944800D01*
X113922052Y-40705051D01*
X114300000Y-40327103D01*
X114677948Y-40705051D01*
X115256753Y-40944800D01*
X115883247Y-40944800D01*
X116462052Y-40705051D01*
X116533681Y-40633422D01*
X116548951Y-41015828D01*
X116740420Y-41478077D01*
X117001032Y-41569363D01*
X117930395Y-40640000D01*
X118289605Y-40640000D01*
X119218968Y-41569363D01*
X119479580Y-41478077D01*
X119696045Y-40890167D01*
X119671049Y-40264172D01*
X119479580Y-39801923D01*
X119218968Y-39710637D01*
X118289605Y-40640000D01*
X117930395Y-40640000D01*
X117916253Y-40625858D01*
X118095858Y-40446253D01*
X118110000Y-40460395D01*
X119039363Y-39531032D01*
X118948077Y-39270420D01*
X118360167Y-39053955D01*
X117734172Y-39078951D01*
X117271923Y-39270420D01*
X117180638Y-39531030D01*
X117144800Y-39495192D01*
X117144800Y-39056753D01*
X116905051Y-38477948D01*
X116462052Y-38034949D01*
X115883247Y-37795200D01*
X115256753Y-37795200D01*
X114677948Y-38034949D01*
X114300000Y-38412897D01*
X113922052Y-38034949D01*
X113343247Y-37795200D01*
X112716753Y-37795200D01*
X112137948Y-38034949D01*
X111760000Y-38412897D01*
X111382052Y-38034949D01*
X110803247Y-37795200D01*
X110176753Y-37795200D01*
X109597948Y-38034949D01*
X109157683Y-38475214D01*
X109058968Y-38440637D01*
X108129605Y-39370000D01*
X107770395Y-39370000D01*
X106841032Y-38440637D01*
X106742317Y-38475214D01*
X106528135Y-38261032D01*
X107020637Y-38261032D01*
X107950000Y-39190395D01*
X108879363Y-38261032D01*
X108788077Y-38000420D01*
X108200167Y-37783955D01*
X107574172Y-37808951D01*
X107111923Y-38000420D01*
X107020637Y-38261032D01*
X106528135Y-38261032D01*
X106302052Y-38034949D01*
X105723247Y-37795200D01*
X105096753Y-37795200D01*
X104517948Y-38034949D01*
X104140000Y-38412897D01*
X103762052Y-38034949D01*
X103183247Y-37795200D01*
X102556753Y-37795200D01*
X101977948Y-38034949D01*
X101600000Y-38412897D01*
X101222052Y-38034949D01*
X100643247Y-37795200D01*
X100016753Y-37795200D01*
X99437948Y-38034949D01*
X99060000Y-38412897D01*
X98682052Y-38034949D01*
X98103247Y-37795200D01*
X97476753Y-37795200D01*
X96897948Y-38034949D01*
X96520000Y-38412897D01*
X96142052Y-38034949D01*
X95563247Y-37795200D01*
X94936753Y-37795200D01*
X94357948Y-38034949D01*
X93980000Y-38412897D01*
X93602052Y-38034949D01*
X93023247Y-37795200D01*
X92396753Y-37795200D01*
X91817948Y-38034949D01*
X91440000Y-38412897D01*
X91062052Y-38034949D01*
X90483247Y-37795200D01*
X89856753Y-37795200D01*
X89277948Y-38034949D01*
X88900000Y-38412897D01*
X88522052Y-38034949D01*
X87943247Y-37795200D01*
X87316753Y-37795200D01*
X86737948Y-38034949D01*
X86294949Y-38477948D01*
X86055200Y-39056753D01*
X75577700Y-39056753D01*
X75577700Y-32670750D01*
X77205000Y-32670750D01*
X77205000Y-33411309D01*
X77301673Y-33644698D01*
X77480301Y-33823327D01*
X77615044Y-33879139D01*
X77438690Y-34055493D01*
X77205000Y-34619670D01*
X77205000Y-35230330D01*
X77438690Y-35794507D01*
X77870493Y-36226310D01*
X78434670Y-36460000D01*
X79045330Y-36460000D01*
X79609507Y-36226310D01*
X80041310Y-35794507D01*
X80275000Y-35230330D01*
X80275000Y-34639561D01*
X86195000Y-34639561D01*
X86195000Y-35210439D01*
X86413466Y-35737862D01*
X86817138Y-36141534D01*
X87344561Y-36360000D01*
X87915439Y-36360000D01*
X88442862Y-36141534D01*
X88846534Y-35737862D01*
X89065000Y-35210439D01*
X89065000Y-34925000D01*
X96326887Y-34925000D01*
X96438260Y-35484909D01*
X96755423Y-35959577D01*
X97230091Y-36276740D01*
X97648667Y-36360000D01*
X97931333Y-36360000D01*
X98349909Y-36276740D01*
X98824577Y-35959577D01*
X99141740Y-35484909D01*
X99253113Y-34925000D01*
X99196336Y-34639561D01*
X103975000Y-34639561D01*
X103975000Y-35210439D01*
X104193466Y-35737862D01*
X104597138Y-36141534D01*
X105124561Y-36360000D01*
X105695439Y-36360000D01*
X106222862Y-36141534D01*
X106626534Y-35737862D01*
X106818655Y-35274039D01*
X114178096Y-35274039D01*
X114338959Y-35662423D01*
X114714866Y-36077389D01*
X115220959Y-36316914D01*
X115443000Y-36195629D01*
X115443000Y-35052000D01*
X115697000Y-35052000D01*
X115697000Y-36195629D01*
X115919041Y-36316914D01*
X116425134Y-36077389D01*
X116801041Y-35662423D01*
X116961904Y-35274039D01*
X116839915Y-35052000D01*
X115697000Y-35052000D01*
X115443000Y-35052000D01*
X114300085Y-35052000D01*
X114178096Y-35274039D01*
X106818655Y-35274039D01*
X106845000Y-35210439D01*
X106845000Y-34639561D01*
X106818656Y-34575961D01*
X114178096Y-34575961D01*
X114300085Y-34798000D01*
X115443000Y-34798000D01*
X115443000Y-33654371D01*
X115697000Y-33654371D01*
X115697000Y-34798000D01*
X116839915Y-34798000D01*
X116961904Y-34575961D01*
X116801041Y-34187577D01*
X116487506Y-33841463D01*
X125088142Y-33841463D01*
X125157607Y-34083647D01*
X125681052Y-34270394D01*
X126236118Y-34242612D01*
X126619893Y-34083647D01*
X126689358Y-33841463D01*
X125888750Y-33040855D01*
X125088142Y-33841463D01*
X116487506Y-33841463D01*
X116425134Y-33772611D01*
X115919041Y-33533086D01*
X115697000Y-33654371D01*
X115443000Y-33654371D01*
X115220959Y-33533086D01*
X114714866Y-33772611D01*
X114338959Y-34187577D01*
X114178096Y-34575961D01*
X106818656Y-34575961D01*
X106626534Y-34112138D01*
X106222862Y-33708466D01*
X105695439Y-33490000D01*
X105124561Y-33490000D01*
X104597138Y-33708466D01*
X104193466Y-34112138D01*
X103975000Y-34639561D01*
X99196336Y-34639561D01*
X99141740Y-34365091D01*
X98824577Y-33890423D01*
X98349909Y-33573260D01*
X97931333Y-33490000D01*
X97648667Y-33490000D01*
X97230091Y-33573260D01*
X96755423Y-33890423D01*
X96438260Y-34365091D01*
X96326887Y-34925000D01*
X89065000Y-34925000D01*
X89065000Y-34639561D01*
X88846534Y-34112138D01*
X88442862Y-33708466D01*
X87915439Y-33490000D01*
X87344561Y-33490000D01*
X86817138Y-33708466D01*
X86413466Y-34112138D01*
X86195000Y-34639561D01*
X80275000Y-34639561D01*
X80275000Y-34619670D01*
X80041310Y-34055493D01*
X79864956Y-33879139D01*
X79999699Y-33823327D01*
X80178327Y-33644698D01*
X80275000Y-33411309D01*
X80275000Y-32670750D01*
X80257802Y-32653552D01*
X124479606Y-32653552D01*
X124507388Y-33208618D01*
X124666353Y-33592393D01*
X124908537Y-33661858D01*
X125709145Y-32861250D01*
X126068355Y-32861250D01*
X126868963Y-33661858D01*
X127111147Y-33592393D01*
X127297894Y-33068948D01*
X127273590Y-32583369D01*
X141954250Y-32583369D01*
X141954250Y-33139131D01*
X142166930Y-33652587D01*
X142559913Y-34045570D01*
X143073369Y-34258250D01*
X143629131Y-34258250D01*
X144142587Y-34045570D01*
X144535570Y-33652587D01*
X144748250Y-33139131D01*
X144748250Y-32583369D01*
X144535570Y-32069913D01*
X144142587Y-31676930D01*
X143629131Y-31464250D01*
X143073369Y-31464250D01*
X142559913Y-31676930D01*
X142166930Y-32069913D01*
X141954250Y-32583369D01*
X127273590Y-32583369D01*
X127270112Y-32513882D01*
X127111147Y-32130107D01*
X126868963Y-32060642D01*
X126068355Y-32861250D01*
X125709145Y-32861250D01*
X124908537Y-32060642D01*
X124666353Y-32130107D01*
X124479606Y-32653552D01*
X80257802Y-32653552D01*
X80116250Y-32512000D01*
X78867000Y-32512000D01*
X78867000Y-32532000D01*
X78613000Y-32532000D01*
X78613000Y-32512000D01*
X77363750Y-32512000D01*
X77205000Y-32670750D01*
X75577700Y-32670750D01*
X75577700Y-31358691D01*
X77205000Y-31358691D01*
X77205000Y-32099250D01*
X77363750Y-32258000D01*
X78613000Y-32258000D01*
X78613000Y-31008750D01*
X78867000Y-31008750D01*
X78867000Y-32258000D01*
X80116250Y-32258000D01*
X80275000Y-32099250D01*
X80275000Y-31881037D01*
X125088142Y-31881037D01*
X125888750Y-32681645D01*
X126689358Y-31881037D01*
X126619893Y-31638853D01*
X126096448Y-31452106D01*
X125541382Y-31479888D01*
X125157607Y-31638853D01*
X125088142Y-31881037D01*
X80275000Y-31881037D01*
X80275000Y-31358691D01*
X80178327Y-31125302D01*
X79999699Y-30946673D01*
X79766310Y-30850000D01*
X79025750Y-30850000D01*
X78867000Y-31008750D01*
X78613000Y-31008750D01*
X78454250Y-30850000D01*
X77713690Y-30850000D01*
X77480301Y-30946673D01*
X77301673Y-31125302D01*
X77205000Y-31358691D01*
X75577700Y-31358691D01*
X75577700Y-24955431D01*
X76505000Y-24955431D01*
X76505000Y-25844569D01*
X76845259Y-26666026D01*
X77473974Y-27294741D01*
X78295431Y-27635000D01*
X79184569Y-27635000D01*
X79981258Y-27305000D01*
X86318276Y-27305000D01*
X86503380Y-28235580D01*
X87030511Y-29024489D01*
X87819420Y-29551620D01*
X88515103Y-29690000D01*
X88984897Y-29690000D01*
X89680580Y-29551620D01*
X90469489Y-29024489D01*
X90996620Y-28235580D01*
X91181724Y-27305000D01*
X103743900Y-27305000D01*
X103867109Y-27924411D01*
X104129088Y-28316491D01*
X103952191Y-28434691D01*
X103811843Y-28644735D01*
X103762560Y-28892500D01*
X103762560Y-30797500D01*
X103811843Y-31045265D01*
X103952191Y-31255309D01*
X104162235Y-31395657D01*
X104410000Y-31444940D01*
X106410000Y-31444940D01*
X106657765Y-31395657D01*
X106867809Y-31255309D01*
X107008157Y-31045265D01*
X107057440Y-30797500D01*
X107057440Y-28892500D01*
X107028101Y-28745000D01*
X108742560Y-28745000D01*
X108742560Y-30945000D01*
X108791843Y-31192765D01*
X108932191Y-31402809D01*
X109142235Y-31543157D01*
X109390000Y-31592440D01*
X111590000Y-31592440D01*
X111837765Y-31543157D01*
X112047809Y-31402809D01*
X112188157Y-31192765D01*
X112237440Y-30945000D01*
X112237440Y-29845000D01*
X116341010Y-29845000D01*
X116475666Y-30521963D01*
X116859135Y-31095865D01*
X117433037Y-31479334D01*
X117939120Y-31580000D01*
X118280880Y-31580000D01*
X118786963Y-31479334D01*
X119360865Y-31095865D01*
X119744334Y-30521963D01*
X119878990Y-29845000D01*
X119744334Y-29168037D01*
X119360865Y-28594135D01*
X118786963Y-28210666D01*
X118280880Y-28110000D01*
X117939120Y-28110000D01*
X117433037Y-28210666D01*
X116859135Y-28594135D01*
X116475666Y-29168037D01*
X116341010Y-29845000D01*
X112237440Y-29845000D01*
X112237440Y-28745000D01*
X112188157Y-28497235D01*
X112047809Y-28287191D01*
X111837765Y-28146843D01*
X111590000Y-28097560D01*
X109390000Y-28097560D01*
X109142235Y-28146843D01*
X108932191Y-28287191D01*
X108791843Y-28497235D01*
X108742560Y-28745000D01*
X107028101Y-28745000D01*
X107008157Y-28644735D01*
X106867809Y-28434691D01*
X106690912Y-28316491D01*
X106952891Y-27924411D01*
X107076100Y-27305000D01*
X106952891Y-26685589D01*
X106602023Y-26160477D01*
X106400526Y-26025841D01*
X106785973Y-25631924D01*
X107000563Y-25137980D01*
X106880594Y-24892000D01*
X105537000Y-24892000D01*
X105537000Y-24912000D01*
X105283000Y-24912000D01*
X105283000Y-24892000D01*
X103939406Y-24892000D01*
X103819437Y-25137980D01*
X104034027Y-25631924D01*
X104419474Y-26025841D01*
X104217977Y-26160477D01*
X103867109Y-26685589D01*
X103743900Y-27305000D01*
X91181724Y-27305000D01*
X90996620Y-26374420D01*
X90469489Y-25585511D01*
X89680580Y-25058380D01*
X88984897Y-24920000D01*
X88515103Y-24920000D01*
X87819420Y-25058380D01*
X87030511Y-25585511D01*
X86503380Y-26374420D01*
X86318276Y-27305000D01*
X79981258Y-27305000D01*
X80006026Y-27294741D01*
X80634741Y-26666026D01*
X80975000Y-25844569D01*
X80975000Y-24955431D01*
X80741628Y-24392020D01*
X103819437Y-24392020D01*
X103939406Y-24638000D01*
X105283000Y-24638000D01*
X105283000Y-23339428D01*
X105537000Y-23339428D01*
X105537000Y-24638000D01*
X106880594Y-24638000D01*
X106923513Y-24550000D01*
X111532560Y-24550000D01*
X111532560Y-26250000D01*
X111581843Y-26497765D01*
X111722191Y-26707809D01*
X111932235Y-26848157D01*
X112180000Y-26897440D01*
X113880000Y-26897440D01*
X114127765Y-26848157D01*
X114337809Y-26707809D01*
X114478157Y-26497765D01*
X114487184Y-26452381D01*
X114499375Y-26470625D01*
X114990582Y-26798839D01*
X115423744Y-26885000D01*
X115716256Y-26885000D01*
X116149418Y-26798839D01*
X116640625Y-26470625D01*
X116968839Y-25979418D01*
X117027252Y-25685750D01*
X129960000Y-25685750D01*
X129960000Y-26376309D01*
X130056673Y-26609698D01*
X130235301Y-26788327D01*
X130468690Y-26885000D01*
X131159250Y-26885000D01*
X131318000Y-26726250D01*
X131318000Y-25527000D01*
X130118750Y-25527000D01*
X129960000Y-25685750D01*
X117027252Y-25685750D01*
X117084092Y-25400000D01*
X116968839Y-24820582D01*
X116703645Y-24423691D01*
X129960000Y-24423691D01*
X129960000Y-25114250D01*
X130118750Y-25273000D01*
X131318000Y-25273000D01*
X131318000Y-24073750D01*
X131572000Y-24073750D01*
X131572000Y-25273000D01*
X131592000Y-25273000D01*
X131592000Y-25527000D01*
X131572000Y-25527000D01*
X131572000Y-26726250D01*
X131730750Y-26885000D01*
X132421310Y-26885000D01*
X132654699Y-26788327D01*
X132833327Y-26609698D01*
X132899904Y-26448967D01*
X132914375Y-26470625D01*
X133405582Y-26798839D01*
X133838744Y-26885000D01*
X134131256Y-26885000D01*
X134564418Y-26798839D01*
X135055625Y-26470625D01*
X135383839Y-25979418D01*
X135499092Y-25400000D01*
X135410663Y-24955431D01*
X142545000Y-24955431D01*
X142545000Y-25844569D01*
X142885259Y-26666026D01*
X143513974Y-27294741D01*
X144335431Y-27635000D01*
X145224569Y-27635000D01*
X146046026Y-27294741D01*
X146674741Y-26666026D01*
X147015000Y-25844569D01*
X147015000Y-24955431D01*
X146674741Y-24133974D01*
X146046026Y-23505259D01*
X145224569Y-23165000D01*
X144335431Y-23165000D01*
X143513974Y-23505259D01*
X142885259Y-24133974D01*
X142545000Y-24955431D01*
X135410663Y-24955431D01*
X135383839Y-24820582D01*
X135055625Y-24329375D01*
X134564418Y-24001161D01*
X134131256Y-23915000D01*
X133838744Y-23915000D01*
X133405582Y-24001161D01*
X132914375Y-24329375D01*
X132899904Y-24351033D01*
X132833327Y-24190302D01*
X132654699Y-24011673D01*
X132421310Y-23915000D01*
X131730750Y-23915000D01*
X131572000Y-24073750D01*
X131318000Y-24073750D01*
X131159250Y-23915000D01*
X130468690Y-23915000D01*
X130235301Y-24011673D01*
X130056673Y-24190302D01*
X129960000Y-24423691D01*
X116703645Y-24423691D01*
X116640625Y-24329375D01*
X116149418Y-24001161D01*
X115716256Y-23915000D01*
X115423744Y-23915000D01*
X114990582Y-24001161D01*
X114499375Y-24329375D01*
X114487184Y-24347619D01*
X114478157Y-24302235D01*
X114337809Y-24092191D01*
X114127765Y-23951843D01*
X113880000Y-23902560D01*
X112180000Y-23902560D01*
X111932235Y-23951843D01*
X111722191Y-24092191D01*
X111581843Y-24302235D01*
X111532560Y-24550000D01*
X106923513Y-24550000D01*
X107000563Y-24392020D01*
X106785973Y-23898076D01*
X106353091Y-23455682D01*
X105783864Y-23212620D01*
X105537000Y-23339428D01*
X105283000Y-23339428D01*
X105036136Y-23212620D01*
X104466909Y-23455682D01*
X104034027Y-23898076D01*
X103819437Y-24392020D01*
X80741628Y-24392020D01*
X80634741Y-24133974D01*
X80006026Y-23505259D01*
X79184569Y-23165000D01*
X78295431Y-23165000D01*
X77473974Y-23505259D01*
X76845259Y-24133974D01*
X76505000Y-24955431D01*
X75577700Y-24955431D01*
X75577700Y-22237700D01*
X148577300Y-22237700D01*
X148577301Y-82537300D01*
X148577301Y-82537300D01*
G37*
X148577301Y-82537300D02*
X75577700Y-82537300D01*
X75577700Y-78930431D01*
X76505000Y-78930431D01*
X76505000Y-79819569D01*
X76845259Y-80641026D01*
X77473974Y-81269741D01*
X78295431Y-81610000D01*
X79184569Y-81610000D01*
X80006026Y-81269741D01*
X80634741Y-80641026D01*
X80975000Y-79819569D01*
X80975000Y-78930431D01*
X80634741Y-78108974D01*
X80006026Y-77480259D01*
X79184569Y-77140000D01*
X78295431Y-77140000D01*
X77473974Y-77480259D01*
X76845259Y-78108974D01*
X76505000Y-78930431D01*
X75577700Y-78930431D01*
X75577700Y-72390000D01*
X77225908Y-72390000D01*
X77341161Y-72969418D01*
X77669375Y-73460625D01*
X78160582Y-73788839D01*
X78593744Y-73875000D01*
X78886256Y-73875000D01*
X79319418Y-73788839D01*
X79810625Y-73460625D01*
X80138839Y-72969418D01*
X80254092Y-72390000D01*
X80138839Y-71810582D01*
X79810625Y-71319375D01*
X79788967Y-71304904D01*
X79949698Y-71238327D01*
X80128327Y-71059699D01*
X80225000Y-70826310D01*
X80225000Y-70135750D01*
X80066250Y-69977000D01*
X78867000Y-69977000D01*
X78867000Y-69997000D01*
X78613000Y-69997000D01*
X78613000Y-69977000D01*
X77413750Y-69977000D01*
X77255000Y-70135750D01*
X77255000Y-70826310D01*
X77351673Y-71059699D01*
X77530302Y-71238327D01*
X77691033Y-71304904D01*
X77669375Y-71319375D01*
X77341161Y-71810582D01*
X77225908Y-72390000D01*
X75577700Y-72390000D01*
X75577700Y-68873690D01*
X77255000Y-68873690D01*
X77255000Y-69564250D01*
X77413750Y-69723000D01*
X78613000Y-69723000D01*
X78613000Y-68523750D01*
X78867000Y-68523750D01*
X78867000Y-69723000D01*
X80066250Y-69723000D01*
X80225000Y-69564250D01*
X80225000Y-68873690D01*
X80128327Y-68640301D01*
X79949698Y-68461673D01*
X79716309Y-68365000D01*
X79025750Y-68365000D01*
X78867000Y-68523750D01*
X78613000Y-68523750D01*
X78454250Y-68365000D01*
X77763691Y-68365000D01*
X77530302Y-68461673D01*
X77351673Y-68640301D01*
X77255000Y-68873690D01*
X75577700Y-68873690D01*
X75577700Y-54903690D01*
X77255000Y-54903690D01*
X77255000Y-55594250D01*
X77413750Y-55753000D01*
X78613000Y-55753000D01*
X78613000Y-54553750D01*
X78867000Y-54553750D01*
X78867000Y-55753000D01*
X80066250Y-55753000D01*
X80225000Y-55594250D01*
X80225000Y-54903690D01*
X80128327Y-54670301D01*
X79949698Y-54491673D01*
X79716309Y-54395000D01*
X79025750Y-54395000D01*
X78867000Y-54553750D01*
X78613000Y-54553750D01*
X78454250Y-54395000D01*
X77763691Y-54395000D01*
X77530302Y-54491673D01*
X77351673Y-54670301D01*
X77255000Y-54903690D01*
X75577700Y-54903690D01*
X75577700Y-49530000D01*
X77072969Y-49530000D01*
X77199864Y-50167945D01*
X77561231Y-50708769D01*
X78102055Y-51070136D01*
X78578969Y-51165000D01*
X81550001Y-51165000D01*
X81550000Y-59325000D01*
X79921292Y-59325000D01*
X80138839Y-58999418D01*
X80254092Y-58420000D01*
X80138839Y-57840582D01*
X79810625Y-57349375D01*
X79788967Y-57334904D01*
X79949698Y-57268327D01*
X80128327Y-57089699D01*
X80225000Y-56856310D01*
X80225000Y-56165750D01*
X80066250Y-56007000D01*
X78867000Y-56007000D01*
X78867000Y-56027000D01*
X78613000Y-56027000D01*
X78613000Y-56007000D01*
X77413750Y-56007000D01*
X77255000Y-56165750D01*
X77255000Y-56856310D01*
X77351673Y-57089699D01*
X77530302Y-57268327D01*
X77691033Y-57334904D01*
X77669375Y-57349375D01*
X77341161Y-57840582D01*
X77225908Y-58420000D01*
X77341161Y-58999418D01*
X77669375Y-59490625D01*
X77832764Y-59599798D01*
X77561231Y-59781231D01*
X77199864Y-60322055D01*
X77072969Y-60960000D01*
X77199864Y-61597945D01*
X77561231Y-62138769D01*
X78102055Y-62500136D01*
X78578969Y-62595000D01*
X81550000Y-62595000D01*
X81550000Y-63661030D01*
X81550001Y-63661035D01*
X81550000Y-78578969D01*
X81517969Y-78740000D01*
X81644864Y-79377945D01*
X81939948Y-79819569D01*
X82006231Y-79918769D01*
X82547055Y-80280136D01*
X83185000Y-80407031D01*
X83346031Y-80375000D01*
X95723969Y-80375000D01*
X95885000Y-80407031D01*
X96046031Y-80375000D01*
X133511031Y-80375000D01*
X133987945Y-80280136D01*
X134051844Y-80237440D01*
X134200000Y-80237440D01*
X134447765Y-80188157D01*
X134657809Y-80047809D01*
X134733907Y-79933921D01*
X135252055Y-80280136D01*
X135728969Y-80375000D01*
X136998970Y-80375000D01*
X137160000Y-80407031D01*
X137321030Y-80375000D01*
X137321031Y-80375000D01*
X137797945Y-80280136D01*
X138338769Y-79918769D01*
X138429988Y-79782250D01*
X139281807Y-78930431D01*
X142545000Y-78930431D01*
X142545000Y-79819569D01*
X142885259Y-80641026D01*
X143513974Y-81269741D01*
X144335431Y-81610000D01*
X145224569Y-81610000D01*
X146046026Y-81269741D01*
X146674741Y-80641026D01*
X147015000Y-79819569D01*
X147015000Y-78930431D01*
X146674741Y-78108974D01*
X146046026Y-77480259D01*
X145224569Y-77140000D01*
X144335431Y-77140000D01*
X143513974Y-77480259D01*
X142885259Y-78108974D01*
X142545000Y-78930431D01*
X139281807Y-78930431D01*
X144621235Y-73591004D01*
X144891386Y-73186696D01*
X145018281Y-72548750D01*
X144891386Y-71910805D01*
X144530019Y-71369981D01*
X143989195Y-71008614D01*
X143351250Y-70881719D01*
X142713304Y-71008614D01*
X142308996Y-71278765D01*
X136482762Y-77105000D01*
X135728969Y-77105000D01*
X135252055Y-77199864D01*
X134733907Y-77546079D01*
X134657809Y-77432191D01*
X134447765Y-77291843D01*
X134200000Y-77242560D01*
X134051844Y-77242560D01*
X133987945Y-77199864D01*
X133511031Y-77105000D01*
X97520000Y-77105000D01*
X97520000Y-72739039D01*
X98538096Y-72739039D01*
X98555633Y-72821819D01*
X98825500Y-73314896D01*
X99263517Y-73667166D01*
X99803000Y-73825000D01*
X100203000Y-73825000D01*
X100203000Y-72517000D01*
X100457000Y-72517000D01*
X100457000Y-73825000D01*
X100857000Y-73825000D01*
X101396483Y-73667166D01*
X101834500Y-73314896D01*
X102104367Y-72821819D01*
X102121904Y-72739039D01*
X101999915Y-72517000D01*
X100457000Y-72517000D01*
X100203000Y-72517000D01*
X98660085Y-72517000D01*
X98538096Y-72739039D01*
X97520000Y-72739039D01*
X97520000Y-72228969D01*
X97425136Y-71752055D01*
X97063769Y-71211231D01*
X96522944Y-70849864D01*
X95885000Y-70722969D01*
X95247055Y-70849864D01*
X94706231Y-71211231D01*
X94344864Y-71752056D01*
X94250000Y-72228970D01*
X94250001Y-77105000D01*
X84820000Y-77105000D01*
X84820000Y-73511158D01*
X85165091Y-73741740D01*
X85583667Y-73825000D01*
X85866333Y-73825000D01*
X86284909Y-73741740D01*
X86759577Y-73424577D01*
X87076740Y-72949909D01*
X87188113Y-72390000D01*
X87076740Y-71830091D01*
X86759577Y-71355423D01*
X86284909Y-71038260D01*
X85866333Y-70955000D01*
X85583667Y-70955000D01*
X85165091Y-71038260D01*
X84820000Y-71268842D01*
X84820000Y-68407342D01*
X84869866Y-68462389D01*
X85375959Y-68701914D01*
X85598000Y-68580629D01*
X85598000Y-67437000D01*
X85852000Y-67437000D01*
X85852000Y-68580629D01*
X86074041Y-68701914D01*
X86580134Y-68462389D01*
X86956041Y-68047423D01*
X87116904Y-67659039D01*
X86994915Y-67437000D01*
X85852000Y-67437000D01*
X85598000Y-67437000D01*
X85578000Y-67437000D01*
X85578000Y-67183000D01*
X85598000Y-67183000D01*
X85598000Y-66039371D01*
X85852000Y-66039371D01*
X85852000Y-67183000D01*
X86994915Y-67183000D01*
X87081961Y-67024561D01*
X94450000Y-67024561D01*
X94450000Y-67595439D01*
X94668466Y-68122862D01*
X95072138Y-68526534D01*
X95599561Y-68745000D01*
X96170439Y-68745000D01*
X96697862Y-68526534D01*
X97101534Y-68122862D01*
X97320000Y-67595439D01*
X97320000Y-67310000D01*
X98466887Y-67310000D01*
X98578260Y-67869909D01*
X98895423Y-68344577D01*
X99247758Y-68580000D01*
X98895423Y-68815423D01*
X98578260Y-69290091D01*
X98466887Y-69850000D01*
X98578260Y-70409909D01*
X98895423Y-70884577D01*
X99251499Y-71122499D01*
X98825500Y-71465104D01*
X98555633Y-71958181D01*
X98538096Y-72040961D01*
X98660085Y-72263000D01*
X100203000Y-72263000D01*
X100203000Y-72243000D01*
X100457000Y-72243000D01*
X100457000Y-72263000D01*
X101999915Y-72263000D01*
X102121904Y-72040961D01*
X102104367Y-71958181D01*
X101834500Y-71465104D01*
X101408501Y-71122499D01*
X101764577Y-70884577D01*
X102081740Y-70409909D01*
X102193113Y-69850000D01*
X102081740Y-69290091D01*
X101764577Y-68815423D01*
X101412242Y-68580000D01*
X101764577Y-68344577D01*
X102081740Y-67869909D01*
X102193113Y-67310000D01*
X102081740Y-66750091D01*
X101764577Y-66275423D01*
X101643894Y-66194785D01*
X101777765Y-66168157D01*
X101987809Y-66027809D01*
X102128157Y-65817765D01*
X102177440Y-65570000D01*
X102177440Y-64770000D01*
X106086887Y-64770000D01*
X106198260Y-65329909D01*
X106515423Y-65804577D01*
X106867758Y-66040000D01*
X106515423Y-66275423D01*
X106198260Y-66750091D01*
X106086887Y-67310000D01*
X106198260Y-67869909D01*
X106515423Y-68344577D01*
X106867758Y-68580000D01*
X106515423Y-68815423D01*
X106198260Y-69290091D01*
X106086887Y-69850000D01*
X106198260Y-70409909D01*
X106515423Y-70884577D01*
X106867758Y-71120000D01*
X106515423Y-71355423D01*
X106198260Y-71830091D01*
X106086887Y-72390000D01*
X106198260Y-72949909D01*
X106515423Y-73424577D01*
X106990091Y-73741740D01*
X107408667Y-73825000D01*
X108491333Y-73825000D01*
X108909909Y-73741740D01*
X109384577Y-73424577D01*
X109701740Y-72949909D01*
X109813113Y-72390000D01*
X111566887Y-72390000D01*
X111678260Y-72949909D01*
X111995423Y-73424577D01*
X112470091Y-73741740D01*
X112888667Y-73825000D01*
X113171333Y-73825000D01*
X113589909Y-73741740D01*
X114064577Y-73424577D01*
X114381740Y-72949909D01*
X114493113Y-72390000D01*
X114436336Y-72104561D01*
X115405000Y-72104561D01*
X115405000Y-72675439D01*
X115623466Y-73202862D01*
X116027138Y-73606534D01*
X116554561Y-73825000D01*
X117125439Y-73825000D01*
X117652862Y-73606534D01*
X117730433Y-73528963D01*
X125088142Y-73528963D01*
X125157607Y-73771147D01*
X125681052Y-73957894D01*
X126236118Y-73930112D01*
X126619893Y-73771147D01*
X126689358Y-73528963D01*
X125888750Y-72728355D01*
X125088142Y-73528963D01*
X117730433Y-73528963D01*
X118056534Y-73202862D01*
X118275000Y-72675439D01*
X118275000Y-72341052D01*
X124479606Y-72341052D01*
X124507388Y-72896118D01*
X124666353Y-73279893D01*
X124908537Y-73349358D01*
X125709145Y-72548750D01*
X126068355Y-72548750D01*
X126868963Y-73349358D01*
X127111147Y-73279893D01*
X127297894Y-72756448D01*
X127270112Y-72201382D01*
X127111147Y-71817607D01*
X126868963Y-71748142D01*
X126068355Y-72548750D01*
X125709145Y-72548750D01*
X124908537Y-71748142D01*
X124666353Y-71817607D01*
X124479606Y-72341052D01*
X118275000Y-72341052D01*
X118275000Y-72104561D01*
X118056534Y-71577138D01*
X118047933Y-71568537D01*
X125088142Y-71568537D01*
X125888750Y-72369145D01*
X126689358Y-71568537D01*
X126619893Y-71326353D01*
X126096448Y-71139606D01*
X125541382Y-71167388D01*
X125157607Y-71326353D01*
X125088142Y-71568537D01*
X118047933Y-71568537D01*
X117652862Y-71173466D01*
X117125439Y-70955000D01*
X116554561Y-70955000D01*
X116027138Y-71173466D01*
X115623466Y-71577138D01*
X115405000Y-72104561D01*
X114436336Y-72104561D01*
X114381740Y-71830091D01*
X114064577Y-71355423D01*
X113589909Y-71038260D01*
X113171333Y-70955000D01*
X112888667Y-70955000D01*
X112470091Y-71038260D01*
X111995423Y-71355423D01*
X111678260Y-71830091D01*
X111566887Y-72390000D01*
X109813113Y-72390000D01*
X109701740Y-71830091D01*
X109384577Y-71355423D01*
X109032242Y-71120000D01*
X109384577Y-70884577D01*
X109701740Y-70409909D01*
X109813113Y-69850000D01*
X109701740Y-69290091D01*
X109384577Y-68815423D01*
X109032242Y-68580000D01*
X109384577Y-68344577D01*
X109701740Y-67869909D01*
X109813113Y-67310000D01*
X109701740Y-66750091D01*
X109384577Y-66275423D01*
X109032242Y-66040000D01*
X109384577Y-65804577D01*
X109701740Y-65329909D01*
X109813113Y-64770000D01*
X109701740Y-64210091D01*
X109384577Y-63735423D01*
X108909909Y-63418260D01*
X108491333Y-63335000D01*
X107408667Y-63335000D01*
X106990091Y-63418260D01*
X106515423Y-63735423D01*
X106198260Y-64210091D01*
X106086887Y-64770000D01*
X102177440Y-64770000D01*
X102177440Y-63970000D01*
X102128157Y-63722235D01*
X101987809Y-63512191D01*
X101777765Y-63371843D01*
X101530000Y-63322560D01*
X99130000Y-63322560D01*
X98882235Y-63371843D01*
X98672191Y-63512191D01*
X98531843Y-63722235D01*
X98482560Y-63970000D01*
X98482560Y-65570000D01*
X98531843Y-65817765D01*
X98672191Y-66027809D01*
X98882235Y-66168157D01*
X99016106Y-66194785D01*
X98895423Y-66275423D01*
X98578260Y-66750091D01*
X98466887Y-67310000D01*
X97320000Y-67310000D01*
X97320000Y-67024561D01*
X97101534Y-66497138D01*
X96697862Y-66093466D01*
X96170439Y-65875000D01*
X95599561Y-65875000D01*
X95072138Y-66093466D01*
X94668466Y-66497138D01*
X94450000Y-67024561D01*
X87081961Y-67024561D01*
X87116904Y-66960961D01*
X86956041Y-66572577D01*
X86580134Y-66157611D01*
X86074041Y-65918086D01*
X85852000Y-66039371D01*
X85598000Y-66039371D01*
X85375959Y-65918086D01*
X84869866Y-66157611D01*
X84820000Y-66212658D01*
X84820000Y-64624396D01*
X84912138Y-64716534D01*
X85439561Y-64935000D01*
X86010439Y-64935000D01*
X86537862Y-64716534D01*
X86941534Y-64312862D01*
X87160000Y-63785439D01*
X87160000Y-63500000D01*
X94421887Y-63500000D01*
X94533260Y-64059909D01*
X94850423Y-64534577D01*
X95325091Y-64851740D01*
X95743667Y-64935000D01*
X96026333Y-64935000D01*
X96444909Y-64851740D01*
X96919577Y-64534577D01*
X97236740Y-64059909D01*
X97348113Y-63500000D01*
X97236740Y-62940091D01*
X96919577Y-62465423D01*
X96444909Y-62148260D01*
X96026333Y-62065000D01*
X95743667Y-62065000D01*
X95325091Y-62148260D01*
X94850423Y-62465423D01*
X94533260Y-62940091D01*
X94421887Y-63500000D01*
X87160000Y-63500000D01*
X87160000Y-63214561D01*
X86941534Y-62687138D01*
X86537862Y-62283466D01*
X86010439Y-62065000D01*
X85439561Y-62065000D01*
X84912138Y-62283466D01*
X84820000Y-62375604D01*
X84820000Y-61944561D01*
X111595000Y-61944561D01*
X111595000Y-62515439D01*
X111813466Y-63042862D01*
X112217138Y-63446534D01*
X112744561Y-63665000D01*
X113315439Y-63665000D01*
X113842862Y-63446534D01*
X114246534Y-63042862D01*
X114438655Y-62579041D01*
X115448086Y-62579041D01*
X115687611Y-63085134D01*
X116102577Y-63461041D01*
X116490961Y-63621904D01*
X116713000Y-63499915D01*
X116713000Y-62357000D01*
X116967000Y-62357000D01*
X116967000Y-63499915D01*
X117189039Y-63621904D01*
X117577423Y-63461041D01*
X117992389Y-63085134D01*
X118231914Y-62579041D01*
X118110629Y-62357000D01*
X116967000Y-62357000D01*
X116713000Y-62357000D01*
X115569371Y-62357000D01*
X115448086Y-62579041D01*
X114438655Y-62579041D01*
X114465000Y-62515439D01*
X114465000Y-61944561D01*
X114438656Y-61880959D01*
X115448086Y-61880959D01*
X115569371Y-62103000D01*
X116713000Y-62103000D01*
X116713000Y-60960085D01*
X116967000Y-60960085D01*
X116967000Y-62103000D01*
X118110629Y-62103000D01*
X118231914Y-61880959D01*
X117992389Y-61374866D01*
X117577423Y-60998959D01*
X117189039Y-60838096D01*
X116967000Y-60960085D01*
X116713000Y-60960085D01*
X116490961Y-60838096D01*
X116102577Y-60998959D01*
X115687611Y-61374866D01*
X115448086Y-61880959D01*
X114438656Y-61880959D01*
X114246534Y-61417138D01*
X113842862Y-61013466D01*
X113315439Y-60795000D01*
X112744561Y-60795000D01*
X112217138Y-61013466D01*
X111813466Y-61417138D01*
X111595000Y-61944561D01*
X84820000Y-61944561D01*
X84820000Y-61121031D01*
X84852031Y-60960000D01*
X84820000Y-60798969D01*
X84820000Y-60697745D01*
X102121861Y-60697745D01*
X102195995Y-60943864D01*
X102733223Y-61136965D01*
X103303454Y-61109778D01*
X103704005Y-60943864D01*
X103778139Y-60697745D01*
X102950000Y-59869605D01*
X102121861Y-60697745D01*
X84820000Y-60697745D01*
X84820000Y-59473223D01*
X101503035Y-59473223D01*
X101530222Y-60043454D01*
X101696136Y-60444005D01*
X101942255Y-60518139D01*
X102770395Y-59690000D01*
X103129605Y-59690000D01*
X103957745Y-60518139D01*
X104203864Y-60444005D01*
X104396965Y-59906777D01*
X104373021Y-59404561D01*
X106515000Y-59404561D01*
X106515000Y-59975439D01*
X106733466Y-60502862D01*
X107137138Y-60906534D01*
X107664561Y-61125000D01*
X108235439Y-61125000D01*
X108762862Y-60906534D01*
X109166534Y-60502862D01*
X109385000Y-59975439D01*
X109385000Y-59404561D01*
X109166534Y-58877138D01*
X108762862Y-58473466D01*
X108235439Y-58255000D01*
X107664561Y-58255000D01*
X107137138Y-58473466D01*
X106733466Y-58877138D01*
X106515000Y-59404561D01*
X104373021Y-59404561D01*
X104369778Y-59336546D01*
X104203864Y-58935995D01*
X103957745Y-58861861D01*
X103129605Y-59690000D01*
X102770395Y-59690000D01*
X101942255Y-58861861D01*
X101696136Y-58935995D01*
X101503035Y-59473223D01*
X84820000Y-59473223D01*
X84820000Y-58682255D01*
X102121861Y-58682255D01*
X102950000Y-59510395D01*
X103778139Y-58682255D01*
X103704005Y-58436136D01*
X103166777Y-58243035D01*
X102596546Y-58270222D01*
X102195995Y-58436136D01*
X102121861Y-58682255D01*
X84820000Y-58682255D01*
X84820000Y-54296753D01*
X86055200Y-54296753D01*
X86055200Y-54923247D01*
X86294949Y-55502052D01*
X86737948Y-55945051D01*
X87316753Y-56184800D01*
X87943247Y-56184800D01*
X88522052Y-55945051D01*
X88900000Y-55567103D01*
X89277948Y-55945051D01*
X89856753Y-56184800D01*
X90483247Y-56184800D01*
X91062052Y-55945051D01*
X91440000Y-55567103D01*
X91817948Y-55945051D01*
X92396753Y-56184800D01*
X93023247Y-56184800D01*
X93602052Y-55945051D01*
X93980000Y-55567103D01*
X94357948Y-55945051D01*
X94936753Y-56184800D01*
X95563247Y-56184800D01*
X96142052Y-55945051D01*
X96520000Y-55567103D01*
X96897948Y-55945051D01*
X97476753Y-56184800D01*
X98103247Y-56184800D01*
X98682052Y-55945051D01*
X99060000Y-55567103D01*
X99437948Y-55945051D01*
X100016753Y-56184800D01*
X100643247Y-56184800D01*
X101222052Y-55945051D01*
X101600000Y-55567103D01*
X101977948Y-55945051D01*
X102556753Y-56184800D01*
X103183247Y-56184800D01*
X103762052Y-55945051D01*
X104140000Y-55567103D01*
X104517948Y-55945051D01*
X105096753Y-56184800D01*
X105723247Y-56184800D01*
X106302052Y-55945051D01*
X106680000Y-55567103D01*
X107057948Y-55945051D01*
X107636753Y-56184800D01*
X108263247Y-56184800D01*
X108842052Y-55945051D01*
X109220000Y-55567103D01*
X109597948Y-55945051D01*
X110176753Y-56184800D01*
X110803247Y-56184800D01*
X111382052Y-55945051D01*
X111608135Y-55718968D01*
X112100637Y-55718968D01*
X112191923Y-55979580D01*
X112779833Y-56196045D01*
X113405828Y-56171049D01*
X113868077Y-55979580D01*
X113959363Y-55718968D01*
X113030000Y-54789605D01*
X112100637Y-55718968D01*
X111608135Y-55718968D01*
X111822317Y-55504786D01*
X111921032Y-55539363D01*
X112850395Y-54610000D01*
X113209605Y-54610000D01*
X114138968Y-55539363D01*
X114237683Y-55504786D01*
X114677948Y-55945051D01*
X115256753Y-56184800D01*
X115883247Y-56184800D01*
X116462052Y-55945051D01*
X116905051Y-55502052D01*
X117144800Y-54923247D01*
X117144800Y-54601903D01*
X117217948Y-54675051D01*
X117796753Y-54914800D01*
X118423247Y-54914800D01*
X119002052Y-54675051D01*
X119445051Y-54232052D01*
X119684800Y-53653247D01*
X119684800Y-53026753D01*
X119445051Y-52447948D01*
X119067103Y-52070000D01*
X119445051Y-51692052D01*
X119684800Y-51113247D01*
X119684800Y-50486753D01*
X119445051Y-49907948D01*
X119067103Y-49530000D01*
X119445051Y-49152052D01*
X119684800Y-48573247D01*
X119684800Y-47946753D01*
X119445051Y-47367948D01*
X119067103Y-46990000D01*
X119445051Y-46612052D01*
X119684800Y-46033247D01*
X119684800Y-45406753D01*
X119445051Y-44827948D01*
X119004786Y-44387683D01*
X119039363Y-44288968D01*
X118110000Y-43359605D01*
X117180637Y-44288968D01*
X117215214Y-44387683D01*
X116774949Y-44827948D01*
X116535200Y-45406753D01*
X116535200Y-46033247D01*
X116774949Y-46612052D01*
X117152897Y-46990000D01*
X116774949Y-47367948D01*
X116535200Y-47946753D01*
X116535200Y-48573247D01*
X116774949Y-49152052D01*
X117152897Y-49530000D01*
X116774949Y-49907948D01*
X116535200Y-50486753D01*
X116535200Y-51113247D01*
X116774949Y-51692052D01*
X117152897Y-52070000D01*
X116774949Y-52447948D01*
X116535200Y-53026753D01*
X116535200Y-53348097D01*
X116462052Y-53274949D01*
X115883247Y-53035200D01*
X115256753Y-53035200D01*
X114677948Y-53274949D01*
X114237683Y-53715214D01*
X114138968Y-53680637D01*
X113209605Y-54610000D01*
X112850395Y-54610000D01*
X111921032Y-53680637D01*
X111822317Y-53715214D01*
X111608135Y-53501032D01*
X112100637Y-53501032D01*
X113030000Y-54430395D01*
X113959363Y-53501032D01*
X113868077Y-53240420D01*
X113280167Y-53023955D01*
X112654172Y-53048951D01*
X112191923Y-53240420D01*
X112100637Y-53501032D01*
X111608135Y-53501032D01*
X111382052Y-53274949D01*
X110803247Y-53035200D01*
X110176753Y-53035200D01*
X109597948Y-53274949D01*
X109220000Y-53652897D01*
X108842052Y-53274949D01*
X108263247Y-53035200D01*
X107672136Y-53035200D01*
X107699052Y-53024051D01*
X108142051Y-52581052D01*
X108381800Y-52002247D01*
X108381800Y-51375753D01*
X108142051Y-50796948D01*
X107699052Y-50353949D01*
X107120247Y-50114200D01*
X106493753Y-50114200D01*
X105914948Y-50353949D01*
X105537000Y-50731897D01*
X105159052Y-50353949D01*
X104580247Y-50114200D01*
X103953753Y-50114200D01*
X103374948Y-50353949D01*
X102931949Y-50796948D01*
X102692200Y-51375753D01*
X102692200Y-52002247D01*
X102931949Y-52581052D01*
X103374948Y-53024051D01*
X103953753Y-53263800D01*
X104544864Y-53263800D01*
X104517948Y-53274949D01*
X104140000Y-53652897D01*
X103762052Y-53274949D01*
X103183247Y-53035200D01*
X102556753Y-53035200D01*
X101977948Y-53274949D01*
X101600000Y-53652897D01*
X101222052Y-53274949D01*
X100643247Y-53035200D01*
X100016753Y-53035200D01*
X99437948Y-53274949D01*
X99060000Y-53652897D01*
X98682052Y-53274949D01*
X98103247Y-53035200D01*
X97476753Y-53035200D01*
X96897948Y-53274949D01*
X96520000Y-53652897D01*
X96142052Y-53274949D01*
X96115136Y-53263800D01*
X96706247Y-53263800D01*
X97285052Y-53024051D01*
X97728051Y-52581052D01*
X97967800Y-52002247D01*
X97967800Y-51375753D01*
X97728051Y-50796948D01*
X97285052Y-50353949D01*
X96706247Y-50114200D01*
X96079753Y-50114200D01*
X95500948Y-50353949D01*
X95123000Y-50731897D01*
X94745052Y-50353949D01*
X94166247Y-50114200D01*
X93539753Y-50114200D01*
X92960948Y-50353949D01*
X92517949Y-50796948D01*
X92278200Y-51375753D01*
X92278200Y-52002247D01*
X92517949Y-52581052D01*
X92960948Y-53024051D01*
X92987864Y-53035200D01*
X92396753Y-53035200D01*
X91817948Y-53274949D01*
X91440000Y-53652897D01*
X91062052Y-53274949D01*
X90483247Y-53035200D01*
X89856753Y-53035200D01*
X89277948Y-53274949D01*
X88900000Y-53652897D01*
X88522052Y-53274949D01*
X87943247Y-53035200D01*
X87316753Y-53035200D01*
X86737948Y-53274949D01*
X86294949Y-53717948D01*
X86055200Y-54296753D01*
X84820000Y-54296753D01*
X84820000Y-49691031D01*
X84852031Y-49530000D01*
X84725136Y-48892055D01*
X84363769Y-48351231D01*
X83822945Y-47989864D01*
X83346031Y-47895000D01*
X83185000Y-47862969D01*
X83023969Y-47895000D01*
X79921292Y-47895000D01*
X80138839Y-47569418D01*
X80254092Y-46990000D01*
X80138839Y-46410582D01*
X79810625Y-45919375D01*
X79512239Y-45720000D01*
X79810625Y-45520625D01*
X80138839Y-45029418D01*
X80254092Y-44450000D01*
X80138839Y-43870582D01*
X79810625Y-43379375D01*
X79788967Y-43364904D01*
X79949698Y-43298327D01*
X80128327Y-43119699D01*
X80206972Y-42929833D01*
X116523955Y-42929833D01*
X116548951Y-43555828D01*
X116740420Y-44018077D01*
X117001032Y-44109363D01*
X117930395Y-43180000D01*
X118289605Y-43180000D01*
X119218968Y-44109363D01*
X119479580Y-44018077D01*
X119696045Y-43430167D01*
X119671049Y-42804172D01*
X119479580Y-42341923D01*
X119218968Y-42250637D01*
X118289605Y-43180000D01*
X117930395Y-43180000D01*
X117001032Y-42250637D01*
X116740420Y-42341923D01*
X116523955Y-42929833D01*
X80206972Y-42929833D01*
X80225000Y-42886310D01*
X80225000Y-42195750D01*
X80066250Y-42037000D01*
X78867000Y-42037000D01*
X78867000Y-42057000D01*
X78613000Y-42057000D01*
X78613000Y-42037000D01*
X77413750Y-42037000D01*
X77255000Y-42195750D01*
X77255000Y-42886310D01*
X77351673Y-43119699D01*
X77530302Y-43298327D01*
X77691033Y-43364904D01*
X77669375Y-43379375D01*
X77341161Y-43870582D01*
X77225908Y-44450000D01*
X77341161Y-45029418D01*
X77669375Y-45520625D01*
X77967761Y-45720000D01*
X77669375Y-45919375D01*
X77341161Y-46410582D01*
X77225908Y-46990000D01*
X77341161Y-47569418D01*
X77669375Y-48060625D01*
X77832764Y-48169798D01*
X77561231Y-48351231D01*
X77199864Y-48892055D01*
X77072969Y-49530000D01*
X75577700Y-49530000D01*
X75577700Y-40933690D01*
X77255000Y-40933690D01*
X77255000Y-41624250D01*
X77413750Y-41783000D01*
X78613000Y-41783000D01*
X78613000Y-40583750D01*
X78867000Y-40583750D01*
X78867000Y-41783000D01*
X80066250Y-41783000D01*
X80100282Y-41748968D01*
X117180637Y-41748968D01*
X117237043Y-41910000D01*
X117180637Y-42071032D01*
X118110000Y-43000395D01*
X119039363Y-42071032D01*
X118982957Y-41910000D01*
X119039363Y-41748968D01*
X118110000Y-40819605D01*
X117180637Y-41748968D01*
X80100282Y-41748968D01*
X80225000Y-41624250D01*
X80225000Y-40933690D01*
X80128327Y-40700301D01*
X79949698Y-40521673D01*
X79716309Y-40425000D01*
X79025750Y-40425000D01*
X78867000Y-40583750D01*
X78613000Y-40583750D01*
X78454250Y-40425000D01*
X77763691Y-40425000D01*
X77530302Y-40521673D01*
X77351673Y-40700301D01*
X77255000Y-40933690D01*
X75577700Y-40933690D01*
X75577700Y-39056753D01*
X86055200Y-39056753D01*
X86055200Y-39683247D01*
X86294949Y-40262052D01*
X86737948Y-40705051D01*
X87316753Y-40944800D01*
X87943247Y-40944800D01*
X88522052Y-40705051D01*
X88900000Y-40327103D01*
X89277948Y-40705051D01*
X89856753Y-40944800D01*
X90483247Y-40944800D01*
X91062052Y-40705051D01*
X91440000Y-40327103D01*
X91817948Y-40705051D01*
X92396753Y-40944800D01*
X93023247Y-40944800D01*
X93602052Y-40705051D01*
X93980000Y-40327103D01*
X94357948Y-40705051D01*
X94936753Y-40944800D01*
X95563247Y-40944800D01*
X96142052Y-40705051D01*
X96520000Y-40327103D01*
X96897948Y-40705051D01*
X97476753Y-40944800D01*
X98103247Y-40944800D01*
X98682052Y-40705051D01*
X99060000Y-40327103D01*
X99437948Y-40705051D01*
X100016753Y-40944800D01*
X100643247Y-40944800D01*
X101222052Y-40705051D01*
X101600000Y-40327103D01*
X101977948Y-40705051D01*
X102556753Y-40944800D01*
X103183247Y-40944800D01*
X103762052Y-40705051D01*
X104140000Y-40327103D01*
X104517948Y-40705051D01*
X105096753Y-40944800D01*
X105723247Y-40944800D01*
X106302052Y-40705051D01*
X106528135Y-40478968D01*
X107020637Y-40478968D01*
X107111923Y-40739580D01*
X107699833Y-40956045D01*
X108325828Y-40931049D01*
X108788077Y-40739580D01*
X108879363Y-40478968D01*
X107950000Y-39549605D01*
X107020637Y-40478968D01*
X106528135Y-40478968D01*
X106742317Y-40264786D01*
X106841032Y-40299363D01*
X107770395Y-39370000D01*
X108129605Y-39370000D01*
X109058968Y-40299363D01*
X109157683Y-40264786D01*
X109597948Y-40705051D01*
X110176753Y-40944800D01*
X110803247Y-40944800D01*
X111382052Y-40705051D01*
X111760000Y-40327103D01*
X112137948Y-40705051D01*
X112716753Y-40944800D01*
X113343247Y-40944800D01*
X113922052Y-40705051D01*
X114300000Y-40327103D01*
X114677948Y-40705051D01*
X115256753Y-40944800D01*
X115883247Y-40944800D01*
X116462052Y-40705051D01*
X116533681Y-40633422D01*
X116548951Y-41015828D01*
X116740420Y-41478077D01*
X117001032Y-41569363D01*
X117930395Y-40640000D01*
X118289605Y-40640000D01*
X119218968Y-41569363D01*
X119479580Y-41478077D01*
X119696045Y-40890167D01*
X119671049Y-40264172D01*
X119479580Y-39801923D01*
X119218968Y-39710637D01*
X118289605Y-40640000D01*
X117930395Y-40640000D01*
X117916253Y-40625858D01*
X118095858Y-40446253D01*
X118110000Y-40460395D01*
X119039363Y-39531032D01*
X118948077Y-39270420D01*
X118360167Y-39053955D01*
X117734172Y-39078951D01*
X117271923Y-39270420D01*
X117180638Y-39531030D01*
X117144800Y-39495192D01*
X117144800Y-39056753D01*
X116905051Y-38477948D01*
X116462052Y-38034949D01*
X115883247Y-37795200D01*
X115256753Y-37795200D01*
X114677948Y-38034949D01*
X114300000Y-38412897D01*
X113922052Y-38034949D01*
X113343247Y-37795200D01*
X112716753Y-37795200D01*
X112137948Y-38034949D01*
X111760000Y-38412897D01*
X111382052Y-38034949D01*
X110803247Y-37795200D01*
X110176753Y-37795200D01*
X109597948Y-38034949D01*
X109157683Y-38475214D01*
X109058968Y-38440637D01*
X108129605Y-39370000D01*
X107770395Y-39370000D01*
X106841032Y-38440637D01*
X106742317Y-38475214D01*
X106528135Y-38261032D01*
X107020637Y-38261032D01*
X107950000Y-39190395D01*
X108879363Y-38261032D01*
X108788077Y-38000420D01*
X108200167Y-37783955D01*
X107574172Y-37808951D01*
X107111923Y-38000420D01*
X107020637Y-38261032D01*
X106528135Y-38261032D01*
X106302052Y-38034949D01*
X105723247Y-37795200D01*
X105096753Y-37795200D01*
X104517948Y-38034949D01*
X104140000Y-38412897D01*
X103762052Y-38034949D01*
X103183247Y-37795200D01*
X102556753Y-37795200D01*
X101977948Y-38034949D01*
X101600000Y-38412897D01*
X101222052Y-38034949D01*
X100643247Y-37795200D01*
X100016753Y-37795200D01*
X99437948Y-38034949D01*
X99060000Y-38412897D01*
X98682052Y-38034949D01*
X98103247Y-37795200D01*
X97476753Y-37795200D01*
X96897948Y-38034949D01*
X96520000Y-38412897D01*
X96142052Y-38034949D01*
X95563247Y-37795200D01*
X94936753Y-37795200D01*
X94357948Y-38034949D01*
X93980000Y-38412897D01*
X93602052Y-38034949D01*
X93023247Y-37795200D01*
X92396753Y-37795200D01*
X91817948Y-38034949D01*
X91440000Y-38412897D01*
X91062052Y-38034949D01*
X90483247Y-37795200D01*
X89856753Y-37795200D01*
X89277948Y-38034949D01*
X88900000Y-38412897D01*
X88522052Y-38034949D01*
X87943247Y-37795200D01*
X87316753Y-37795200D01*
X86737948Y-38034949D01*
X86294949Y-38477948D01*
X86055200Y-39056753D01*
X75577700Y-39056753D01*
X75577700Y-32670750D01*
X77205000Y-32670750D01*
X77205000Y-33411309D01*
X77301673Y-33644698D01*
X77480301Y-33823327D01*
X77615044Y-33879139D01*
X77438690Y-34055493D01*
X77205000Y-34619670D01*
X77205000Y-35230330D01*
X77438690Y-35794507D01*
X77870493Y-36226310D01*
X78434670Y-36460000D01*
X79045330Y-36460000D01*
X79609507Y-36226310D01*
X80041310Y-35794507D01*
X80275000Y-35230330D01*
X80275000Y-34639561D01*
X86195000Y-34639561D01*
X86195000Y-35210439D01*
X86413466Y-35737862D01*
X86817138Y-36141534D01*
X87344561Y-36360000D01*
X87915439Y-36360000D01*
X88442862Y-36141534D01*
X88846534Y-35737862D01*
X89065000Y-35210439D01*
X89065000Y-34925000D01*
X96326887Y-34925000D01*
X96438260Y-35484909D01*
X96755423Y-35959577D01*
X97230091Y-36276740D01*
X97648667Y-36360000D01*
X97931333Y-36360000D01*
X98349909Y-36276740D01*
X98824577Y-35959577D01*
X99141740Y-35484909D01*
X99253113Y-34925000D01*
X99196336Y-34639561D01*
X103975000Y-34639561D01*
X103975000Y-35210439D01*
X104193466Y-35737862D01*
X104597138Y-36141534D01*
X105124561Y-36360000D01*
X105695439Y-36360000D01*
X106222862Y-36141534D01*
X106626534Y-35737862D01*
X106818655Y-35274039D01*
X114178096Y-35274039D01*
X114338959Y-35662423D01*
X114714866Y-36077389D01*
X115220959Y-36316914D01*
X115443000Y-36195629D01*
X115443000Y-35052000D01*
X115697000Y-35052000D01*
X115697000Y-36195629D01*
X115919041Y-36316914D01*
X116425134Y-36077389D01*
X116801041Y-35662423D01*
X116961904Y-35274039D01*
X116839915Y-35052000D01*
X115697000Y-35052000D01*
X115443000Y-35052000D01*
X114300085Y-35052000D01*
X114178096Y-35274039D01*
X106818655Y-35274039D01*
X106845000Y-35210439D01*
X106845000Y-34639561D01*
X106818656Y-34575961D01*
X114178096Y-34575961D01*
X114300085Y-34798000D01*
X115443000Y-34798000D01*
X115443000Y-33654371D01*
X115697000Y-33654371D01*
X115697000Y-34798000D01*
X116839915Y-34798000D01*
X116961904Y-34575961D01*
X116801041Y-34187577D01*
X116487506Y-33841463D01*
X125088142Y-33841463D01*
X125157607Y-34083647D01*
X125681052Y-34270394D01*
X126236118Y-34242612D01*
X126619893Y-34083647D01*
X126689358Y-33841463D01*
X125888750Y-33040855D01*
X125088142Y-33841463D01*
X116487506Y-33841463D01*
X116425134Y-33772611D01*
X115919041Y-33533086D01*
X115697000Y-33654371D01*
X115443000Y-33654371D01*
X115220959Y-33533086D01*
X114714866Y-33772611D01*
X114338959Y-34187577D01*
X114178096Y-34575961D01*
X106818656Y-34575961D01*
X106626534Y-34112138D01*
X106222862Y-33708466D01*
X105695439Y-33490000D01*
X105124561Y-33490000D01*
X104597138Y-33708466D01*
X104193466Y-34112138D01*
X103975000Y-34639561D01*
X99196336Y-34639561D01*
X99141740Y-34365091D01*
X98824577Y-33890423D01*
X98349909Y-33573260D01*
X97931333Y-33490000D01*
X97648667Y-33490000D01*
X97230091Y-33573260D01*
X96755423Y-33890423D01*
X96438260Y-34365091D01*
X96326887Y-34925000D01*
X89065000Y-34925000D01*
X89065000Y-34639561D01*
X88846534Y-34112138D01*
X88442862Y-33708466D01*
X87915439Y-33490000D01*
X87344561Y-33490000D01*
X86817138Y-33708466D01*
X86413466Y-34112138D01*
X86195000Y-34639561D01*
X80275000Y-34639561D01*
X80275000Y-34619670D01*
X80041310Y-34055493D01*
X79864956Y-33879139D01*
X79999699Y-33823327D01*
X80178327Y-33644698D01*
X80275000Y-33411309D01*
X80275000Y-32670750D01*
X80257802Y-32653552D01*
X124479606Y-32653552D01*
X124507388Y-33208618D01*
X124666353Y-33592393D01*
X124908537Y-33661858D01*
X125709145Y-32861250D01*
X126068355Y-32861250D01*
X126868963Y-33661858D01*
X127111147Y-33592393D01*
X127297894Y-33068948D01*
X127273590Y-32583369D01*
X141954250Y-32583369D01*
X141954250Y-33139131D01*
X142166930Y-33652587D01*
X142559913Y-34045570D01*
X143073369Y-34258250D01*
X143629131Y-34258250D01*
X144142587Y-34045570D01*
X144535570Y-33652587D01*
X144748250Y-33139131D01*
X144748250Y-32583369D01*
X144535570Y-32069913D01*
X144142587Y-31676930D01*
X143629131Y-31464250D01*
X143073369Y-31464250D01*
X142559913Y-31676930D01*
X142166930Y-32069913D01*
X141954250Y-32583369D01*
X127273590Y-32583369D01*
X127270112Y-32513882D01*
X127111147Y-32130107D01*
X126868963Y-32060642D01*
X126068355Y-32861250D01*
X125709145Y-32861250D01*
X124908537Y-32060642D01*
X124666353Y-32130107D01*
X124479606Y-32653552D01*
X80257802Y-32653552D01*
X80116250Y-32512000D01*
X78867000Y-32512000D01*
X78867000Y-32532000D01*
X78613000Y-32532000D01*
X78613000Y-32512000D01*
X77363750Y-32512000D01*
X77205000Y-32670750D01*
X75577700Y-32670750D01*
X75577700Y-31358691D01*
X77205000Y-31358691D01*
X77205000Y-32099250D01*
X77363750Y-32258000D01*
X78613000Y-32258000D01*
X78613000Y-31008750D01*
X78867000Y-31008750D01*
X78867000Y-32258000D01*
X80116250Y-32258000D01*
X80275000Y-32099250D01*
X80275000Y-31881037D01*
X125088142Y-31881037D01*
X125888750Y-32681645D01*
X126689358Y-31881037D01*
X126619893Y-31638853D01*
X126096448Y-31452106D01*
X125541382Y-31479888D01*
X125157607Y-31638853D01*
X125088142Y-31881037D01*
X80275000Y-31881037D01*
X80275000Y-31358691D01*
X80178327Y-31125302D01*
X79999699Y-30946673D01*
X79766310Y-30850000D01*
X79025750Y-30850000D01*
X78867000Y-31008750D01*
X78613000Y-31008750D01*
X78454250Y-30850000D01*
X77713690Y-30850000D01*
X77480301Y-30946673D01*
X77301673Y-31125302D01*
X77205000Y-31358691D01*
X75577700Y-31358691D01*
X75577700Y-24955431D01*
X76505000Y-24955431D01*
X76505000Y-25844569D01*
X76845259Y-26666026D01*
X77473974Y-27294741D01*
X78295431Y-27635000D01*
X79184569Y-27635000D01*
X79981258Y-27305000D01*
X86318276Y-27305000D01*
X86503380Y-28235580D01*
X87030511Y-29024489D01*
X87819420Y-29551620D01*
X88515103Y-29690000D01*
X88984897Y-29690000D01*
X89680580Y-29551620D01*
X90469489Y-29024489D01*
X90996620Y-28235580D01*
X91181724Y-27305000D01*
X103743900Y-27305000D01*
X103867109Y-27924411D01*
X104129088Y-28316491D01*
X103952191Y-28434691D01*
X103811843Y-28644735D01*
X103762560Y-28892500D01*
X103762560Y-30797500D01*
X103811843Y-31045265D01*
X103952191Y-31255309D01*
X104162235Y-31395657D01*
X104410000Y-31444940D01*
X106410000Y-31444940D01*
X106657765Y-31395657D01*
X106867809Y-31255309D01*
X107008157Y-31045265D01*
X107057440Y-30797500D01*
X107057440Y-28892500D01*
X107028101Y-28745000D01*
X108742560Y-28745000D01*
X108742560Y-30945000D01*
X108791843Y-31192765D01*
X108932191Y-31402809D01*
X109142235Y-31543157D01*
X109390000Y-31592440D01*
X111590000Y-31592440D01*
X111837765Y-31543157D01*
X112047809Y-31402809D01*
X112188157Y-31192765D01*
X112237440Y-30945000D01*
X112237440Y-29845000D01*
X116341010Y-29845000D01*
X116475666Y-30521963D01*
X116859135Y-31095865D01*
X117433037Y-31479334D01*
X117939120Y-31580000D01*
X118280880Y-31580000D01*
X118786963Y-31479334D01*
X119360865Y-31095865D01*
X119744334Y-30521963D01*
X119878990Y-29845000D01*
X119744334Y-29168037D01*
X119360865Y-28594135D01*
X118786963Y-28210666D01*
X118280880Y-28110000D01*
X117939120Y-28110000D01*
X117433037Y-28210666D01*
X116859135Y-28594135D01*
X116475666Y-29168037D01*
X116341010Y-29845000D01*
X112237440Y-29845000D01*
X112237440Y-28745000D01*
X112188157Y-28497235D01*
X112047809Y-28287191D01*
X111837765Y-28146843D01*
X111590000Y-28097560D01*
X109390000Y-28097560D01*
X109142235Y-28146843D01*
X108932191Y-28287191D01*
X108791843Y-28497235D01*
X108742560Y-28745000D01*
X107028101Y-28745000D01*
X107008157Y-28644735D01*
X106867809Y-28434691D01*
X106690912Y-28316491D01*
X106952891Y-27924411D01*
X107076100Y-27305000D01*
X106952891Y-26685589D01*
X106602023Y-26160477D01*
X106400526Y-26025841D01*
X106785973Y-25631924D01*
X107000563Y-25137980D01*
X106880594Y-24892000D01*
X105537000Y-24892000D01*
X105537000Y-24912000D01*
X105283000Y-24912000D01*
X105283000Y-24892000D01*
X103939406Y-24892000D01*
X103819437Y-25137980D01*
X104034027Y-25631924D01*
X104419474Y-26025841D01*
X104217977Y-26160477D01*
X103867109Y-26685589D01*
X103743900Y-27305000D01*
X91181724Y-27305000D01*
X90996620Y-26374420D01*
X90469489Y-25585511D01*
X89680580Y-25058380D01*
X88984897Y-24920000D01*
X88515103Y-24920000D01*
X87819420Y-25058380D01*
X87030511Y-25585511D01*
X86503380Y-26374420D01*
X86318276Y-27305000D01*
X79981258Y-27305000D01*
X80006026Y-27294741D01*
X80634741Y-26666026D01*
X80975000Y-25844569D01*
X80975000Y-24955431D01*
X80741628Y-24392020D01*
X103819437Y-24392020D01*
X103939406Y-24638000D01*
X105283000Y-24638000D01*
X105283000Y-23339428D01*
X105537000Y-23339428D01*
X105537000Y-24638000D01*
X106880594Y-24638000D01*
X106923513Y-24550000D01*
X111532560Y-24550000D01*
X111532560Y-26250000D01*
X111581843Y-26497765D01*
X111722191Y-26707809D01*
X111932235Y-26848157D01*
X112180000Y-26897440D01*
X113880000Y-26897440D01*
X114127765Y-26848157D01*
X114337809Y-26707809D01*
X114478157Y-26497765D01*
X114487184Y-26452381D01*
X114499375Y-26470625D01*
X114990582Y-26798839D01*
X115423744Y-26885000D01*
X115716256Y-26885000D01*
X116149418Y-26798839D01*
X116640625Y-26470625D01*
X116968839Y-25979418D01*
X117027252Y-25685750D01*
X129960000Y-25685750D01*
X129960000Y-26376309D01*
X130056673Y-26609698D01*
X130235301Y-26788327D01*
X130468690Y-26885000D01*
X131159250Y-26885000D01*
X131318000Y-26726250D01*
X131318000Y-25527000D01*
X130118750Y-25527000D01*
X129960000Y-25685750D01*
X117027252Y-25685750D01*
X117084092Y-25400000D01*
X116968839Y-24820582D01*
X116703645Y-24423691D01*
X129960000Y-24423691D01*
X129960000Y-25114250D01*
X130118750Y-25273000D01*
X131318000Y-25273000D01*
X131318000Y-24073750D01*
X131572000Y-24073750D01*
X131572000Y-25273000D01*
X131592000Y-25273000D01*
X131592000Y-25527000D01*
X131572000Y-25527000D01*
X131572000Y-26726250D01*
X131730750Y-26885000D01*
X132421310Y-26885000D01*
X132654699Y-26788327D01*
X132833327Y-26609698D01*
X132899904Y-26448967D01*
X132914375Y-26470625D01*
X133405582Y-26798839D01*
X133838744Y-26885000D01*
X134131256Y-26885000D01*
X134564418Y-26798839D01*
X135055625Y-26470625D01*
X135383839Y-25979418D01*
X135499092Y-25400000D01*
X135410663Y-24955431D01*
X142545000Y-24955431D01*
X142545000Y-25844569D01*
X142885259Y-26666026D01*
X143513974Y-27294741D01*
X144335431Y-27635000D01*
X145224569Y-27635000D01*
X146046026Y-27294741D01*
X146674741Y-26666026D01*
X147015000Y-25844569D01*
X147015000Y-24955431D01*
X146674741Y-24133974D01*
X146046026Y-23505259D01*
X145224569Y-23165000D01*
X144335431Y-23165000D01*
X143513974Y-23505259D01*
X142885259Y-24133974D01*
X142545000Y-24955431D01*
X135410663Y-24955431D01*
X135383839Y-24820582D01*
X135055625Y-24329375D01*
X134564418Y-24001161D01*
X134131256Y-23915000D01*
X133838744Y-23915000D01*
X133405582Y-24001161D01*
X132914375Y-24329375D01*
X132899904Y-24351033D01*
X132833327Y-24190302D01*
X132654699Y-24011673D01*
X132421310Y-23915000D01*
X131730750Y-23915000D01*
X131572000Y-24073750D01*
X131318000Y-24073750D01*
X131159250Y-23915000D01*
X130468690Y-23915000D01*
X130235301Y-24011673D01*
X130056673Y-24190302D01*
X129960000Y-24423691D01*
X116703645Y-24423691D01*
X116640625Y-24329375D01*
X116149418Y-24001161D01*
X115716256Y-23915000D01*
X115423744Y-23915000D01*
X114990582Y-24001161D01*
X114499375Y-24329375D01*
X114487184Y-24347619D01*
X114478157Y-24302235D01*
X114337809Y-24092191D01*
X114127765Y-23951843D01*
X113880000Y-23902560D01*
X112180000Y-23902560D01*
X111932235Y-23951843D01*
X111722191Y-24092191D01*
X111581843Y-24302235D01*
X111532560Y-24550000D01*
X106923513Y-24550000D01*
X107000563Y-24392020D01*
X106785973Y-23898076D01*
X106353091Y-23455682D01*
X105783864Y-23212620D01*
X105537000Y-23339428D01*
X105283000Y-23339428D01*
X105036136Y-23212620D01*
X104466909Y-23455682D01*
X104034027Y-23898076D01*
X103819437Y-24392020D01*
X80741628Y-24392020D01*
X80634741Y-24133974D01*
X80006026Y-23505259D01*
X79184569Y-23165000D01*
X78295431Y-23165000D01*
X77473974Y-23505259D01*
X76845259Y-24133974D01*
X76505000Y-24955431D01*
X75577700Y-24955431D01*
X75577700Y-22237700D01*
X148577300Y-22237700D01*
X148577301Y-82537300D01*
G04 #@! TD*
M02*
