G04 #@! TF.GenerationSoftware,KiCad,Pcbnew,(5.0.2-5)-5*
G04 #@! TF.CreationDate,2022-02-20T19:00:33+00:00*
G04 #@! TF.ProjectId,soldering_iron,736f6c64-6572-4696-9e67-5f69726f6e2e,rev?*
G04 #@! TF.SameCoordinates,Original*
G04 #@! TF.FileFunction,Soldermask,Top*
G04 #@! TF.FilePolarity,Negative*
%FSLAX46Y46*%
G04 Gerber Fmt 4.6, Leading zero omitted, Abs format (unit mm)*
G04 Created by KiCad (PCBNEW (5.0.2-5)-5) date Sunday, 20 February 2022 at 19:00:33*
%MOMM*%
%LPD*%
G01*
G04 APERTURE LIST*
%ADD10C,0.100000*%
G04 APERTURE END LIST*
D10*
G36*
X145155256Y-77766298D02*
X145261579Y-77787447D01*
X145562042Y-77911903D01*
X145828852Y-78090180D01*
X145832454Y-78092587D01*
X146062413Y-78322546D01*
X146062415Y-78322549D01*
X146243097Y-78592958D01*
X146367553Y-78893421D01*
X146372169Y-78916627D01*
X146431000Y-79212389D01*
X146431000Y-79537611D01*
X146367553Y-79856578D01*
X146243098Y-80157040D01*
X146062413Y-80427454D01*
X145832454Y-80657413D01*
X145832451Y-80657415D01*
X145562042Y-80838097D01*
X145261579Y-80962553D01*
X145155256Y-80983702D01*
X144942611Y-81026000D01*
X144617389Y-81026000D01*
X144404744Y-80983702D01*
X144298421Y-80962553D01*
X143997958Y-80838097D01*
X143727549Y-80657415D01*
X143727546Y-80657413D01*
X143497587Y-80427454D01*
X143316902Y-80157040D01*
X143192447Y-79856578D01*
X143129000Y-79537611D01*
X143129000Y-79212389D01*
X143187831Y-78916627D01*
X143192447Y-78893421D01*
X143316903Y-78592958D01*
X143497585Y-78322549D01*
X143497587Y-78322546D01*
X143727546Y-78092587D01*
X143731148Y-78090180D01*
X143997958Y-77911903D01*
X144298421Y-77787447D01*
X144404744Y-77766298D01*
X144617389Y-77724000D01*
X144942611Y-77724000D01*
X145155256Y-77766298D01*
X145155256Y-77766298D01*
G37*
G36*
X79115256Y-77766298D02*
X79221579Y-77787447D01*
X79522042Y-77911903D01*
X79788852Y-78090180D01*
X79792454Y-78092587D01*
X80022413Y-78322546D01*
X80022415Y-78322549D01*
X80203097Y-78592958D01*
X80327553Y-78893421D01*
X80332169Y-78916627D01*
X80391000Y-79212389D01*
X80391000Y-79537611D01*
X80327553Y-79856578D01*
X80203098Y-80157040D01*
X80022413Y-80427454D01*
X79792454Y-80657413D01*
X79792451Y-80657415D01*
X79522042Y-80838097D01*
X79221579Y-80962553D01*
X79115256Y-80983702D01*
X78902611Y-81026000D01*
X78577389Y-81026000D01*
X78364744Y-80983702D01*
X78258421Y-80962553D01*
X77957958Y-80838097D01*
X77687549Y-80657415D01*
X77687546Y-80657413D01*
X77457587Y-80427454D01*
X77276902Y-80157040D01*
X77152447Y-79856578D01*
X77089000Y-79537611D01*
X77089000Y-79212389D01*
X77147831Y-78916627D01*
X77152447Y-78893421D01*
X77276903Y-78592958D01*
X77457585Y-78322549D01*
X77457587Y-78322546D01*
X77687546Y-78092587D01*
X77691148Y-78090180D01*
X77957958Y-77911903D01*
X78258421Y-77787447D01*
X78364744Y-77766298D01*
X78577389Y-77724000D01*
X78902611Y-77724000D01*
X79115256Y-77766298D01*
X79115256Y-77766298D01*
G37*
G36*
X136000443Y-77845519D02*
X136066627Y-77852037D01*
X136179853Y-77886384D01*
X136236467Y-77903557D01*
X136375087Y-77977652D01*
X136392991Y-77987222D01*
X136428729Y-78016552D01*
X136530186Y-78099814D01*
X136613448Y-78201271D01*
X136642778Y-78237009D01*
X136642779Y-78237011D01*
X136726443Y-78393533D01*
X136726443Y-78393534D01*
X136777963Y-78563373D01*
X136795359Y-78740000D01*
X136777963Y-78916627D01*
X136743616Y-79029853D01*
X136726443Y-79086467D01*
X136659135Y-79212389D01*
X136642778Y-79242991D01*
X136613448Y-79278729D01*
X136530186Y-79380186D01*
X136428729Y-79463448D01*
X136392991Y-79492778D01*
X136392989Y-79492779D01*
X136236467Y-79576443D01*
X136179853Y-79593616D01*
X136066627Y-79627963D01*
X136000442Y-79634482D01*
X135934260Y-79641000D01*
X135845740Y-79641000D01*
X135779558Y-79634482D01*
X135713373Y-79627963D01*
X135600147Y-79593616D01*
X135543533Y-79576443D01*
X135387011Y-79492779D01*
X135387009Y-79492778D01*
X135351271Y-79463448D01*
X135249814Y-79380186D01*
X135166552Y-79278729D01*
X135137222Y-79242991D01*
X135120865Y-79212389D01*
X135053557Y-79086467D01*
X135036384Y-79029853D01*
X135002037Y-78916627D01*
X134984641Y-78740000D01*
X135002037Y-78563373D01*
X135053557Y-78393534D01*
X135053557Y-78393533D01*
X135137221Y-78237011D01*
X135137222Y-78237009D01*
X135166552Y-78201271D01*
X135249814Y-78099814D01*
X135351271Y-78016552D01*
X135387009Y-77987222D01*
X135404913Y-77977652D01*
X135543533Y-77903557D01*
X135600147Y-77886384D01*
X135713373Y-77852037D01*
X135779557Y-77845519D01*
X135845740Y-77839000D01*
X135934260Y-77839000D01*
X136000443Y-77845519D01*
X136000443Y-77845519D01*
G37*
G36*
X134251000Y-79641000D02*
X132449000Y-79641000D01*
X132449000Y-77839000D01*
X134251000Y-77839000D01*
X134251000Y-79641000D01*
X134251000Y-79641000D01*
G37*
G36*
X143588392Y-71766992D02*
X143736352Y-71828280D01*
X143765145Y-71847519D01*
X143869507Y-71917251D01*
X143982749Y-72030493D01*
X144026933Y-72096620D01*
X144071720Y-72163648D01*
X144133008Y-72311608D01*
X144164250Y-72468675D01*
X144164250Y-72628825D01*
X144133008Y-72785892D01*
X144071720Y-72933852D01*
X143982748Y-73067008D01*
X143869508Y-73180248D01*
X143736352Y-73269220D01*
X143588392Y-73330508D01*
X143431325Y-73361750D01*
X143271175Y-73361750D01*
X143114108Y-73330508D01*
X142966148Y-73269220D01*
X142832992Y-73180248D01*
X142719752Y-73067008D01*
X142630780Y-72933852D01*
X142569492Y-72785892D01*
X142538250Y-72628825D01*
X142538250Y-72468675D01*
X142569492Y-72311608D01*
X142630780Y-72163648D01*
X142675567Y-72096620D01*
X142719751Y-72030493D01*
X142832993Y-71917251D01*
X142937355Y-71847519D01*
X142966148Y-71828280D01*
X143114108Y-71766992D01*
X143271175Y-71735750D01*
X143431325Y-71735750D01*
X143588392Y-71766992D01*
X143588392Y-71766992D01*
G37*
G36*
X126125892Y-71766992D02*
X126273852Y-71828280D01*
X126302645Y-71847519D01*
X126407007Y-71917251D01*
X126520249Y-72030493D01*
X126564433Y-72096620D01*
X126609220Y-72163648D01*
X126670508Y-72311608D01*
X126701750Y-72468675D01*
X126701750Y-72628825D01*
X126670508Y-72785892D01*
X126609220Y-72933852D01*
X126520248Y-73067008D01*
X126407008Y-73180248D01*
X126273852Y-73269220D01*
X126125892Y-73330508D01*
X125968825Y-73361750D01*
X125808675Y-73361750D01*
X125651608Y-73330508D01*
X125503648Y-73269220D01*
X125370492Y-73180248D01*
X125257252Y-73067008D01*
X125168280Y-72933852D01*
X125106992Y-72785892D01*
X125075750Y-72628825D01*
X125075750Y-72468675D01*
X125106992Y-72311608D01*
X125168280Y-72163648D01*
X125213067Y-72096620D01*
X125257251Y-72030493D01*
X125370493Y-71917251D01*
X125474855Y-71847519D01*
X125503648Y-71828280D01*
X125651608Y-71766992D01*
X125808675Y-71735750D01*
X125968825Y-71735750D01*
X126125892Y-71766992D01*
X126125892Y-71766992D01*
G37*
G36*
X78850443Y-71495519D02*
X78916627Y-71502037D01*
X79029853Y-71536384D01*
X79086467Y-71553557D01*
X79173311Y-71599977D01*
X79242991Y-71637222D01*
X79278729Y-71666552D01*
X79380186Y-71749814D01*
X79444580Y-71828280D01*
X79492778Y-71887009D01*
X79492779Y-71887011D01*
X79576443Y-72043533D01*
X79593616Y-72100147D01*
X79627963Y-72213373D01*
X79645359Y-72390000D01*
X79627963Y-72566627D01*
X79609096Y-72628824D01*
X79576443Y-72736467D01*
X79507698Y-72865078D01*
X79492778Y-72892991D01*
X79463448Y-72928729D01*
X79380186Y-73030186D01*
X79278729Y-73113448D01*
X79242991Y-73142778D01*
X79242989Y-73142779D01*
X79086467Y-73226443D01*
X79079069Y-73228687D01*
X78916627Y-73277963D01*
X78850443Y-73284481D01*
X78784260Y-73291000D01*
X78695740Y-73291000D01*
X78629557Y-73284481D01*
X78563373Y-73277963D01*
X78400931Y-73228687D01*
X78393533Y-73226443D01*
X78237011Y-73142779D01*
X78237009Y-73142778D01*
X78201271Y-73113448D01*
X78099814Y-73030186D01*
X78016552Y-72928729D01*
X77987222Y-72892991D01*
X77972302Y-72865078D01*
X77903557Y-72736467D01*
X77870904Y-72628824D01*
X77852037Y-72566627D01*
X77834641Y-72390000D01*
X77852037Y-72213373D01*
X77886384Y-72100147D01*
X77903557Y-72043533D01*
X77987221Y-71887011D01*
X77987222Y-71887009D01*
X78035420Y-71828280D01*
X78099814Y-71749814D01*
X78201271Y-71666552D01*
X78237009Y-71637222D01*
X78306689Y-71599977D01*
X78393533Y-71553557D01*
X78450147Y-71536384D01*
X78563373Y-71502037D01*
X78629557Y-71495519D01*
X78695740Y-71489000D01*
X78784260Y-71489000D01*
X78850443Y-71495519D01*
X78850443Y-71495519D01*
G37*
G36*
X108516821Y-71551313D02*
X108516824Y-71551314D01*
X108516825Y-71551314D01*
X108677239Y-71599975D01*
X108677241Y-71599976D01*
X108677244Y-71599977D01*
X108825078Y-71678995D01*
X108954659Y-71785341D01*
X109061005Y-71914922D01*
X109140023Y-72062756D01*
X109140024Y-72062759D01*
X109140025Y-72062761D01*
X109185713Y-72213375D01*
X109188687Y-72223179D01*
X109205117Y-72390000D01*
X109188687Y-72556821D01*
X109188686Y-72556824D01*
X109188686Y-72556825D01*
X109163993Y-72638228D01*
X109140023Y-72717244D01*
X109061005Y-72865078D01*
X108954659Y-72994659D01*
X108825078Y-73101005D01*
X108677244Y-73180023D01*
X108677241Y-73180024D01*
X108677239Y-73180025D01*
X108516825Y-73228686D01*
X108516824Y-73228686D01*
X108516821Y-73228687D01*
X108391804Y-73241000D01*
X107508196Y-73241000D01*
X107383179Y-73228687D01*
X107383176Y-73228686D01*
X107383175Y-73228686D01*
X107222761Y-73180025D01*
X107222759Y-73180024D01*
X107222756Y-73180023D01*
X107074922Y-73101005D01*
X106945341Y-72994659D01*
X106838995Y-72865078D01*
X106759977Y-72717244D01*
X106736008Y-72638228D01*
X106711314Y-72556825D01*
X106711314Y-72556824D01*
X106711313Y-72556821D01*
X106694883Y-72390000D01*
X106711313Y-72223179D01*
X106714287Y-72213375D01*
X106759975Y-72062761D01*
X106759976Y-72062759D01*
X106759977Y-72062756D01*
X106838995Y-71914922D01*
X106945341Y-71785341D01*
X107074922Y-71678995D01*
X107222756Y-71599977D01*
X107222759Y-71599976D01*
X107222761Y-71599975D01*
X107383175Y-71551314D01*
X107383176Y-71551314D01*
X107383179Y-71551313D01*
X107508196Y-71539000D01*
X108391804Y-71539000D01*
X108516821Y-71551313D01*
X108516821Y-71551313D01*
G37*
G36*
X100896821Y-71551313D02*
X100896824Y-71551314D01*
X100896825Y-71551314D01*
X101057239Y-71599975D01*
X101057241Y-71599976D01*
X101057244Y-71599977D01*
X101205078Y-71678995D01*
X101334659Y-71785341D01*
X101441005Y-71914922D01*
X101520023Y-72062756D01*
X101520024Y-72062759D01*
X101520025Y-72062761D01*
X101565713Y-72213375D01*
X101568687Y-72223179D01*
X101585117Y-72390000D01*
X101568687Y-72556821D01*
X101568686Y-72556824D01*
X101568686Y-72556825D01*
X101543993Y-72638228D01*
X101520023Y-72717244D01*
X101441005Y-72865078D01*
X101334659Y-72994659D01*
X101205078Y-73101005D01*
X101057244Y-73180023D01*
X101057241Y-73180024D01*
X101057239Y-73180025D01*
X100896825Y-73228686D01*
X100896824Y-73228686D01*
X100896821Y-73228687D01*
X100771804Y-73241000D01*
X99888196Y-73241000D01*
X99763179Y-73228687D01*
X99763176Y-73228686D01*
X99763175Y-73228686D01*
X99602761Y-73180025D01*
X99602759Y-73180024D01*
X99602756Y-73180023D01*
X99454922Y-73101005D01*
X99325341Y-72994659D01*
X99218995Y-72865078D01*
X99139977Y-72717244D01*
X99116008Y-72638228D01*
X99091314Y-72556825D01*
X99091314Y-72556824D01*
X99091313Y-72556821D01*
X99074883Y-72390000D01*
X99091313Y-72223179D01*
X99094287Y-72213375D01*
X99139975Y-72062761D01*
X99139976Y-72062759D01*
X99139977Y-72062756D01*
X99218995Y-71914922D01*
X99325341Y-71785341D01*
X99454922Y-71678995D01*
X99602756Y-71599977D01*
X99602759Y-71599976D01*
X99602761Y-71599975D01*
X99763175Y-71551314D01*
X99763176Y-71551314D01*
X99763179Y-71551313D01*
X99888196Y-71539000D01*
X100771804Y-71539000D01*
X100896821Y-71551313D01*
X100896821Y-71551313D01*
G37*
G36*
X96133228Y-71571703D02*
X96288100Y-71635853D01*
X96427481Y-71728985D01*
X96546015Y-71847519D01*
X96639147Y-71986900D01*
X96703297Y-72141772D01*
X96736000Y-72306184D01*
X96736000Y-72473816D01*
X96703297Y-72638228D01*
X96639147Y-72793100D01*
X96546015Y-72932481D01*
X96427481Y-73051015D01*
X96288100Y-73144147D01*
X96133228Y-73208297D01*
X95968816Y-73241000D01*
X95801184Y-73241000D01*
X95636772Y-73208297D01*
X95481900Y-73144147D01*
X95342519Y-73051015D01*
X95223985Y-72932481D01*
X95130853Y-72793100D01*
X95066703Y-72638228D01*
X95034000Y-72473816D01*
X95034000Y-72306184D01*
X95066703Y-72141772D01*
X95130853Y-71986900D01*
X95223985Y-71847519D01*
X95342519Y-71728985D01*
X95481900Y-71635853D01*
X95636772Y-71571703D01*
X95801184Y-71539000D01*
X95968816Y-71539000D01*
X96133228Y-71571703D01*
X96133228Y-71571703D01*
G37*
G36*
X85891821Y-71551313D02*
X85891824Y-71551314D01*
X85891825Y-71551314D01*
X86052239Y-71599975D01*
X86052241Y-71599976D01*
X86052244Y-71599977D01*
X86200078Y-71678995D01*
X86329659Y-71785341D01*
X86436005Y-71914922D01*
X86515023Y-72062756D01*
X86515024Y-72062759D01*
X86515025Y-72062761D01*
X86560713Y-72213375D01*
X86563687Y-72223179D01*
X86580117Y-72390000D01*
X86563687Y-72556821D01*
X86563686Y-72556824D01*
X86563686Y-72556825D01*
X86538993Y-72638228D01*
X86515023Y-72717244D01*
X86436005Y-72865078D01*
X86329659Y-72994659D01*
X86200078Y-73101005D01*
X86052244Y-73180023D01*
X86052241Y-73180024D01*
X86052239Y-73180025D01*
X85891825Y-73228686D01*
X85891824Y-73228686D01*
X85891821Y-73228687D01*
X85766804Y-73241000D01*
X85683196Y-73241000D01*
X85558179Y-73228687D01*
X85558176Y-73228686D01*
X85558175Y-73228686D01*
X85397761Y-73180025D01*
X85397759Y-73180024D01*
X85397756Y-73180023D01*
X85249922Y-73101005D01*
X85120341Y-72994659D01*
X85013995Y-72865078D01*
X84934977Y-72717244D01*
X84911008Y-72638228D01*
X84886314Y-72556825D01*
X84886314Y-72556824D01*
X84886313Y-72556821D01*
X84869883Y-72390000D01*
X84886313Y-72223179D01*
X84889287Y-72213375D01*
X84934975Y-72062761D01*
X84934976Y-72062759D01*
X84934977Y-72062756D01*
X85013995Y-71914922D01*
X85120341Y-71785341D01*
X85249922Y-71678995D01*
X85397756Y-71599977D01*
X85397759Y-71599976D01*
X85397761Y-71599975D01*
X85558175Y-71551314D01*
X85558176Y-71551314D01*
X85558179Y-71551313D01*
X85683196Y-71539000D01*
X85766804Y-71539000D01*
X85891821Y-71551313D01*
X85891821Y-71551313D01*
G37*
G36*
X117088228Y-71571703D02*
X117243100Y-71635853D01*
X117382481Y-71728985D01*
X117501015Y-71847519D01*
X117594147Y-71986900D01*
X117658297Y-72141772D01*
X117691000Y-72306184D01*
X117691000Y-72473816D01*
X117658297Y-72638228D01*
X117594147Y-72793100D01*
X117501015Y-72932481D01*
X117382481Y-73051015D01*
X117243100Y-73144147D01*
X117088228Y-73208297D01*
X116923816Y-73241000D01*
X116756184Y-73241000D01*
X116591772Y-73208297D01*
X116436900Y-73144147D01*
X116297519Y-73051015D01*
X116178985Y-72932481D01*
X116085853Y-72793100D01*
X116021703Y-72638228D01*
X115989000Y-72473816D01*
X115989000Y-72306184D01*
X116021703Y-72141772D01*
X116085853Y-71986900D01*
X116178985Y-71847519D01*
X116297519Y-71728985D01*
X116436900Y-71635853D01*
X116591772Y-71571703D01*
X116756184Y-71539000D01*
X116923816Y-71539000D01*
X117088228Y-71571703D01*
X117088228Y-71571703D01*
G37*
G36*
X113196821Y-71551313D02*
X113196824Y-71551314D01*
X113196825Y-71551314D01*
X113357239Y-71599975D01*
X113357241Y-71599976D01*
X113357244Y-71599977D01*
X113505078Y-71678995D01*
X113634659Y-71785341D01*
X113741005Y-71914922D01*
X113820023Y-72062756D01*
X113820024Y-72062759D01*
X113820025Y-72062761D01*
X113865713Y-72213375D01*
X113868687Y-72223179D01*
X113885117Y-72390000D01*
X113868687Y-72556821D01*
X113868686Y-72556824D01*
X113868686Y-72556825D01*
X113843993Y-72638228D01*
X113820023Y-72717244D01*
X113741005Y-72865078D01*
X113634659Y-72994659D01*
X113505078Y-73101005D01*
X113357244Y-73180023D01*
X113357241Y-73180024D01*
X113357239Y-73180025D01*
X113196825Y-73228686D01*
X113196824Y-73228686D01*
X113196821Y-73228687D01*
X113071804Y-73241000D01*
X112988196Y-73241000D01*
X112863179Y-73228687D01*
X112863176Y-73228686D01*
X112863175Y-73228686D01*
X112702761Y-73180025D01*
X112702759Y-73180024D01*
X112702756Y-73180023D01*
X112554922Y-73101005D01*
X112425341Y-72994659D01*
X112318995Y-72865078D01*
X112239977Y-72717244D01*
X112216008Y-72638228D01*
X112191314Y-72556825D01*
X112191314Y-72556824D01*
X112191313Y-72556821D01*
X112174883Y-72390000D01*
X112191313Y-72223179D01*
X112194287Y-72213375D01*
X112239975Y-72062761D01*
X112239976Y-72062759D01*
X112239977Y-72062756D01*
X112318995Y-71914922D01*
X112425341Y-71785341D01*
X112554922Y-71678995D01*
X112702756Y-71599977D01*
X112702759Y-71599976D01*
X112702761Y-71599975D01*
X112863175Y-71551314D01*
X112863176Y-71551314D01*
X112863179Y-71551313D01*
X112988196Y-71539000D01*
X113071804Y-71539000D01*
X113196821Y-71551313D01*
X113196821Y-71551313D01*
G37*
G36*
X79641000Y-70751000D02*
X77839000Y-70751000D01*
X77839000Y-68949000D01*
X79641000Y-68949000D01*
X79641000Y-70751000D01*
X79641000Y-70751000D01*
G37*
G36*
X108516821Y-69011313D02*
X108516824Y-69011314D01*
X108516825Y-69011314D01*
X108677239Y-69059975D01*
X108677241Y-69059976D01*
X108677244Y-69059977D01*
X108825078Y-69138995D01*
X108954659Y-69245341D01*
X109061005Y-69374922D01*
X109140023Y-69522756D01*
X109188687Y-69683179D01*
X109205117Y-69850000D01*
X109188687Y-70016821D01*
X109140023Y-70177244D01*
X109061005Y-70325078D01*
X108954659Y-70454659D01*
X108825078Y-70561005D01*
X108677244Y-70640023D01*
X108677241Y-70640024D01*
X108677239Y-70640025D01*
X108516825Y-70688686D01*
X108516824Y-70688686D01*
X108516821Y-70688687D01*
X108391804Y-70701000D01*
X107508196Y-70701000D01*
X107383179Y-70688687D01*
X107383176Y-70688686D01*
X107383175Y-70688686D01*
X107222761Y-70640025D01*
X107222759Y-70640024D01*
X107222756Y-70640023D01*
X107074922Y-70561005D01*
X106945341Y-70454659D01*
X106838995Y-70325078D01*
X106759977Y-70177244D01*
X106711313Y-70016821D01*
X106694883Y-69850000D01*
X106711313Y-69683179D01*
X106759977Y-69522756D01*
X106838995Y-69374922D01*
X106945341Y-69245341D01*
X107074922Y-69138995D01*
X107222756Y-69059977D01*
X107222759Y-69059976D01*
X107222761Y-69059975D01*
X107383175Y-69011314D01*
X107383176Y-69011314D01*
X107383179Y-69011313D01*
X107508196Y-68999000D01*
X108391804Y-68999000D01*
X108516821Y-69011313D01*
X108516821Y-69011313D01*
G37*
G36*
X100896821Y-69011313D02*
X100896824Y-69011314D01*
X100896825Y-69011314D01*
X101057239Y-69059975D01*
X101057241Y-69059976D01*
X101057244Y-69059977D01*
X101205078Y-69138995D01*
X101334659Y-69245341D01*
X101441005Y-69374922D01*
X101520023Y-69522756D01*
X101568687Y-69683179D01*
X101585117Y-69850000D01*
X101568687Y-70016821D01*
X101520023Y-70177244D01*
X101441005Y-70325078D01*
X101334659Y-70454659D01*
X101205078Y-70561005D01*
X101057244Y-70640023D01*
X101057241Y-70640024D01*
X101057239Y-70640025D01*
X100896825Y-70688686D01*
X100896824Y-70688686D01*
X100896821Y-70688687D01*
X100771804Y-70701000D01*
X99888196Y-70701000D01*
X99763179Y-70688687D01*
X99763176Y-70688686D01*
X99763175Y-70688686D01*
X99602761Y-70640025D01*
X99602759Y-70640024D01*
X99602756Y-70640023D01*
X99454922Y-70561005D01*
X99325341Y-70454659D01*
X99218995Y-70325078D01*
X99139977Y-70177244D01*
X99091313Y-70016821D01*
X99074883Y-69850000D01*
X99091313Y-69683179D01*
X99139977Y-69522756D01*
X99218995Y-69374922D01*
X99325341Y-69245341D01*
X99454922Y-69138995D01*
X99602756Y-69059977D01*
X99602759Y-69059976D01*
X99602761Y-69059975D01*
X99763175Y-69011314D01*
X99763176Y-69011314D01*
X99763179Y-69011313D01*
X99888196Y-68999000D01*
X100771804Y-68999000D01*
X100896821Y-69011313D01*
X100896821Y-69011313D01*
G37*
G36*
X96133228Y-66491703D02*
X96288100Y-66555853D01*
X96427481Y-66648985D01*
X96546015Y-66767519D01*
X96639147Y-66906900D01*
X96703297Y-67061772D01*
X96736000Y-67226184D01*
X96736000Y-67393816D01*
X96703297Y-67558228D01*
X96639147Y-67713100D01*
X96546015Y-67852481D01*
X96427481Y-67971015D01*
X96288100Y-68064147D01*
X96133228Y-68128297D01*
X95968816Y-68161000D01*
X95801184Y-68161000D01*
X95636772Y-68128297D01*
X95481900Y-68064147D01*
X95342519Y-67971015D01*
X95223985Y-67852481D01*
X95130853Y-67713100D01*
X95066703Y-67558228D01*
X95034000Y-67393816D01*
X95034000Y-67226184D01*
X95066703Y-67061772D01*
X95130853Y-66906900D01*
X95223985Y-66767519D01*
X95342519Y-66648985D01*
X95481900Y-66555853D01*
X95636772Y-66491703D01*
X95801184Y-66459000D01*
X95968816Y-66459000D01*
X96133228Y-66491703D01*
X96133228Y-66491703D01*
G37*
G36*
X108516821Y-66471313D02*
X108516824Y-66471314D01*
X108516825Y-66471314D01*
X108677239Y-66519975D01*
X108677241Y-66519976D01*
X108677244Y-66519977D01*
X108825078Y-66598995D01*
X108954659Y-66705341D01*
X109061005Y-66834922D01*
X109140023Y-66982756D01*
X109140024Y-66982759D01*
X109140025Y-66982761D01*
X109188686Y-67143175D01*
X109188687Y-67143179D01*
X109205117Y-67310000D01*
X109188687Y-67476821D01*
X109188686Y-67476824D01*
X109188686Y-67476825D01*
X109163993Y-67558228D01*
X109140023Y-67637244D01*
X109061005Y-67785078D01*
X108954659Y-67914659D01*
X108825078Y-68021005D01*
X108677244Y-68100023D01*
X108677241Y-68100024D01*
X108677239Y-68100025D01*
X108516825Y-68148686D01*
X108516824Y-68148686D01*
X108516821Y-68148687D01*
X108391804Y-68161000D01*
X107508196Y-68161000D01*
X107383179Y-68148687D01*
X107383176Y-68148686D01*
X107383175Y-68148686D01*
X107222761Y-68100025D01*
X107222759Y-68100024D01*
X107222756Y-68100023D01*
X107074922Y-68021005D01*
X106945341Y-67914659D01*
X106838995Y-67785078D01*
X106759977Y-67637244D01*
X106736008Y-67558228D01*
X106711314Y-67476825D01*
X106711314Y-67476824D01*
X106711313Y-67476821D01*
X106694883Y-67310000D01*
X106711313Y-67143179D01*
X106711314Y-67143175D01*
X106759975Y-66982761D01*
X106759976Y-66982759D01*
X106759977Y-66982756D01*
X106838995Y-66834922D01*
X106945341Y-66705341D01*
X107074922Y-66598995D01*
X107222756Y-66519977D01*
X107222759Y-66519976D01*
X107222761Y-66519975D01*
X107383175Y-66471314D01*
X107383176Y-66471314D01*
X107383179Y-66471313D01*
X107508196Y-66459000D01*
X108391804Y-66459000D01*
X108516821Y-66471313D01*
X108516821Y-66471313D01*
G37*
G36*
X100896821Y-66471313D02*
X100896824Y-66471314D01*
X100896825Y-66471314D01*
X101057239Y-66519975D01*
X101057241Y-66519976D01*
X101057244Y-66519977D01*
X101205078Y-66598995D01*
X101334659Y-66705341D01*
X101441005Y-66834922D01*
X101520023Y-66982756D01*
X101520024Y-66982759D01*
X101520025Y-66982761D01*
X101568686Y-67143175D01*
X101568687Y-67143179D01*
X101585117Y-67310000D01*
X101568687Y-67476821D01*
X101568686Y-67476824D01*
X101568686Y-67476825D01*
X101543993Y-67558228D01*
X101520023Y-67637244D01*
X101441005Y-67785078D01*
X101334659Y-67914659D01*
X101205078Y-68021005D01*
X101057244Y-68100023D01*
X101057241Y-68100024D01*
X101057239Y-68100025D01*
X100896825Y-68148686D01*
X100896824Y-68148686D01*
X100896821Y-68148687D01*
X100771804Y-68161000D01*
X99888196Y-68161000D01*
X99763179Y-68148687D01*
X99763176Y-68148686D01*
X99763175Y-68148686D01*
X99602761Y-68100025D01*
X99602759Y-68100024D01*
X99602756Y-68100023D01*
X99454922Y-68021005D01*
X99325341Y-67914659D01*
X99218995Y-67785078D01*
X99139977Y-67637244D01*
X99116008Y-67558228D01*
X99091314Y-67476825D01*
X99091314Y-67476824D01*
X99091313Y-67476821D01*
X99074883Y-67310000D01*
X99091313Y-67143179D01*
X99091314Y-67143175D01*
X99139975Y-66982761D01*
X99139976Y-66982759D01*
X99139977Y-66982756D01*
X99218995Y-66834922D01*
X99325341Y-66705341D01*
X99454922Y-66598995D01*
X99602756Y-66519977D01*
X99602759Y-66519976D01*
X99602761Y-66519975D01*
X99763175Y-66471314D01*
X99763176Y-66471314D01*
X99763179Y-66471313D01*
X99888196Y-66459000D01*
X100771804Y-66459000D01*
X100896821Y-66471313D01*
X100896821Y-66471313D01*
G37*
G36*
X85891821Y-66471313D02*
X85891824Y-66471314D01*
X85891825Y-66471314D01*
X86052239Y-66519975D01*
X86052241Y-66519976D01*
X86052244Y-66519977D01*
X86200078Y-66598995D01*
X86329659Y-66705341D01*
X86436005Y-66834922D01*
X86515023Y-66982756D01*
X86515024Y-66982759D01*
X86515025Y-66982761D01*
X86563686Y-67143175D01*
X86563687Y-67143179D01*
X86580117Y-67310000D01*
X86563687Y-67476821D01*
X86563686Y-67476824D01*
X86563686Y-67476825D01*
X86538993Y-67558228D01*
X86515023Y-67637244D01*
X86436005Y-67785078D01*
X86329659Y-67914659D01*
X86200078Y-68021005D01*
X86052244Y-68100023D01*
X86052241Y-68100024D01*
X86052239Y-68100025D01*
X85891825Y-68148686D01*
X85891824Y-68148686D01*
X85891821Y-68148687D01*
X85766804Y-68161000D01*
X85683196Y-68161000D01*
X85558179Y-68148687D01*
X85558176Y-68148686D01*
X85558175Y-68148686D01*
X85397761Y-68100025D01*
X85397759Y-68100024D01*
X85397756Y-68100023D01*
X85249922Y-68021005D01*
X85120341Y-67914659D01*
X85013995Y-67785078D01*
X84934977Y-67637244D01*
X84911008Y-67558228D01*
X84886314Y-67476825D01*
X84886314Y-67476824D01*
X84886313Y-67476821D01*
X84869883Y-67310000D01*
X84886313Y-67143179D01*
X84886314Y-67143175D01*
X84934975Y-66982761D01*
X84934976Y-66982759D01*
X84934977Y-66982756D01*
X85013995Y-66834922D01*
X85120341Y-66705341D01*
X85249922Y-66598995D01*
X85397756Y-66519977D01*
X85397759Y-66519976D01*
X85397761Y-66519975D01*
X85558175Y-66471314D01*
X85558176Y-66471314D01*
X85558179Y-66471313D01*
X85683196Y-66459000D01*
X85766804Y-66459000D01*
X85891821Y-66471313D01*
X85891821Y-66471313D01*
G37*
G36*
X101581000Y-65621000D02*
X99079000Y-65621000D01*
X99079000Y-63919000D01*
X101581000Y-63919000D01*
X101581000Y-65621000D01*
X101581000Y-65621000D01*
G37*
G36*
X108516821Y-63931313D02*
X108516824Y-63931314D01*
X108516825Y-63931314D01*
X108677239Y-63979975D01*
X108677241Y-63979976D01*
X108677244Y-63979977D01*
X108825078Y-64058995D01*
X108954659Y-64165341D01*
X109061005Y-64294922D01*
X109140023Y-64442756D01*
X109188687Y-64603179D01*
X109205117Y-64770000D01*
X109188687Y-64936821D01*
X109140023Y-65097244D01*
X109061005Y-65245078D01*
X108954659Y-65374659D01*
X108825078Y-65481005D01*
X108677244Y-65560023D01*
X108677241Y-65560024D01*
X108677239Y-65560025D01*
X108516825Y-65608686D01*
X108516824Y-65608686D01*
X108516821Y-65608687D01*
X108391804Y-65621000D01*
X107508196Y-65621000D01*
X107383179Y-65608687D01*
X107383176Y-65608686D01*
X107383175Y-65608686D01*
X107222761Y-65560025D01*
X107222759Y-65560024D01*
X107222756Y-65560023D01*
X107074922Y-65481005D01*
X106945341Y-65374659D01*
X106838995Y-65245078D01*
X106759977Y-65097244D01*
X106711313Y-64936821D01*
X106694883Y-64770000D01*
X106711313Y-64603179D01*
X106759977Y-64442756D01*
X106838995Y-64294922D01*
X106945341Y-64165341D01*
X107074922Y-64058995D01*
X107222756Y-63979977D01*
X107222759Y-63979976D01*
X107222761Y-63979975D01*
X107383175Y-63931314D01*
X107383176Y-63931314D01*
X107383179Y-63931313D01*
X107508196Y-63919000D01*
X108391804Y-63919000D01*
X108516821Y-63931313D01*
X108516821Y-63931313D01*
G37*
G36*
X85973228Y-62681703D02*
X86128100Y-62745853D01*
X86267481Y-62838985D01*
X86386015Y-62957519D01*
X86479147Y-63096900D01*
X86543297Y-63251772D01*
X86576000Y-63416184D01*
X86576000Y-63583816D01*
X86543297Y-63748228D01*
X86479147Y-63903100D01*
X86386015Y-64042481D01*
X86267481Y-64161015D01*
X86128100Y-64254147D01*
X85973228Y-64318297D01*
X85808816Y-64351000D01*
X85641184Y-64351000D01*
X85476772Y-64318297D01*
X85321900Y-64254147D01*
X85182519Y-64161015D01*
X85063985Y-64042481D01*
X84970853Y-63903100D01*
X84906703Y-63748228D01*
X84874000Y-63583816D01*
X84874000Y-63416184D01*
X84906703Y-63251772D01*
X84970853Y-63096900D01*
X85063985Y-62957519D01*
X85182519Y-62838985D01*
X85321900Y-62745853D01*
X85476772Y-62681703D01*
X85641184Y-62649000D01*
X85808816Y-62649000D01*
X85973228Y-62681703D01*
X85973228Y-62681703D01*
G37*
G36*
X96051821Y-62661313D02*
X96051824Y-62661314D01*
X96051825Y-62661314D01*
X96212239Y-62709975D01*
X96212241Y-62709976D01*
X96212244Y-62709977D01*
X96360078Y-62788995D01*
X96489659Y-62895341D01*
X96596005Y-63024922D01*
X96675023Y-63172756D01*
X96675024Y-63172759D01*
X96675025Y-63172761D01*
X96723686Y-63333175D01*
X96723687Y-63333179D01*
X96740117Y-63500000D01*
X96723687Y-63666821D01*
X96723686Y-63666824D01*
X96723686Y-63666825D01*
X96698993Y-63748228D01*
X96675023Y-63827244D01*
X96596005Y-63975078D01*
X96489659Y-64104659D01*
X96360078Y-64211005D01*
X96212244Y-64290023D01*
X96212241Y-64290024D01*
X96212239Y-64290025D01*
X96051825Y-64338686D01*
X96051824Y-64338686D01*
X96051821Y-64338687D01*
X95926804Y-64351000D01*
X95843196Y-64351000D01*
X95718179Y-64338687D01*
X95718176Y-64338686D01*
X95718175Y-64338686D01*
X95557761Y-64290025D01*
X95557759Y-64290024D01*
X95557756Y-64290023D01*
X95409922Y-64211005D01*
X95280341Y-64104659D01*
X95173995Y-63975078D01*
X95094977Y-63827244D01*
X95071008Y-63748228D01*
X95046314Y-63666825D01*
X95046314Y-63666824D01*
X95046313Y-63666821D01*
X95029883Y-63500000D01*
X95046313Y-63333179D01*
X95046314Y-63333175D01*
X95094975Y-63172761D01*
X95094976Y-63172759D01*
X95094977Y-63172756D01*
X95173995Y-63024922D01*
X95280341Y-62895341D01*
X95409922Y-62788995D01*
X95557756Y-62709977D01*
X95557759Y-62709976D01*
X95557761Y-62709975D01*
X95718175Y-62661314D01*
X95718176Y-62661314D01*
X95718179Y-62661313D01*
X95843196Y-62649000D01*
X95926804Y-62649000D01*
X96051821Y-62661313D01*
X96051821Y-62661313D01*
G37*
G36*
X113278228Y-61411703D02*
X113433100Y-61475853D01*
X113572481Y-61568985D01*
X113691015Y-61687519D01*
X113784147Y-61826900D01*
X113848297Y-61981772D01*
X113881000Y-62146184D01*
X113881000Y-62313816D01*
X113848297Y-62478228D01*
X113784147Y-62633100D01*
X113691015Y-62772481D01*
X113572481Y-62891015D01*
X113433100Y-62984147D01*
X113278228Y-63048297D01*
X113113816Y-63081000D01*
X112946184Y-63081000D01*
X112781772Y-63048297D01*
X112626900Y-62984147D01*
X112487519Y-62891015D01*
X112368985Y-62772481D01*
X112275853Y-62633100D01*
X112211703Y-62478228D01*
X112179000Y-62313816D01*
X112179000Y-62146184D01*
X112211703Y-61981772D01*
X112275853Y-61826900D01*
X112368985Y-61687519D01*
X112487519Y-61568985D01*
X112626900Y-61475853D01*
X112781772Y-61411703D01*
X112946184Y-61379000D01*
X113113816Y-61379000D01*
X113278228Y-61411703D01*
X113278228Y-61411703D01*
G37*
G36*
X117006821Y-61391313D02*
X117006824Y-61391314D01*
X117006825Y-61391314D01*
X117167239Y-61439975D01*
X117167241Y-61439976D01*
X117167244Y-61439977D01*
X117315078Y-61518995D01*
X117444659Y-61625341D01*
X117551005Y-61754922D01*
X117630023Y-61902756D01*
X117630024Y-61902759D01*
X117630025Y-61902761D01*
X117678686Y-62063175D01*
X117678687Y-62063179D01*
X117695117Y-62230000D01*
X117678687Y-62396821D01*
X117678686Y-62396824D01*
X117678686Y-62396825D01*
X117653993Y-62478228D01*
X117630023Y-62557244D01*
X117551005Y-62705078D01*
X117444659Y-62834659D01*
X117315078Y-62941005D01*
X117167244Y-63020023D01*
X117167241Y-63020024D01*
X117167239Y-63020025D01*
X117006825Y-63068686D01*
X117006824Y-63068686D01*
X117006821Y-63068687D01*
X116881804Y-63081000D01*
X116798196Y-63081000D01*
X116673179Y-63068687D01*
X116673176Y-63068686D01*
X116673175Y-63068686D01*
X116512761Y-63020025D01*
X116512759Y-63020024D01*
X116512756Y-63020023D01*
X116364922Y-62941005D01*
X116235341Y-62834659D01*
X116128995Y-62705078D01*
X116049977Y-62557244D01*
X116026008Y-62478228D01*
X116001314Y-62396825D01*
X116001314Y-62396824D01*
X116001313Y-62396821D01*
X115984883Y-62230000D01*
X116001313Y-62063179D01*
X116001314Y-62063175D01*
X116049975Y-61902761D01*
X116049976Y-61902759D01*
X116049977Y-61902756D01*
X116128995Y-61754922D01*
X116235341Y-61625341D01*
X116364922Y-61518995D01*
X116512756Y-61439977D01*
X116512759Y-61439976D01*
X116512761Y-61439975D01*
X116673175Y-61391314D01*
X116673176Y-61391314D01*
X116673179Y-61391313D01*
X116798196Y-61379000D01*
X116881804Y-61379000D01*
X117006821Y-61391313D01*
X117006821Y-61391313D01*
G37*
G36*
X78850442Y-60065518D02*
X78916627Y-60072037D01*
X79029853Y-60106384D01*
X79086467Y-60123557D01*
X79225087Y-60197652D01*
X79242991Y-60207222D01*
X79273769Y-60232481D01*
X79380186Y-60319814D01*
X79463448Y-60421271D01*
X79492778Y-60457009D01*
X79492779Y-60457011D01*
X79576443Y-60613533D01*
X79576443Y-60613534D01*
X79627963Y-60783373D01*
X79645359Y-60960000D01*
X79627963Y-61136627D01*
X79593616Y-61249853D01*
X79576443Y-61306467D01*
X79520192Y-61411703D01*
X79492778Y-61462991D01*
X79463448Y-61498729D01*
X79380186Y-61600186D01*
X79278729Y-61683448D01*
X79242991Y-61712778D01*
X79242989Y-61712779D01*
X79086467Y-61796443D01*
X79029853Y-61813616D01*
X78916627Y-61847963D01*
X78850443Y-61854481D01*
X78784260Y-61861000D01*
X78695740Y-61861000D01*
X78629557Y-61854481D01*
X78563373Y-61847963D01*
X78450147Y-61813616D01*
X78393533Y-61796443D01*
X78237011Y-61712779D01*
X78237009Y-61712778D01*
X78201271Y-61683448D01*
X78099814Y-61600186D01*
X78016552Y-61498729D01*
X77987222Y-61462991D01*
X77959808Y-61411703D01*
X77903557Y-61306467D01*
X77886384Y-61249853D01*
X77852037Y-61136627D01*
X77834641Y-60960000D01*
X77852037Y-60783373D01*
X77903557Y-60613534D01*
X77903557Y-60613533D01*
X77987221Y-60457011D01*
X77987222Y-60457009D01*
X78016552Y-60421271D01*
X78099814Y-60319814D01*
X78206231Y-60232481D01*
X78237009Y-60207222D01*
X78254913Y-60197652D01*
X78393533Y-60123557D01*
X78450147Y-60106384D01*
X78563373Y-60072037D01*
X78629558Y-60065518D01*
X78695740Y-60059000D01*
X78784260Y-60059000D01*
X78850442Y-60065518D01*
X78850442Y-60065518D01*
G37*
G36*
X103198228Y-58871703D02*
X103353100Y-58935853D01*
X103492481Y-59028985D01*
X103611015Y-59147519D01*
X103704147Y-59286900D01*
X103768297Y-59441772D01*
X103801000Y-59606184D01*
X103801000Y-59773816D01*
X103768297Y-59938228D01*
X103704147Y-60093100D01*
X103611015Y-60232481D01*
X103492481Y-60351015D01*
X103353100Y-60444147D01*
X103198228Y-60508297D01*
X103033816Y-60541000D01*
X102866184Y-60541000D01*
X102701772Y-60508297D01*
X102546900Y-60444147D01*
X102407519Y-60351015D01*
X102288985Y-60232481D01*
X102195853Y-60093100D01*
X102131703Y-59938228D01*
X102099000Y-59773816D01*
X102099000Y-59606184D01*
X102131703Y-59441772D01*
X102195853Y-59286900D01*
X102288985Y-59147519D01*
X102407519Y-59028985D01*
X102546900Y-58935853D01*
X102701772Y-58871703D01*
X102866184Y-58839000D01*
X103033816Y-58839000D01*
X103198228Y-58871703D01*
X103198228Y-58871703D01*
G37*
G36*
X108198228Y-58871703D02*
X108353100Y-58935853D01*
X108492481Y-59028985D01*
X108611015Y-59147519D01*
X108704147Y-59286900D01*
X108768297Y-59441772D01*
X108801000Y-59606184D01*
X108801000Y-59773816D01*
X108768297Y-59938228D01*
X108704147Y-60093100D01*
X108611015Y-60232481D01*
X108492481Y-60351015D01*
X108353100Y-60444147D01*
X108198228Y-60508297D01*
X108033816Y-60541000D01*
X107866184Y-60541000D01*
X107701772Y-60508297D01*
X107546900Y-60444147D01*
X107407519Y-60351015D01*
X107288985Y-60232481D01*
X107195853Y-60093100D01*
X107131703Y-59938228D01*
X107099000Y-59773816D01*
X107099000Y-59606184D01*
X107131703Y-59441772D01*
X107195853Y-59286900D01*
X107288985Y-59147519D01*
X107407519Y-59028985D01*
X107546900Y-58935853D01*
X107701772Y-58871703D01*
X107866184Y-58839000D01*
X108033816Y-58839000D01*
X108198228Y-58871703D01*
X108198228Y-58871703D01*
G37*
G36*
X78850443Y-57525519D02*
X78916627Y-57532037D01*
X79029853Y-57566384D01*
X79086467Y-57583557D01*
X79225087Y-57657652D01*
X79242991Y-57667222D01*
X79278729Y-57696552D01*
X79380186Y-57779814D01*
X79463448Y-57881271D01*
X79492778Y-57917009D01*
X79492779Y-57917011D01*
X79576443Y-58073533D01*
X79576443Y-58073534D01*
X79627963Y-58243373D01*
X79645359Y-58420000D01*
X79627963Y-58596627D01*
X79593616Y-58709853D01*
X79576443Y-58766467D01*
X79520192Y-58871703D01*
X79492778Y-58922991D01*
X79463448Y-58958729D01*
X79380186Y-59060186D01*
X79278729Y-59143448D01*
X79242991Y-59172778D01*
X79242989Y-59172779D01*
X79086467Y-59256443D01*
X79029853Y-59273616D01*
X78916627Y-59307963D01*
X78850442Y-59314482D01*
X78784260Y-59321000D01*
X78695740Y-59321000D01*
X78629558Y-59314482D01*
X78563373Y-59307963D01*
X78450147Y-59273616D01*
X78393533Y-59256443D01*
X78237011Y-59172779D01*
X78237009Y-59172778D01*
X78201271Y-59143448D01*
X78099814Y-59060186D01*
X78016552Y-58958729D01*
X77987222Y-58922991D01*
X77959808Y-58871703D01*
X77903557Y-58766467D01*
X77886384Y-58709853D01*
X77852037Y-58596627D01*
X77834641Y-58420000D01*
X77852037Y-58243373D01*
X77903557Y-58073534D01*
X77903557Y-58073533D01*
X77987221Y-57917011D01*
X77987222Y-57917009D01*
X78016552Y-57881271D01*
X78099814Y-57779814D01*
X78201271Y-57696552D01*
X78237009Y-57667222D01*
X78254913Y-57657652D01*
X78393533Y-57583557D01*
X78450147Y-57566384D01*
X78563373Y-57532037D01*
X78629557Y-57525519D01*
X78695740Y-57519000D01*
X78784260Y-57519000D01*
X78850443Y-57525519D01*
X78850443Y-57525519D01*
G37*
G36*
X79641000Y-56781000D02*
X77839000Y-56781000D01*
X77839000Y-54979000D01*
X79641000Y-54979000D01*
X79641000Y-56781000D01*
X79641000Y-56781000D01*
G37*
G36*
X87919003Y-53657275D02*
X87919005Y-53657276D01*
X87919006Y-53657276D01*
X88099320Y-53731964D01*
X88259410Y-53838933D01*
X88261601Y-53840397D01*
X88399603Y-53978399D01*
X88399605Y-53978402D01*
X88508036Y-54140680D01*
X88582724Y-54320994D01*
X88620800Y-54512415D01*
X88620800Y-54707585D01*
X88582724Y-54899006D01*
X88508036Y-55079320D01*
X88508035Y-55079321D01*
X88399603Y-55241601D01*
X88261601Y-55379603D01*
X88261598Y-55379605D01*
X88099320Y-55488036D01*
X87919006Y-55562724D01*
X87919005Y-55562724D01*
X87919003Y-55562725D01*
X87727587Y-55600800D01*
X87532413Y-55600800D01*
X87340997Y-55562725D01*
X87340995Y-55562724D01*
X87340994Y-55562724D01*
X87160680Y-55488036D01*
X86998402Y-55379605D01*
X86998399Y-55379603D01*
X86860397Y-55241601D01*
X86751965Y-55079321D01*
X86751964Y-55079320D01*
X86677276Y-54899006D01*
X86639200Y-54707585D01*
X86639200Y-54512415D01*
X86677276Y-54320994D01*
X86751964Y-54140680D01*
X86860395Y-53978402D01*
X86860397Y-53978399D01*
X86998399Y-53840397D01*
X87000590Y-53838933D01*
X87160680Y-53731964D01*
X87340994Y-53657276D01*
X87340995Y-53657276D01*
X87340997Y-53657275D01*
X87532413Y-53619200D01*
X87727587Y-53619200D01*
X87919003Y-53657275D01*
X87919003Y-53657275D01*
G37*
G36*
X90459003Y-53657275D02*
X90459005Y-53657276D01*
X90459006Y-53657276D01*
X90639320Y-53731964D01*
X90799410Y-53838933D01*
X90801601Y-53840397D01*
X90939603Y-53978399D01*
X90939605Y-53978402D01*
X91048036Y-54140680D01*
X91122724Y-54320994D01*
X91160800Y-54512415D01*
X91160800Y-54707585D01*
X91122724Y-54899006D01*
X91048036Y-55079320D01*
X91048035Y-55079321D01*
X90939603Y-55241601D01*
X90801601Y-55379603D01*
X90801598Y-55379605D01*
X90639320Y-55488036D01*
X90459006Y-55562724D01*
X90459005Y-55562724D01*
X90459003Y-55562725D01*
X90267587Y-55600800D01*
X90072413Y-55600800D01*
X89880997Y-55562725D01*
X89880995Y-55562724D01*
X89880994Y-55562724D01*
X89700680Y-55488036D01*
X89538402Y-55379605D01*
X89538399Y-55379603D01*
X89400397Y-55241601D01*
X89291965Y-55079321D01*
X89291964Y-55079320D01*
X89217276Y-54899006D01*
X89179200Y-54707585D01*
X89179200Y-54512415D01*
X89217276Y-54320994D01*
X89291964Y-54140680D01*
X89400395Y-53978402D01*
X89400397Y-53978399D01*
X89538399Y-53840397D01*
X89540590Y-53838933D01*
X89700680Y-53731964D01*
X89880994Y-53657276D01*
X89880995Y-53657276D01*
X89880997Y-53657275D01*
X90072413Y-53619200D01*
X90267587Y-53619200D01*
X90459003Y-53657275D01*
X90459003Y-53657275D01*
G37*
G36*
X92999003Y-53657275D02*
X92999005Y-53657276D01*
X92999006Y-53657276D01*
X93179320Y-53731964D01*
X93339410Y-53838933D01*
X93341601Y-53840397D01*
X93479603Y-53978399D01*
X93479605Y-53978402D01*
X93588036Y-54140680D01*
X93662724Y-54320994D01*
X93700800Y-54512415D01*
X93700800Y-54707585D01*
X93662724Y-54899006D01*
X93588036Y-55079320D01*
X93588035Y-55079321D01*
X93479603Y-55241601D01*
X93341601Y-55379603D01*
X93341598Y-55379605D01*
X93179320Y-55488036D01*
X92999006Y-55562724D01*
X92999005Y-55562724D01*
X92999003Y-55562725D01*
X92807587Y-55600800D01*
X92612413Y-55600800D01*
X92420997Y-55562725D01*
X92420995Y-55562724D01*
X92420994Y-55562724D01*
X92240680Y-55488036D01*
X92078402Y-55379605D01*
X92078399Y-55379603D01*
X91940397Y-55241601D01*
X91831965Y-55079321D01*
X91831964Y-55079320D01*
X91757276Y-54899006D01*
X91719200Y-54707585D01*
X91719200Y-54512415D01*
X91757276Y-54320994D01*
X91831964Y-54140680D01*
X91940395Y-53978402D01*
X91940397Y-53978399D01*
X92078399Y-53840397D01*
X92080590Y-53838933D01*
X92240680Y-53731964D01*
X92420994Y-53657276D01*
X92420995Y-53657276D01*
X92420997Y-53657275D01*
X92612413Y-53619200D01*
X92807587Y-53619200D01*
X92999003Y-53657275D01*
X92999003Y-53657275D01*
G37*
G36*
X95539003Y-53657275D02*
X95539005Y-53657276D01*
X95539006Y-53657276D01*
X95719320Y-53731964D01*
X95879410Y-53838933D01*
X95881601Y-53840397D01*
X96019603Y-53978399D01*
X96019605Y-53978402D01*
X96128036Y-54140680D01*
X96202724Y-54320994D01*
X96240800Y-54512415D01*
X96240800Y-54707585D01*
X96202724Y-54899006D01*
X96128036Y-55079320D01*
X96128035Y-55079321D01*
X96019603Y-55241601D01*
X95881601Y-55379603D01*
X95881598Y-55379605D01*
X95719320Y-55488036D01*
X95539006Y-55562724D01*
X95539005Y-55562724D01*
X95539003Y-55562725D01*
X95347587Y-55600800D01*
X95152413Y-55600800D01*
X94960997Y-55562725D01*
X94960995Y-55562724D01*
X94960994Y-55562724D01*
X94780680Y-55488036D01*
X94618402Y-55379605D01*
X94618399Y-55379603D01*
X94480397Y-55241601D01*
X94371965Y-55079321D01*
X94371964Y-55079320D01*
X94297276Y-54899006D01*
X94259200Y-54707585D01*
X94259200Y-54512415D01*
X94297276Y-54320994D01*
X94371964Y-54140680D01*
X94480395Y-53978402D01*
X94480397Y-53978399D01*
X94618399Y-53840397D01*
X94620590Y-53838933D01*
X94780680Y-53731964D01*
X94960994Y-53657276D01*
X94960995Y-53657276D01*
X94960997Y-53657275D01*
X95152413Y-53619200D01*
X95347587Y-53619200D01*
X95539003Y-53657275D01*
X95539003Y-53657275D01*
G37*
G36*
X98079003Y-53657275D02*
X98079005Y-53657276D01*
X98079006Y-53657276D01*
X98259320Y-53731964D01*
X98419410Y-53838933D01*
X98421601Y-53840397D01*
X98559603Y-53978399D01*
X98559605Y-53978402D01*
X98668036Y-54140680D01*
X98742724Y-54320994D01*
X98780800Y-54512415D01*
X98780800Y-54707585D01*
X98742724Y-54899006D01*
X98668036Y-55079320D01*
X98668035Y-55079321D01*
X98559603Y-55241601D01*
X98421601Y-55379603D01*
X98421598Y-55379605D01*
X98259320Y-55488036D01*
X98079006Y-55562724D01*
X98079005Y-55562724D01*
X98079003Y-55562725D01*
X97887587Y-55600800D01*
X97692413Y-55600800D01*
X97500997Y-55562725D01*
X97500995Y-55562724D01*
X97500994Y-55562724D01*
X97320680Y-55488036D01*
X97158402Y-55379605D01*
X97158399Y-55379603D01*
X97020397Y-55241601D01*
X96911965Y-55079321D01*
X96911964Y-55079320D01*
X96837276Y-54899006D01*
X96799200Y-54707585D01*
X96799200Y-54512415D01*
X96837276Y-54320994D01*
X96911964Y-54140680D01*
X97020395Y-53978402D01*
X97020397Y-53978399D01*
X97158399Y-53840397D01*
X97160590Y-53838933D01*
X97320680Y-53731964D01*
X97500994Y-53657276D01*
X97500995Y-53657276D01*
X97500997Y-53657275D01*
X97692413Y-53619200D01*
X97887587Y-53619200D01*
X98079003Y-53657275D01*
X98079003Y-53657275D01*
G37*
G36*
X100619003Y-53657275D02*
X100619005Y-53657276D01*
X100619006Y-53657276D01*
X100799320Y-53731964D01*
X100959410Y-53838933D01*
X100961601Y-53840397D01*
X101099603Y-53978399D01*
X101099605Y-53978402D01*
X101208036Y-54140680D01*
X101282724Y-54320994D01*
X101320800Y-54512415D01*
X101320800Y-54707585D01*
X101282724Y-54899006D01*
X101208036Y-55079320D01*
X101208035Y-55079321D01*
X101099603Y-55241601D01*
X100961601Y-55379603D01*
X100961598Y-55379605D01*
X100799320Y-55488036D01*
X100619006Y-55562724D01*
X100619005Y-55562724D01*
X100619003Y-55562725D01*
X100427587Y-55600800D01*
X100232413Y-55600800D01*
X100040997Y-55562725D01*
X100040995Y-55562724D01*
X100040994Y-55562724D01*
X99860680Y-55488036D01*
X99698402Y-55379605D01*
X99698399Y-55379603D01*
X99560397Y-55241601D01*
X99451965Y-55079321D01*
X99451964Y-55079320D01*
X99377276Y-54899006D01*
X99339200Y-54707585D01*
X99339200Y-54512415D01*
X99377276Y-54320994D01*
X99451964Y-54140680D01*
X99560395Y-53978402D01*
X99560397Y-53978399D01*
X99698399Y-53840397D01*
X99700590Y-53838933D01*
X99860680Y-53731964D01*
X100040994Y-53657276D01*
X100040995Y-53657276D01*
X100040997Y-53657275D01*
X100232413Y-53619200D01*
X100427587Y-53619200D01*
X100619003Y-53657275D01*
X100619003Y-53657275D01*
G37*
G36*
X103159003Y-53657275D02*
X103159005Y-53657276D01*
X103159006Y-53657276D01*
X103339320Y-53731964D01*
X103499410Y-53838933D01*
X103501601Y-53840397D01*
X103639603Y-53978399D01*
X103639605Y-53978402D01*
X103748036Y-54140680D01*
X103822724Y-54320994D01*
X103860800Y-54512415D01*
X103860800Y-54707585D01*
X103822724Y-54899006D01*
X103748036Y-55079320D01*
X103748035Y-55079321D01*
X103639603Y-55241601D01*
X103501601Y-55379603D01*
X103501598Y-55379605D01*
X103339320Y-55488036D01*
X103159006Y-55562724D01*
X103159005Y-55562724D01*
X103159003Y-55562725D01*
X102967587Y-55600800D01*
X102772413Y-55600800D01*
X102580997Y-55562725D01*
X102580995Y-55562724D01*
X102580994Y-55562724D01*
X102400680Y-55488036D01*
X102238402Y-55379605D01*
X102238399Y-55379603D01*
X102100397Y-55241601D01*
X101991965Y-55079321D01*
X101991964Y-55079320D01*
X101917276Y-54899006D01*
X101879200Y-54707585D01*
X101879200Y-54512415D01*
X101917276Y-54320994D01*
X101991964Y-54140680D01*
X102100395Y-53978402D01*
X102100397Y-53978399D01*
X102238399Y-53840397D01*
X102240590Y-53838933D01*
X102400680Y-53731964D01*
X102580994Y-53657276D01*
X102580995Y-53657276D01*
X102580997Y-53657275D01*
X102772413Y-53619200D01*
X102967587Y-53619200D01*
X103159003Y-53657275D01*
X103159003Y-53657275D01*
G37*
G36*
X105699003Y-53657275D02*
X105699005Y-53657276D01*
X105699006Y-53657276D01*
X105879320Y-53731964D01*
X106039410Y-53838933D01*
X106041601Y-53840397D01*
X106179603Y-53978399D01*
X106179605Y-53978402D01*
X106288036Y-54140680D01*
X106362724Y-54320994D01*
X106400800Y-54512415D01*
X106400800Y-54707585D01*
X106362724Y-54899006D01*
X106288036Y-55079320D01*
X106288035Y-55079321D01*
X106179603Y-55241601D01*
X106041601Y-55379603D01*
X106041598Y-55379605D01*
X105879320Y-55488036D01*
X105699006Y-55562724D01*
X105699005Y-55562724D01*
X105699003Y-55562725D01*
X105507587Y-55600800D01*
X105312413Y-55600800D01*
X105120997Y-55562725D01*
X105120995Y-55562724D01*
X105120994Y-55562724D01*
X104940680Y-55488036D01*
X104778402Y-55379605D01*
X104778399Y-55379603D01*
X104640397Y-55241601D01*
X104531965Y-55079321D01*
X104531964Y-55079320D01*
X104457276Y-54899006D01*
X104419200Y-54707585D01*
X104419200Y-54512415D01*
X104457276Y-54320994D01*
X104531964Y-54140680D01*
X104640395Y-53978402D01*
X104640397Y-53978399D01*
X104778399Y-53840397D01*
X104780590Y-53838933D01*
X104940680Y-53731964D01*
X105120994Y-53657276D01*
X105120995Y-53657276D01*
X105120997Y-53657275D01*
X105312413Y-53619200D01*
X105507587Y-53619200D01*
X105699003Y-53657275D01*
X105699003Y-53657275D01*
G37*
G36*
X108239003Y-53657275D02*
X108239005Y-53657276D01*
X108239006Y-53657276D01*
X108419320Y-53731964D01*
X108579410Y-53838933D01*
X108581601Y-53840397D01*
X108719603Y-53978399D01*
X108719605Y-53978402D01*
X108828036Y-54140680D01*
X108902724Y-54320994D01*
X108940800Y-54512415D01*
X108940800Y-54707585D01*
X108902724Y-54899006D01*
X108828036Y-55079320D01*
X108828035Y-55079321D01*
X108719603Y-55241601D01*
X108581601Y-55379603D01*
X108581598Y-55379605D01*
X108419320Y-55488036D01*
X108239006Y-55562724D01*
X108239005Y-55562724D01*
X108239003Y-55562725D01*
X108047587Y-55600800D01*
X107852413Y-55600800D01*
X107660997Y-55562725D01*
X107660995Y-55562724D01*
X107660994Y-55562724D01*
X107480680Y-55488036D01*
X107318402Y-55379605D01*
X107318399Y-55379603D01*
X107180397Y-55241601D01*
X107071965Y-55079321D01*
X107071964Y-55079320D01*
X106997276Y-54899006D01*
X106959200Y-54707585D01*
X106959200Y-54512415D01*
X106997276Y-54320994D01*
X107071964Y-54140680D01*
X107180395Y-53978402D01*
X107180397Y-53978399D01*
X107318399Y-53840397D01*
X107320590Y-53838933D01*
X107480680Y-53731964D01*
X107660994Y-53657276D01*
X107660995Y-53657276D01*
X107660997Y-53657275D01*
X107852413Y-53619200D01*
X108047587Y-53619200D01*
X108239003Y-53657275D01*
X108239003Y-53657275D01*
G37*
G36*
X110779003Y-53657275D02*
X110779005Y-53657276D01*
X110779006Y-53657276D01*
X110959320Y-53731964D01*
X111119410Y-53838933D01*
X111121601Y-53840397D01*
X111259603Y-53978399D01*
X111259605Y-53978402D01*
X111368036Y-54140680D01*
X111442724Y-54320994D01*
X111480800Y-54512415D01*
X111480800Y-54707585D01*
X111442724Y-54899006D01*
X111368036Y-55079320D01*
X111368035Y-55079321D01*
X111259603Y-55241601D01*
X111121601Y-55379603D01*
X111121598Y-55379605D01*
X110959320Y-55488036D01*
X110779006Y-55562724D01*
X110779005Y-55562724D01*
X110779003Y-55562725D01*
X110587587Y-55600800D01*
X110392413Y-55600800D01*
X110200997Y-55562725D01*
X110200995Y-55562724D01*
X110200994Y-55562724D01*
X110020680Y-55488036D01*
X109858402Y-55379605D01*
X109858399Y-55379603D01*
X109720397Y-55241601D01*
X109611965Y-55079321D01*
X109611964Y-55079320D01*
X109537276Y-54899006D01*
X109499200Y-54707585D01*
X109499200Y-54512415D01*
X109537276Y-54320994D01*
X109611964Y-54140680D01*
X109720395Y-53978402D01*
X109720397Y-53978399D01*
X109858399Y-53840397D01*
X109860590Y-53838933D01*
X110020680Y-53731964D01*
X110200994Y-53657276D01*
X110200995Y-53657276D01*
X110200997Y-53657275D01*
X110392413Y-53619200D01*
X110587587Y-53619200D01*
X110779003Y-53657275D01*
X110779003Y-53657275D01*
G37*
G36*
X113319003Y-53657275D02*
X113319005Y-53657276D01*
X113319006Y-53657276D01*
X113499320Y-53731964D01*
X113659410Y-53838933D01*
X113661601Y-53840397D01*
X113799603Y-53978399D01*
X113799605Y-53978402D01*
X113908036Y-54140680D01*
X113982724Y-54320994D01*
X114020800Y-54512415D01*
X114020800Y-54707585D01*
X113982724Y-54899006D01*
X113908036Y-55079320D01*
X113908035Y-55079321D01*
X113799603Y-55241601D01*
X113661601Y-55379603D01*
X113661598Y-55379605D01*
X113499320Y-55488036D01*
X113319006Y-55562724D01*
X113319005Y-55562724D01*
X113319003Y-55562725D01*
X113127587Y-55600800D01*
X112932413Y-55600800D01*
X112740997Y-55562725D01*
X112740995Y-55562724D01*
X112740994Y-55562724D01*
X112560680Y-55488036D01*
X112398402Y-55379605D01*
X112398399Y-55379603D01*
X112260397Y-55241601D01*
X112151965Y-55079321D01*
X112151964Y-55079320D01*
X112077276Y-54899006D01*
X112039200Y-54707585D01*
X112039200Y-54512415D01*
X112077276Y-54320994D01*
X112151964Y-54140680D01*
X112260395Y-53978402D01*
X112260397Y-53978399D01*
X112398399Y-53840397D01*
X112400590Y-53838933D01*
X112560680Y-53731964D01*
X112740994Y-53657276D01*
X112740995Y-53657276D01*
X112740997Y-53657275D01*
X112932413Y-53619200D01*
X113127587Y-53619200D01*
X113319003Y-53657275D01*
X113319003Y-53657275D01*
G37*
G36*
X115859003Y-53657275D02*
X115859005Y-53657276D01*
X115859006Y-53657276D01*
X116039320Y-53731964D01*
X116199410Y-53838933D01*
X116201601Y-53840397D01*
X116339603Y-53978399D01*
X116339605Y-53978402D01*
X116448036Y-54140680D01*
X116522724Y-54320994D01*
X116560800Y-54512415D01*
X116560800Y-54707585D01*
X116522724Y-54899006D01*
X116448036Y-55079320D01*
X116448035Y-55079321D01*
X116339603Y-55241601D01*
X116201601Y-55379603D01*
X116201598Y-55379605D01*
X116039320Y-55488036D01*
X115859006Y-55562724D01*
X115859005Y-55562724D01*
X115859003Y-55562725D01*
X115667587Y-55600800D01*
X115472413Y-55600800D01*
X115280997Y-55562725D01*
X115280995Y-55562724D01*
X115280994Y-55562724D01*
X115100680Y-55488036D01*
X114938402Y-55379605D01*
X114938399Y-55379603D01*
X114800397Y-55241601D01*
X114691965Y-55079321D01*
X114691964Y-55079320D01*
X114617276Y-54899006D01*
X114579200Y-54707585D01*
X114579200Y-54512415D01*
X114617276Y-54320994D01*
X114691964Y-54140680D01*
X114800395Y-53978402D01*
X114800397Y-53978399D01*
X114938399Y-53840397D01*
X114940590Y-53838933D01*
X115100680Y-53731964D01*
X115280994Y-53657276D01*
X115280995Y-53657276D01*
X115280997Y-53657275D01*
X115472413Y-53619200D01*
X115667587Y-53619200D01*
X115859003Y-53657275D01*
X115859003Y-53657275D01*
G37*
G36*
X118399003Y-52387275D02*
X118399005Y-52387276D01*
X118399006Y-52387276D01*
X118579320Y-52461964D01*
X118579321Y-52461965D01*
X118741601Y-52570397D01*
X118879603Y-52708399D01*
X118879605Y-52708402D01*
X118988036Y-52870680D01*
X119062724Y-53050994D01*
X119100800Y-53242415D01*
X119100800Y-53437585D01*
X119062724Y-53629006D01*
X118988036Y-53809320D01*
X118988035Y-53809321D01*
X118879603Y-53971601D01*
X118741601Y-54109603D01*
X118741598Y-54109605D01*
X118579320Y-54218036D01*
X118399006Y-54292724D01*
X118399005Y-54292724D01*
X118399003Y-54292725D01*
X118207587Y-54330800D01*
X118012413Y-54330800D01*
X117820997Y-54292725D01*
X117820995Y-54292724D01*
X117820994Y-54292724D01*
X117640680Y-54218036D01*
X117478402Y-54109605D01*
X117478399Y-54109603D01*
X117340397Y-53971601D01*
X117231965Y-53809321D01*
X117231964Y-53809320D01*
X117157276Y-53629006D01*
X117119200Y-53437585D01*
X117119200Y-53242415D01*
X117157276Y-53050994D01*
X117231964Y-52870680D01*
X117340395Y-52708402D01*
X117340397Y-52708399D01*
X117478399Y-52570397D01*
X117640679Y-52461965D01*
X117640680Y-52461964D01*
X117820994Y-52387276D01*
X117820995Y-52387276D01*
X117820997Y-52387275D01*
X118012413Y-52349200D01*
X118207587Y-52349200D01*
X118399003Y-52387275D01*
X118399003Y-52387275D01*
G37*
G36*
X104556003Y-50736275D02*
X104556005Y-50736276D01*
X104556006Y-50736276D01*
X104736320Y-50810964D01*
X104736321Y-50810965D01*
X104898601Y-50919397D01*
X105036603Y-51057399D01*
X105036605Y-51057402D01*
X105145036Y-51219680D01*
X105219724Y-51399994D01*
X105219725Y-51399997D01*
X105253462Y-51569605D01*
X105257800Y-51591415D01*
X105257800Y-51786585D01*
X105219724Y-51978006D01*
X105145036Y-52158320D01*
X105145035Y-52158321D01*
X105036603Y-52320601D01*
X104898601Y-52458603D01*
X104898598Y-52458605D01*
X104736320Y-52567036D01*
X104556006Y-52641724D01*
X104556005Y-52641724D01*
X104556003Y-52641725D01*
X104364587Y-52679800D01*
X104169413Y-52679800D01*
X103977997Y-52641725D01*
X103977995Y-52641724D01*
X103977994Y-52641724D01*
X103797680Y-52567036D01*
X103635402Y-52458605D01*
X103635399Y-52458603D01*
X103497397Y-52320601D01*
X103388965Y-52158321D01*
X103388964Y-52158320D01*
X103314276Y-51978006D01*
X103276200Y-51786585D01*
X103276200Y-51591415D01*
X103280538Y-51569605D01*
X103314275Y-51399997D01*
X103314276Y-51399994D01*
X103388964Y-51219680D01*
X103497395Y-51057402D01*
X103497397Y-51057399D01*
X103635399Y-50919397D01*
X103797679Y-50810965D01*
X103797680Y-50810964D01*
X103977994Y-50736276D01*
X103977995Y-50736276D01*
X103977997Y-50736275D01*
X104169413Y-50698200D01*
X104364587Y-50698200D01*
X104556003Y-50736275D01*
X104556003Y-50736275D01*
G37*
G36*
X107096003Y-50736275D02*
X107096005Y-50736276D01*
X107096006Y-50736276D01*
X107276320Y-50810964D01*
X107276321Y-50810965D01*
X107438601Y-50919397D01*
X107576603Y-51057399D01*
X107576605Y-51057402D01*
X107685036Y-51219680D01*
X107759724Y-51399994D01*
X107759725Y-51399997D01*
X107793462Y-51569605D01*
X107797800Y-51591415D01*
X107797800Y-51786585D01*
X107759724Y-51978006D01*
X107685036Y-52158320D01*
X107685035Y-52158321D01*
X107576603Y-52320601D01*
X107438601Y-52458603D01*
X107438598Y-52458605D01*
X107276320Y-52567036D01*
X107096006Y-52641724D01*
X107096005Y-52641724D01*
X107096003Y-52641725D01*
X106904587Y-52679800D01*
X106709413Y-52679800D01*
X106517997Y-52641725D01*
X106517995Y-52641724D01*
X106517994Y-52641724D01*
X106337680Y-52567036D01*
X106175402Y-52458605D01*
X106175399Y-52458603D01*
X106037397Y-52320601D01*
X105928965Y-52158321D01*
X105928964Y-52158320D01*
X105854276Y-51978006D01*
X105816200Y-51786585D01*
X105816200Y-51591415D01*
X105820538Y-51569605D01*
X105854275Y-51399997D01*
X105854276Y-51399994D01*
X105928964Y-51219680D01*
X106037395Y-51057402D01*
X106037397Y-51057399D01*
X106175399Y-50919397D01*
X106337679Y-50810965D01*
X106337680Y-50810964D01*
X106517994Y-50736276D01*
X106517995Y-50736276D01*
X106517997Y-50736275D01*
X106709413Y-50698200D01*
X106904587Y-50698200D01*
X107096003Y-50736275D01*
X107096003Y-50736275D01*
G37*
G36*
X96682003Y-50736275D02*
X96682005Y-50736276D01*
X96682006Y-50736276D01*
X96862320Y-50810964D01*
X96862321Y-50810965D01*
X97024601Y-50919397D01*
X97162603Y-51057399D01*
X97162605Y-51057402D01*
X97271036Y-51219680D01*
X97345724Y-51399994D01*
X97345725Y-51399997D01*
X97379462Y-51569605D01*
X97383800Y-51591415D01*
X97383800Y-51786585D01*
X97345724Y-51978006D01*
X97271036Y-52158320D01*
X97271035Y-52158321D01*
X97162603Y-52320601D01*
X97024601Y-52458603D01*
X97024598Y-52458605D01*
X96862320Y-52567036D01*
X96682006Y-52641724D01*
X96682005Y-52641724D01*
X96682003Y-52641725D01*
X96490587Y-52679800D01*
X96295413Y-52679800D01*
X96103997Y-52641725D01*
X96103995Y-52641724D01*
X96103994Y-52641724D01*
X95923680Y-52567036D01*
X95761402Y-52458605D01*
X95761399Y-52458603D01*
X95623397Y-52320601D01*
X95514965Y-52158321D01*
X95514964Y-52158320D01*
X95440276Y-51978006D01*
X95402200Y-51786585D01*
X95402200Y-51591415D01*
X95406538Y-51569605D01*
X95440275Y-51399997D01*
X95440276Y-51399994D01*
X95514964Y-51219680D01*
X95623395Y-51057402D01*
X95623397Y-51057399D01*
X95761399Y-50919397D01*
X95923679Y-50810965D01*
X95923680Y-50810964D01*
X96103994Y-50736276D01*
X96103995Y-50736276D01*
X96103997Y-50736275D01*
X96295413Y-50698200D01*
X96490587Y-50698200D01*
X96682003Y-50736275D01*
X96682003Y-50736275D01*
G37*
G36*
X94142003Y-50736275D02*
X94142005Y-50736276D01*
X94142006Y-50736276D01*
X94322320Y-50810964D01*
X94322321Y-50810965D01*
X94484601Y-50919397D01*
X94622603Y-51057399D01*
X94622605Y-51057402D01*
X94731036Y-51219680D01*
X94805724Y-51399994D01*
X94805725Y-51399997D01*
X94839462Y-51569605D01*
X94843800Y-51591415D01*
X94843800Y-51786585D01*
X94805724Y-51978006D01*
X94731036Y-52158320D01*
X94731035Y-52158321D01*
X94622603Y-52320601D01*
X94484601Y-52458603D01*
X94484598Y-52458605D01*
X94322320Y-52567036D01*
X94142006Y-52641724D01*
X94142005Y-52641724D01*
X94142003Y-52641725D01*
X93950587Y-52679800D01*
X93755413Y-52679800D01*
X93563997Y-52641725D01*
X93563995Y-52641724D01*
X93563994Y-52641724D01*
X93383680Y-52567036D01*
X93221402Y-52458605D01*
X93221399Y-52458603D01*
X93083397Y-52320601D01*
X92974965Y-52158321D01*
X92974964Y-52158320D01*
X92900276Y-51978006D01*
X92862200Y-51786585D01*
X92862200Y-51591415D01*
X92866538Y-51569605D01*
X92900275Y-51399997D01*
X92900276Y-51399994D01*
X92974964Y-51219680D01*
X93083395Y-51057402D01*
X93083397Y-51057399D01*
X93221399Y-50919397D01*
X93383679Y-50810965D01*
X93383680Y-50810964D01*
X93563994Y-50736276D01*
X93563995Y-50736276D01*
X93563997Y-50736275D01*
X93755413Y-50698200D01*
X93950587Y-50698200D01*
X94142003Y-50736275D01*
X94142003Y-50736275D01*
G37*
G36*
X118399003Y-49847275D02*
X118399005Y-49847276D01*
X118399006Y-49847276D01*
X118579320Y-49921964D01*
X118579321Y-49921965D01*
X118741601Y-50030397D01*
X118879603Y-50168399D01*
X118879605Y-50168402D01*
X118988036Y-50330680D01*
X119062724Y-50510994D01*
X119062725Y-50510997D01*
X119100800Y-50702413D01*
X119100800Y-50897587D01*
X119069011Y-51057402D01*
X119062724Y-51089006D01*
X118988036Y-51269320D01*
X118988035Y-51269321D01*
X118879603Y-51431601D01*
X118741601Y-51569603D01*
X118741598Y-51569605D01*
X118579320Y-51678036D01*
X118399006Y-51752724D01*
X118399005Y-51752724D01*
X118399003Y-51752725D01*
X118207587Y-51790800D01*
X118012413Y-51790800D01*
X117820997Y-51752725D01*
X117820995Y-51752724D01*
X117820994Y-51752724D01*
X117640680Y-51678036D01*
X117478402Y-51569605D01*
X117478399Y-51569603D01*
X117340397Y-51431601D01*
X117231965Y-51269321D01*
X117231964Y-51269320D01*
X117157276Y-51089006D01*
X117150990Y-51057402D01*
X117119200Y-50897587D01*
X117119200Y-50702413D01*
X117157275Y-50510997D01*
X117157276Y-50510994D01*
X117231964Y-50330680D01*
X117340395Y-50168402D01*
X117340397Y-50168399D01*
X117478399Y-50030397D01*
X117640679Y-49921965D01*
X117640680Y-49921964D01*
X117820994Y-49847276D01*
X117820995Y-49847276D01*
X117820997Y-49847275D01*
X118012413Y-49809200D01*
X118207587Y-49809200D01*
X118399003Y-49847275D01*
X118399003Y-49847275D01*
G37*
G36*
X78850443Y-48635519D02*
X78916627Y-48642037D01*
X79029853Y-48676384D01*
X79086467Y-48693557D01*
X79225087Y-48767652D01*
X79242991Y-48777222D01*
X79278729Y-48806552D01*
X79380186Y-48889814D01*
X79463448Y-48991271D01*
X79492778Y-49027009D01*
X79494166Y-49029605D01*
X79576443Y-49183533D01*
X79576443Y-49183534D01*
X79627963Y-49353373D01*
X79645359Y-49530000D01*
X79627963Y-49706627D01*
X79596848Y-49809200D01*
X79576443Y-49876467D01*
X79552124Y-49921964D01*
X79492778Y-50032991D01*
X79463448Y-50068729D01*
X79380186Y-50170186D01*
X79278729Y-50253448D01*
X79242991Y-50282778D01*
X79242989Y-50282779D01*
X79086467Y-50366443D01*
X79029853Y-50383616D01*
X78916627Y-50417963D01*
X78850443Y-50424481D01*
X78784260Y-50431000D01*
X78695740Y-50431000D01*
X78629558Y-50424482D01*
X78563373Y-50417963D01*
X78450147Y-50383616D01*
X78393533Y-50366443D01*
X78237011Y-50282779D01*
X78237009Y-50282778D01*
X78201271Y-50253448D01*
X78099814Y-50170186D01*
X78016552Y-50068729D01*
X77987222Y-50032991D01*
X77927876Y-49921964D01*
X77903557Y-49876467D01*
X77883152Y-49809200D01*
X77852037Y-49706627D01*
X77834641Y-49530000D01*
X77852037Y-49353373D01*
X77903557Y-49183534D01*
X77903557Y-49183533D01*
X77985834Y-49029605D01*
X77987222Y-49027009D01*
X78016552Y-48991271D01*
X78099814Y-48889814D01*
X78201271Y-48806552D01*
X78237009Y-48777222D01*
X78254913Y-48767652D01*
X78393533Y-48693557D01*
X78450147Y-48676384D01*
X78563373Y-48642037D01*
X78629557Y-48635519D01*
X78695740Y-48629000D01*
X78784260Y-48629000D01*
X78850443Y-48635519D01*
X78850443Y-48635519D01*
G37*
G36*
X118399003Y-47307275D02*
X118399005Y-47307276D01*
X118399006Y-47307276D01*
X118579320Y-47381964D01*
X118579321Y-47381965D01*
X118741601Y-47490397D01*
X118879603Y-47628399D01*
X118879605Y-47628402D01*
X118988036Y-47790680D01*
X119062724Y-47970994D01*
X119100800Y-48162415D01*
X119100800Y-48357585D01*
X119062724Y-48549006D01*
X118988036Y-48729320D01*
X118988035Y-48729321D01*
X118879603Y-48891601D01*
X118741601Y-49029603D01*
X118741598Y-49029605D01*
X118579320Y-49138036D01*
X118399006Y-49212724D01*
X118399005Y-49212724D01*
X118399003Y-49212725D01*
X118207587Y-49250800D01*
X118012413Y-49250800D01*
X117820997Y-49212725D01*
X117820995Y-49212724D01*
X117820994Y-49212724D01*
X117640680Y-49138036D01*
X117478402Y-49029605D01*
X117478399Y-49029603D01*
X117340397Y-48891601D01*
X117231965Y-48729321D01*
X117231964Y-48729320D01*
X117157276Y-48549006D01*
X117119200Y-48357585D01*
X117119200Y-48162415D01*
X117157276Y-47970994D01*
X117231964Y-47790680D01*
X117340395Y-47628402D01*
X117340397Y-47628399D01*
X117478399Y-47490397D01*
X117640679Y-47381965D01*
X117640680Y-47381964D01*
X117820994Y-47307276D01*
X117820995Y-47307276D01*
X117820997Y-47307275D01*
X118012413Y-47269200D01*
X118207587Y-47269200D01*
X118399003Y-47307275D01*
X118399003Y-47307275D01*
G37*
G36*
X78850442Y-46095518D02*
X78916627Y-46102037D01*
X79029853Y-46136384D01*
X79086467Y-46153557D01*
X79225087Y-46227652D01*
X79242991Y-46237222D01*
X79278729Y-46266552D01*
X79380186Y-46349814D01*
X79463448Y-46451271D01*
X79492778Y-46487009D01*
X79494166Y-46489605D01*
X79576443Y-46643533D01*
X79576443Y-46643534D01*
X79627963Y-46813373D01*
X79645359Y-46990000D01*
X79627963Y-47166627D01*
X79596848Y-47269200D01*
X79576443Y-47336467D01*
X79552124Y-47381964D01*
X79492778Y-47492991D01*
X79463448Y-47528729D01*
X79380186Y-47630186D01*
X79278729Y-47713448D01*
X79242991Y-47742778D01*
X79242989Y-47742779D01*
X79086467Y-47826443D01*
X79029853Y-47843616D01*
X78916627Y-47877963D01*
X78850443Y-47884481D01*
X78784260Y-47891000D01*
X78695740Y-47891000D01*
X78629557Y-47884481D01*
X78563373Y-47877963D01*
X78450147Y-47843616D01*
X78393533Y-47826443D01*
X78237011Y-47742779D01*
X78237009Y-47742778D01*
X78201271Y-47713448D01*
X78099814Y-47630186D01*
X78016552Y-47528729D01*
X77987222Y-47492991D01*
X77927876Y-47381964D01*
X77903557Y-47336467D01*
X77883152Y-47269200D01*
X77852037Y-47166627D01*
X77834641Y-46990000D01*
X77852037Y-46813373D01*
X77903557Y-46643534D01*
X77903557Y-46643533D01*
X77985834Y-46489605D01*
X77987222Y-46487009D01*
X78016552Y-46451271D01*
X78099814Y-46349814D01*
X78201271Y-46266552D01*
X78237009Y-46237222D01*
X78254913Y-46227652D01*
X78393533Y-46153557D01*
X78450147Y-46136384D01*
X78563373Y-46102037D01*
X78629558Y-46095518D01*
X78695740Y-46089000D01*
X78784260Y-46089000D01*
X78850442Y-46095518D01*
X78850442Y-46095518D01*
G37*
G36*
X118399003Y-44767275D02*
X118399005Y-44767276D01*
X118399006Y-44767276D01*
X118579320Y-44841964D01*
X118579321Y-44841965D01*
X118741601Y-44950397D01*
X118879603Y-45088399D01*
X118879605Y-45088402D01*
X118988036Y-45250680D01*
X119062724Y-45430994D01*
X119100800Y-45622415D01*
X119100800Y-45817585D01*
X119062724Y-46009006D01*
X118988036Y-46189320D01*
X118988035Y-46189321D01*
X118879603Y-46351601D01*
X118741601Y-46489603D01*
X118741598Y-46489605D01*
X118579320Y-46598036D01*
X118399006Y-46672724D01*
X118399005Y-46672724D01*
X118399003Y-46672725D01*
X118207587Y-46710800D01*
X118012413Y-46710800D01*
X117820997Y-46672725D01*
X117820995Y-46672724D01*
X117820994Y-46672724D01*
X117640680Y-46598036D01*
X117478402Y-46489605D01*
X117478399Y-46489603D01*
X117340397Y-46351601D01*
X117231965Y-46189321D01*
X117231964Y-46189320D01*
X117157276Y-46009006D01*
X117119200Y-45817585D01*
X117119200Y-45622415D01*
X117157276Y-45430994D01*
X117231964Y-45250680D01*
X117340395Y-45088402D01*
X117340397Y-45088399D01*
X117478399Y-44950397D01*
X117640679Y-44841965D01*
X117640680Y-44841964D01*
X117820994Y-44767276D01*
X117820995Y-44767276D01*
X117820997Y-44767275D01*
X118012413Y-44729200D01*
X118207587Y-44729200D01*
X118399003Y-44767275D01*
X118399003Y-44767275D01*
G37*
G36*
X78850443Y-43555519D02*
X78916627Y-43562037D01*
X79029853Y-43596384D01*
X79086467Y-43613557D01*
X79225087Y-43687652D01*
X79242991Y-43697222D01*
X79278729Y-43726552D01*
X79380186Y-43809814D01*
X79463448Y-43911271D01*
X79492778Y-43947009D01*
X79494166Y-43949605D01*
X79576443Y-44103533D01*
X79576443Y-44103534D01*
X79627963Y-44273373D01*
X79645359Y-44450000D01*
X79627963Y-44626627D01*
X79596848Y-44729200D01*
X79576443Y-44796467D01*
X79552124Y-44841964D01*
X79492778Y-44952991D01*
X79463448Y-44988729D01*
X79380186Y-45090186D01*
X79278729Y-45173448D01*
X79242991Y-45202778D01*
X79242989Y-45202779D01*
X79086467Y-45286443D01*
X79029853Y-45303616D01*
X78916627Y-45337963D01*
X78850442Y-45344482D01*
X78784260Y-45351000D01*
X78695740Y-45351000D01*
X78629558Y-45344482D01*
X78563373Y-45337963D01*
X78450147Y-45303616D01*
X78393533Y-45286443D01*
X78237011Y-45202779D01*
X78237009Y-45202778D01*
X78201271Y-45173448D01*
X78099814Y-45090186D01*
X78016552Y-44988729D01*
X77987222Y-44952991D01*
X77927876Y-44841964D01*
X77903557Y-44796467D01*
X77883152Y-44729200D01*
X77852037Y-44626627D01*
X77834641Y-44450000D01*
X77852037Y-44273373D01*
X77903557Y-44103534D01*
X77903557Y-44103533D01*
X77985834Y-43949605D01*
X77987222Y-43947009D01*
X78016552Y-43911271D01*
X78099814Y-43809814D01*
X78201271Y-43726552D01*
X78237009Y-43697222D01*
X78254913Y-43687652D01*
X78393533Y-43613557D01*
X78450147Y-43596384D01*
X78563373Y-43562037D01*
X78629557Y-43555519D01*
X78695740Y-43549000D01*
X78784260Y-43549000D01*
X78850443Y-43555519D01*
X78850443Y-43555519D01*
G37*
G36*
X118399003Y-42227275D02*
X118399005Y-42227276D01*
X118399006Y-42227276D01*
X118579320Y-42301964D01*
X118579321Y-42301965D01*
X118741601Y-42410397D01*
X118879603Y-42548399D01*
X118879605Y-42548402D01*
X118988036Y-42710680D01*
X119062724Y-42890994D01*
X119100800Y-43082415D01*
X119100800Y-43277585D01*
X119062724Y-43469006D01*
X118988036Y-43649320D01*
X118988035Y-43649321D01*
X118879603Y-43811601D01*
X118741601Y-43949603D01*
X118741598Y-43949605D01*
X118579320Y-44058036D01*
X118399006Y-44132724D01*
X118399005Y-44132724D01*
X118399003Y-44132725D01*
X118207587Y-44170800D01*
X118012413Y-44170800D01*
X117820997Y-44132725D01*
X117820995Y-44132724D01*
X117820994Y-44132724D01*
X117640680Y-44058036D01*
X117478402Y-43949605D01*
X117478399Y-43949603D01*
X117340397Y-43811601D01*
X117231965Y-43649321D01*
X117231964Y-43649320D01*
X117157276Y-43469006D01*
X117119200Y-43277585D01*
X117119200Y-43082415D01*
X117157276Y-42890994D01*
X117231964Y-42710680D01*
X117340395Y-42548402D01*
X117340397Y-42548399D01*
X117478399Y-42410397D01*
X117640679Y-42301965D01*
X117640680Y-42301964D01*
X117820994Y-42227276D01*
X117820995Y-42227276D01*
X117820997Y-42227275D01*
X118012413Y-42189200D01*
X118207587Y-42189200D01*
X118399003Y-42227275D01*
X118399003Y-42227275D01*
G37*
G36*
X79641000Y-42811000D02*
X77839000Y-42811000D01*
X77839000Y-41009000D01*
X79641000Y-41009000D01*
X79641000Y-42811000D01*
X79641000Y-42811000D01*
G37*
G36*
X118399003Y-39687275D02*
X118399005Y-39687276D01*
X118399006Y-39687276D01*
X118579320Y-39761964D01*
X118739410Y-39868933D01*
X118741601Y-39870397D01*
X118879603Y-40008399D01*
X118879605Y-40008402D01*
X118988036Y-40170680D01*
X119062724Y-40350994D01*
X119100800Y-40542415D01*
X119100800Y-40737585D01*
X119062724Y-40929006D01*
X118988036Y-41109320D01*
X118988035Y-41109321D01*
X118879603Y-41271601D01*
X118741601Y-41409603D01*
X118741598Y-41409605D01*
X118579320Y-41518036D01*
X118399006Y-41592724D01*
X118399005Y-41592724D01*
X118399003Y-41592725D01*
X118207587Y-41630800D01*
X118012413Y-41630800D01*
X117820997Y-41592725D01*
X117820995Y-41592724D01*
X117820994Y-41592724D01*
X117640680Y-41518036D01*
X117478402Y-41409605D01*
X117478399Y-41409603D01*
X117340397Y-41271601D01*
X117231965Y-41109321D01*
X117231964Y-41109320D01*
X117157276Y-40929006D01*
X117119200Y-40737585D01*
X117119200Y-40542415D01*
X117157276Y-40350994D01*
X117231964Y-40170680D01*
X117340395Y-40008402D01*
X117340397Y-40008399D01*
X117478399Y-39870397D01*
X117480590Y-39868933D01*
X117640680Y-39761964D01*
X117820994Y-39687276D01*
X117820995Y-39687276D01*
X117820997Y-39687275D01*
X118012413Y-39649200D01*
X118207587Y-39649200D01*
X118399003Y-39687275D01*
X118399003Y-39687275D01*
G37*
G36*
X90459003Y-38417275D02*
X90459005Y-38417276D01*
X90459006Y-38417276D01*
X90639320Y-38491964D01*
X90639321Y-38491965D01*
X90801601Y-38600397D01*
X90939603Y-38738399D01*
X90939605Y-38738402D01*
X91048036Y-38900680D01*
X91122724Y-39080994D01*
X91160800Y-39272415D01*
X91160800Y-39467585D01*
X91122724Y-39659006D01*
X91048036Y-39839320D01*
X91048035Y-39839321D01*
X90939603Y-40001601D01*
X90801601Y-40139603D01*
X90801598Y-40139605D01*
X90639320Y-40248036D01*
X90459006Y-40322724D01*
X90459005Y-40322724D01*
X90459003Y-40322725D01*
X90267587Y-40360800D01*
X90072413Y-40360800D01*
X89880997Y-40322725D01*
X89880995Y-40322724D01*
X89880994Y-40322724D01*
X89700680Y-40248036D01*
X89538402Y-40139605D01*
X89538399Y-40139603D01*
X89400397Y-40001601D01*
X89291965Y-39839321D01*
X89291964Y-39839320D01*
X89217276Y-39659006D01*
X89179200Y-39467585D01*
X89179200Y-39272415D01*
X89217276Y-39080994D01*
X89291964Y-38900680D01*
X89400395Y-38738402D01*
X89400397Y-38738399D01*
X89538399Y-38600397D01*
X89700679Y-38491965D01*
X89700680Y-38491964D01*
X89880994Y-38417276D01*
X89880995Y-38417276D01*
X89880997Y-38417275D01*
X90072413Y-38379200D01*
X90267587Y-38379200D01*
X90459003Y-38417275D01*
X90459003Y-38417275D01*
G37*
G36*
X92999003Y-38417275D02*
X92999005Y-38417276D01*
X92999006Y-38417276D01*
X93179320Y-38491964D01*
X93179321Y-38491965D01*
X93341601Y-38600397D01*
X93479603Y-38738399D01*
X93479605Y-38738402D01*
X93588036Y-38900680D01*
X93662724Y-39080994D01*
X93700800Y-39272415D01*
X93700800Y-39467585D01*
X93662724Y-39659006D01*
X93588036Y-39839320D01*
X93588035Y-39839321D01*
X93479603Y-40001601D01*
X93341601Y-40139603D01*
X93341598Y-40139605D01*
X93179320Y-40248036D01*
X92999006Y-40322724D01*
X92999005Y-40322724D01*
X92999003Y-40322725D01*
X92807587Y-40360800D01*
X92612413Y-40360800D01*
X92420997Y-40322725D01*
X92420995Y-40322724D01*
X92420994Y-40322724D01*
X92240680Y-40248036D01*
X92078402Y-40139605D01*
X92078399Y-40139603D01*
X91940397Y-40001601D01*
X91831965Y-39839321D01*
X91831964Y-39839320D01*
X91757276Y-39659006D01*
X91719200Y-39467585D01*
X91719200Y-39272415D01*
X91757276Y-39080994D01*
X91831964Y-38900680D01*
X91940395Y-38738402D01*
X91940397Y-38738399D01*
X92078399Y-38600397D01*
X92240679Y-38491965D01*
X92240680Y-38491964D01*
X92420994Y-38417276D01*
X92420995Y-38417276D01*
X92420997Y-38417275D01*
X92612413Y-38379200D01*
X92807587Y-38379200D01*
X92999003Y-38417275D01*
X92999003Y-38417275D01*
G37*
G36*
X95539003Y-38417275D02*
X95539005Y-38417276D01*
X95539006Y-38417276D01*
X95719320Y-38491964D01*
X95719321Y-38491965D01*
X95881601Y-38600397D01*
X96019603Y-38738399D01*
X96019605Y-38738402D01*
X96128036Y-38900680D01*
X96202724Y-39080994D01*
X96240800Y-39272415D01*
X96240800Y-39467585D01*
X96202724Y-39659006D01*
X96128036Y-39839320D01*
X96128035Y-39839321D01*
X96019603Y-40001601D01*
X95881601Y-40139603D01*
X95881598Y-40139605D01*
X95719320Y-40248036D01*
X95539006Y-40322724D01*
X95539005Y-40322724D01*
X95539003Y-40322725D01*
X95347587Y-40360800D01*
X95152413Y-40360800D01*
X94960997Y-40322725D01*
X94960995Y-40322724D01*
X94960994Y-40322724D01*
X94780680Y-40248036D01*
X94618402Y-40139605D01*
X94618399Y-40139603D01*
X94480397Y-40001601D01*
X94371965Y-39839321D01*
X94371964Y-39839320D01*
X94297276Y-39659006D01*
X94259200Y-39467585D01*
X94259200Y-39272415D01*
X94297276Y-39080994D01*
X94371964Y-38900680D01*
X94480395Y-38738402D01*
X94480397Y-38738399D01*
X94618399Y-38600397D01*
X94780679Y-38491965D01*
X94780680Y-38491964D01*
X94960994Y-38417276D01*
X94960995Y-38417276D01*
X94960997Y-38417275D01*
X95152413Y-38379200D01*
X95347587Y-38379200D01*
X95539003Y-38417275D01*
X95539003Y-38417275D01*
G37*
G36*
X108239003Y-38417275D02*
X108239005Y-38417276D01*
X108239006Y-38417276D01*
X108419320Y-38491964D01*
X108419321Y-38491965D01*
X108581601Y-38600397D01*
X108719603Y-38738399D01*
X108719605Y-38738402D01*
X108828036Y-38900680D01*
X108902724Y-39080994D01*
X108940800Y-39272415D01*
X108940800Y-39467585D01*
X108902724Y-39659006D01*
X108828036Y-39839320D01*
X108828035Y-39839321D01*
X108719603Y-40001601D01*
X108581601Y-40139603D01*
X108581598Y-40139605D01*
X108419320Y-40248036D01*
X108239006Y-40322724D01*
X108239005Y-40322724D01*
X108239003Y-40322725D01*
X108047587Y-40360800D01*
X107852413Y-40360800D01*
X107660997Y-40322725D01*
X107660995Y-40322724D01*
X107660994Y-40322724D01*
X107480680Y-40248036D01*
X107318402Y-40139605D01*
X107318399Y-40139603D01*
X107180397Y-40001601D01*
X107071965Y-39839321D01*
X107071964Y-39839320D01*
X106997276Y-39659006D01*
X106959200Y-39467585D01*
X106959200Y-39272415D01*
X106997276Y-39080994D01*
X107071964Y-38900680D01*
X107180395Y-38738402D01*
X107180397Y-38738399D01*
X107318399Y-38600397D01*
X107480679Y-38491965D01*
X107480680Y-38491964D01*
X107660994Y-38417276D01*
X107660995Y-38417276D01*
X107660997Y-38417275D01*
X107852413Y-38379200D01*
X108047587Y-38379200D01*
X108239003Y-38417275D01*
X108239003Y-38417275D01*
G37*
G36*
X98079003Y-38417275D02*
X98079005Y-38417276D01*
X98079006Y-38417276D01*
X98259320Y-38491964D01*
X98259321Y-38491965D01*
X98421601Y-38600397D01*
X98559603Y-38738399D01*
X98559605Y-38738402D01*
X98668036Y-38900680D01*
X98742724Y-39080994D01*
X98780800Y-39272415D01*
X98780800Y-39467585D01*
X98742724Y-39659006D01*
X98668036Y-39839320D01*
X98668035Y-39839321D01*
X98559603Y-40001601D01*
X98421601Y-40139603D01*
X98421598Y-40139605D01*
X98259320Y-40248036D01*
X98079006Y-40322724D01*
X98079005Y-40322724D01*
X98079003Y-40322725D01*
X97887587Y-40360800D01*
X97692413Y-40360800D01*
X97500997Y-40322725D01*
X97500995Y-40322724D01*
X97500994Y-40322724D01*
X97320680Y-40248036D01*
X97158402Y-40139605D01*
X97158399Y-40139603D01*
X97020397Y-40001601D01*
X96911965Y-39839321D01*
X96911964Y-39839320D01*
X96837276Y-39659006D01*
X96799200Y-39467585D01*
X96799200Y-39272415D01*
X96837276Y-39080994D01*
X96911964Y-38900680D01*
X97020395Y-38738402D01*
X97020397Y-38738399D01*
X97158399Y-38600397D01*
X97320679Y-38491965D01*
X97320680Y-38491964D01*
X97500994Y-38417276D01*
X97500995Y-38417276D01*
X97500997Y-38417275D01*
X97692413Y-38379200D01*
X97887587Y-38379200D01*
X98079003Y-38417275D01*
X98079003Y-38417275D01*
G37*
G36*
X87919003Y-38417275D02*
X87919005Y-38417276D01*
X87919006Y-38417276D01*
X88099320Y-38491964D01*
X88099321Y-38491965D01*
X88261601Y-38600397D01*
X88399603Y-38738399D01*
X88399605Y-38738402D01*
X88508036Y-38900680D01*
X88582724Y-39080994D01*
X88620800Y-39272415D01*
X88620800Y-39467585D01*
X88582724Y-39659006D01*
X88508036Y-39839320D01*
X88508035Y-39839321D01*
X88399603Y-40001601D01*
X88261601Y-40139603D01*
X88261598Y-40139605D01*
X88099320Y-40248036D01*
X87919006Y-40322724D01*
X87919005Y-40322724D01*
X87919003Y-40322725D01*
X87727587Y-40360800D01*
X87532413Y-40360800D01*
X87340997Y-40322725D01*
X87340995Y-40322724D01*
X87340994Y-40322724D01*
X87160680Y-40248036D01*
X86998402Y-40139605D01*
X86998399Y-40139603D01*
X86860397Y-40001601D01*
X86751965Y-39839321D01*
X86751964Y-39839320D01*
X86677276Y-39659006D01*
X86639200Y-39467585D01*
X86639200Y-39272415D01*
X86677276Y-39080994D01*
X86751964Y-38900680D01*
X86860395Y-38738402D01*
X86860397Y-38738399D01*
X86998399Y-38600397D01*
X87160679Y-38491965D01*
X87160680Y-38491964D01*
X87340994Y-38417276D01*
X87340995Y-38417276D01*
X87340997Y-38417275D01*
X87532413Y-38379200D01*
X87727587Y-38379200D01*
X87919003Y-38417275D01*
X87919003Y-38417275D01*
G37*
G36*
X115859003Y-38417275D02*
X115859005Y-38417276D01*
X115859006Y-38417276D01*
X116039320Y-38491964D01*
X116039321Y-38491965D01*
X116201601Y-38600397D01*
X116339603Y-38738399D01*
X116339605Y-38738402D01*
X116448036Y-38900680D01*
X116522724Y-39080994D01*
X116560800Y-39272415D01*
X116560800Y-39467585D01*
X116522724Y-39659006D01*
X116448036Y-39839320D01*
X116448035Y-39839321D01*
X116339603Y-40001601D01*
X116201601Y-40139603D01*
X116201598Y-40139605D01*
X116039320Y-40248036D01*
X115859006Y-40322724D01*
X115859005Y-40322724D01*
X115859003Y-40322725D01*
X115667587Y-40360800D01*
X115472413Y-40360800D01*
X115280997Y-40322725D01*
X115280995Y-40322724D01*
X115280994Y-40322724D01*
X115100680Y-40248036D01*
X114938402Y-40139605D01*
X114938399Y-40139603D01*
X114800397Y-40001601D01*
X114691965Y-39839321D01*
X114691964Y-39839320D01*
X114617276Y-39659006D01*
X114579200Y-39467585D01*
X114579200Y-39272415D01*
X114617276Y-39080994D01*
X114691964Y-38900680D01*
X114800395Y-38738402D01*
X114800397Y-38738399D01*
X114938399Y-38600397D01*
X115100679Y-38491965D01*
X115100680Y-38491964D01*
X115280994Y-38417276D01*
X115280995Y-38417276D01*
X115280997Y-38417275D01*
X115472413Y-38379200D01*
X115667587Y-38379200D01*
X115859003Y-38417275D01*
X115859003Y-38417275D01*
G37*
G36*
X113319003Y-38417275D02*
X113319005Y-38417276D01*
X113319006Y-38417276D01*
X113499320Y-38491964D01*
X113499321Y-38491965D01*
X113661601Y-38600397D01*
X113799603Y-38738399D01*
X113799605Y-38738402D01*
X113908036Y-38900680D01*
X113982724Y-39080994D01*
X114020800Y-39272415D01*
X114020800Y-39467585D01*
X113982724Y-39659006D01*
X113908036Y-39839320D01*
X113908035Y-39839321D01*
X113799603Y-40001601D01*
X113661601Y-40139603D01*
X113661598Y-40139605D01*
X113499320Y-40248036D01*
X113319006Y-40322724D01*
X113319005Y-40322724D01*
X113319003Y-40322725D01*
X113127587Y-40360800D01*
X112932413Y-40360800D01*
X112740997Y-40322725D01*
X112740995Y-40322724D01*
X112740994Y-40322724D01*
X112560680Y-40248036D01*
X112398402Y-40139605D01*
X112398399Y-40139603D01*
X112260397Y-40001601D01*
X112151965Y-39839321D01*
X112151964Y-39839320D01*
X112077276Y-39659006D01*
X112039200Y-39467585D01*
X112039200Y-39272415D01*
X112077276Y-39080994D01*
X112151964Y-38900680D01*
X112260395Y-38738402D01*
X112260397Y-38738399D01*
X112398399Y-38600397D01*
X112560679Y-38491965D01*
X112560680Y-38491964D01*
X112740994Y-38417276D01*
X112740995Y-38417276D01*
X112740997Y-38417275D01*
X112932413Y-38379200D01*
X113127587Y-38379200D01*
X113319003Y-38417275D01*
X113319003Y-38417275D01*
G37*
G36*
X100619003Y-38417275D02*
X100619005Y-38417276D01*
X100619006Y-38417276D01*
X100799320Y-38491964D01*
X100799321Y-38491965D01*
X100961601Y-38600397D01*
X101099603Y-38738399D01*
X101099605Y-38738402D01*
X101208036Y-38900680D01*
X101282724Y-39080994D01*
X101320800Y-39272415D01*
X101320800Y-39467585D01*
X101282724Y-39659006D01*
X101208036Y-39839320D01*
X101208035Y-39839321D01*
X101099603Y-40001601D01*
X100961601Y-40139603D01*
X100961598Y-40139605D01*
X100799320Y-40248036D01*
X100619006Y-40322724D01*
X100619005Y-40322724D01*
X100619003Y-40322725D01*
X100427587Y-40360800D01*
X100232413Y-40360800D01*
X100040997Y-40322725D01*
X100040995Y-40322724D01*
X100040994Y-40322724D01*
X99860680Y-40248036D01*
X99698402Y-40139605D01*
X99698399Y-40139603D01*
X99560397Y-40001601D01*
X99451965Y-39839321D01*
X99451964Y-39839320D01*
X99377276Y-39659006D01*
X99339200Y-39467585D01*
X99339200Y-39272415D01*
X99377276Y-39080994D01*
X99451964Y-38900680D01*
X99560395Y-38738402D01*
X99560397Y-38738399D01*
X99698399Y-38600397D01*
X99860679Y-38491965D01*
X99860680Y-38491964D01*
X100040994Y-38417276D01*
X100040995Y-38417276D01*
X100040997Y-38417275D01*
X100232413Y-38379200D01*
X100427587Y-38379200D01*
X100619003Y-38417275D01*
X100619003Y-38417275D01*
G37*
G36*
X103159003Y-38417275D02*
X103159005Y-38417276D01*
X103159006Y-38417276D01*
X103339320Y-38491964D01*
X103339321Y-38491965D01*
X103501601Y-38600397D01*
X103639603Y-38738399D01*
X103639605Y-38738402D01*
X103748036Y-38900680D01*
X103822724Y-39080994D01*
X103860800Y-39272415D01*
X103860800Y-39467585D01*
X103822724Y-39659006D01*
X103748036Y-39839320D01*
X103748035Y-39839321D01*
X103639603Y-40001601D01*
X103501601Y-40139603D01*
X103501598Y-40139605D01*
X103339320Y-40248036D01*
X103159006Y-40322724D01*
X103159005Y-40322724D01*
X103159003Y-40322725D01*
X102967587Y-40360800D01*
X102772413Y-40360800D01*
X102580997Y-40322725D01*
X102580995Y-40322724D01*
X102580994Y-40322724D01*
X102400680Y-40248036D01*
X102238402Y-40139605D01*
X102238399Y-40139603D01*
X102100397Y-40001601D01*
X101991965Y-39839321D01*
X101991964Y-39839320D01*
X101917276Y-39659006D01*
X101879200Y-39467585D01*
X101879200Y-39272415D01*
X101917276Y-39080994D01*
X101991964Y-38900680D01*
X102100395Y-38738402D01*
X102100397Y-38738399D01*
X102238399Y-38600397D01*
X102400679Y-38491965D01*
X102400680Y-38491964D01*
X102580994Y-38417276D01*
X102580995Y-38417276D01*
X102580997Y-38417275D01*
X102772413Y-38379200D01*
X102967587Y-38379200D01*
X103159003Y-38417275D01*
X103159003Y-38417275D01*
G37*
G36*
X105699003Y-38417275D02*
X105699005Y-38417276D01*
X105699006Y-38417276D01*
X105879320Y-38491964D01*
X105879321Y-38491965D01*
X106041601Y-38600397D01*
X106179603Y-38738399D01*
X106179605Y-38738402D01*
X106288036Y-38900680D01*
X106362724Y-39080994D01*
X106400800Y-39272415D01*
X106400800Y-39467585D01*
X106362724Y-39659006D01*
X106288036Y-39839320D01*
X106288035Y-39839321D01*
X106179603Y-40001601D01*
X106041601Y-40139603D01*
X106041598Y-40139605D01*
X105879320Y-40248036D01*
X105699006Y-40322724D01*
X105699005Y-40322724D01*
X105699003Y-40322725D01*
X105507587Y-40360800D01*
X105312413Y-40360800D01*
X105120997Y-40322725D01*
X105120995Y-40322724D01*
X105120994Y-40322724D01*
X104940680Y-40248036D01*
X104778402Y-40139605D01*
X104778399Y-40139603D01*
X104640397Y-40001601D01*
X104531965Y-39839321D01*
X104531964Y-39839320D01*
X104457276Y-39659006D01*
X104419200Y-39467585D01*
X104419200Y-39272415D01*
X104457276Y-39080994D01*
X104531964Y-38900680D01*
X104640395Y-38738402D01*
X104640397Y-38738399D01*
X104778399Y-38600397D01*
X104940679Y-38491965D01*
X104940680Y-38491964D01*
X105120994Y-38417276D01*
X105120995Y-38417276D01*
X105120997Y-38417275D01*
X105312413Y-38379200D01*
X105507587Y-38379200D01*
X105699003Y-38417275D01*
X105699003Y-38417275D01*
G37*
G36*
X110779003Y-38417275D02*
X110779005Y-38417276D01*
X110779006Y-38417276D01*
X110959320Y-38491964D01*
X110959321Y-38491965D01*
X111121601Y-38600397D01*
X111259603Y-38738399D01*
X111259605Y-38738402D01*
X111368036Y-38900680D01*
X111442724Y-39080994D01*
X111480800Y-39272415D01*
X111480800Y-39467585D01*
X111442724Y-39659006D01*
X111368036Y-39839320D01*
X111368035Y-39839321D01*
X111259603Y-40001601D01*
X111121601Y-40139603D01*
X111121598Y-40139605D01*
X110959320Y-40248036D01*
X110779006Y-40322724D01*
X110779005Y-40322724D01*
X110779003Y-40322725D01*
X110587587Y-40360800D01*
X110392413Y-40360800D01*
X110200997Y-40322725D01*
X110200995Y-40322724D01*
X110200994Y-40322724D01*
X110020680Y-40248036D01*
X109858402Y-40139605D01*
X109858399Y-40139603D01*
X109720397Y-40001601D01*
X109611965Y-39839321D01*
X109611964Y-39839320D01*
X109537276Y-39659006D01*
X109499200Y-39467585D01*
X109499200Y-39272415D01*
X109537276Y-39080994D01*
X109611964Y-38900680D01*
X109720395Y-38738402D01*
X109720397Y-38738399D01*
X109858399Y-38600397D01*
X110020679Y-38491965D01*
X110020680Y-38491964D01*
X110200994Y-38417276D01*
X110200995Y-38417276D01*
X110200997Y-38417275D01*
X110392413Y-38379200D01*
X110587587Y-38379200D01*
X110779003Y-38417275D01*
X110779003Y-38417275D01*
G37*
G36*
X79017396Y-34010546D02*
X79190466Y-34082234D01*
X79346230Y-34186312D01*
X79478688Y-34318770D01*
X79582766Y-34474534D01*
X79654454Y-34647604D01*
X79691000Y-34831333D01*
X79691000Y-35018667D01*
X79654454Y-35202396D01*
X79582766Y-35375466D01*
X79478688Y-35531230D01*
X79346230Y-35663688D01*
X79190466Y-35767766D01*
X79017396Y-35839454D01*
X78833667Y-35876000D01*
X78646333Y-35876000D01*
X78462604Y-35839454D01*
X78289534Y-35767766D01*
X78133770Y-35663688D01*
X78001312Y-35531230D01*
X77897234Y-35375466D01*
X77825546Y-35202396D01*
X77789000Y-35018667D01*
X77789000Y-34831333D01*
X77825546Y-34647604D01*
X77897234Y-34474534D01*
X78001312Y-34318770D01*
X78133770Y-34186312D01*
X78289534Y-34082234D01*
X78462604Y-34010546D01*
X78646333Y-33974000D01*
X78833667Y-33974000D01*
X79017396Y-34010546D01*
X79017396Y-34010546D01*
G37*
G36*
X87878228Y-34106703D02*
X88033100Y-34170853D01*
X88172481Y-34263985D01*
X88291015Y-34382519D01*
X88384147Y-34521900D01*
X88448297Y-34676772D01*
X88481000Y-34841184D01*
X88481000Y-35008816D01*
X88448297Y-35173228D01*
X88384147Y-35328100D01*
X88291015Y-35467481D01*
X88172481Y-35586015D01*
X88033100Y-35679147D01*
X87878228Y-35743297D01*
X87713816Y-35776000D01*
X87546184Y-35776000D01*
X87381772Y-35743297D01*
X87226900Y-35679147D01*
X87087519Y-35586015D01*
X86968985Y-35467481D01*
X86875853Y-35328100D01*
X86811703Y-35173228D01*
X86779000Y-35008816D01*
X86779000Y-34841184D01*
X86811703Y-34676772D01*
X86875853Y-34521900D01*
X86968985Y-34382519D01*
X87087519Y-34263985D01*
X87226900Y-34170853D01*
X87381772Y-34106703D01*
X87546184Y-34074000D01*
X87713816Y-34074000D01*
X87878228Y-34106703D01*
X87878228Y-34106703D01*
G37*
G36*
X105658228Y-34106703D02*
X105813100Y-34170853D01*
X105952481Y-34263985D01*
X106071015Y-34382519D01*
X106164147Y-34521900D01*
X106228297Y-34676772D01*
X106261000Y-34841184D01*
X106261000Y-35008816D01*
X106228297Y-35173228D01*
X106164147Y-35328100D01*
X106071015Y-35467481D01*
X105952481Y-35586015D01*
X105813100Y-35679147D01*
X105658228Y-35743297D01*
X105493816Y-35776000D01*
X105326184Y-35776000D01*
X105161772Y-35743297D01*
X105006900Y-35679147D01*
X104867519Y-35586015D01*
X104748985Y-35467481D01*
X104655853Y-35328100D01*
X104591703Y-35173228D01*
X104559000Y-35008816D01*
X104559000Y-34841184D01*
X104591703Y-34676772D01*
X104655853Y-34521900D01*
X104748985Y-34382519D01*
X104867519Y-34263985D01*
X105006900Y-34170853D01*
X105161772Y-34106703D01*
X105326184Y-34074000D01*
X105493816Y-34074000D01*
X105658228Y-34106703D01*
X105658228Y-34106703D01*
G37*
G36*
X115736821Y-34086313D02*
X115736824Y-34086314D01*
X115736825Y-34086314D01*
X115897239Y-34134975D01*
X115897241Y-34134976D01*
X115897244Y-34134977D01*
X116045078Y-34213995D01*
X116174659Y-34320341D01*
X116281005Y-34449922D01*
X116360023Y-34597756D01*
X116360024Y-34597759D01*
X116360025Y-34597761D01*
X116408686Y-34758175D01*
X116408687Y-34758179D01*
X116425117Y-34925000D01*
X116408687Y-35091821D01*
X116408686Y-35091824D01*
X116408686Y-35091825D01*
X116375145Y-35202396D01*
X116360023Y-35252244D01*
X116281005Y-35400078D01*
X116174659Y-35529659D01*
X116045078Y-35636005D01*
X115897244Y-35715023D01*
X115897241Y-35715024D01*
X115897239Y-35715025D01*
X115736825Y-35763686D01*
X115736824Y-35763686D01*
X115736821Y-35763687D01*
X115611804Y-35776000D01*
X115528196Y-35776000D01*
X115403179Y-35763687D01*
X115403176Y-35763686D01*
X115403175Y-35763686D01*
X115242761Y-35715025D01*
X115242759Y-35715024D01*
X115242756Y-35715023D01*
X115094922Y-35636005D01*
X114965341Y-35529659D01*
X114858995Y-35400078D01*
X114779977Y-35252244D01*
X114764856Y-35202396D01*
X114731314Y-35091825D01*
X114731314Y-35091824D01*
X114731313Y-35091821D01*
X114714883Y-34925000D01*
X114731313Y-34758179D01*
X114731314Y-34758175D01*
X114779975Y-34597761D01*
X114779976Y-34597759D01*
X114779977Y-34597756D01*
X114858995Y-34449922D01*
X114965341Y-34320341D01*
X115094922Y-34213995D01*
X115242756Y-34134977D01*
X115242759Y-34134976D01*
X115242761Y-34134975D01*
X115403175Y-34086314D01*
X115403176Y-34086314D01*
X115403179Y-34086313D01*
X115528196Y-34074000D01*
X115611804Y-34074000D01*
X115736821Y-34086313D01*
X115736821Y-34086313D01*
G37*
G36*
X97956821Y-34086313D02*
X97956824Y-34086314D01*
X97956825Y-34086314D01*
X98117239Y-34134975D01*
X98117241Y-34134976D01*
X98117244Y-34134977D01*
X98265078Y-34213995D01*
X98394659Y-34320341D01*
X98501005Y-34449922D01*
X98580023Y-34597756D01*
X98580024Y-34597759D01*
X98580025Y-34597761D01*
X98628686Y-34758175D01*
X98628687Y-34758179D01*
X98645117Y-34925000D01*
X98628687Y-35091821D01*
X98628686Y-35091824D01*
X98628686Y-35091825D01*
X98595145Y-35202396D01*
X98580023Y-35252244D01*
X98501005Y-35400078D01*
X98394659Y-35529659D01*
X98265078Y-35636005D01*
X98117244Y-35715023D01*
X98117241Y-35715024D01*
X98117239Y-35715025D01*
X97956825Y-35763686D01*
X97956824Y-35763686D01*
X97956821Y-35763687D01*
X97831804Y-35776000D01*
X97748196Y-35776000D01*
X97623179Y-35763687D01*
X97623176Y-35763686D01*
X97623175Y-35763686D01*
X97462761Y-35715025D01*
X97462759Y-35715024D01*
X97462756Y-35715023D01*
X97314922Y-35636005D01*
X97185341Y-35529659D01*
X97078995Y-35400078D01*
X96999977Y-35252244D01*
X96984856Y-35202396D01*
X96951314Y-35091825D01*
X96951314Y-35091824D01*
X96951313Y-35091821D01*
X96934883Y-34925000D01*
X96951313Y-34758179D01*
X96951314Y-34758175D01*
X96999975Y-34597761D01*
X96999976Y-34597759D01*
X96999977Y-34597756D01*
X97078995Y-34449922D01*
X97185341Y-34320341D01*
X97314922Y-34213995D01*
X97462756Y-34134977D01*
X97462759Y-34134976D01*
X97462761Y-34134975D01*
X97623175Y-34086314D01*
X97623176Y-34086314D01*
X97623179Y-34086313D01*
X97748196Y-34074000D01*
X97831804Y-34074000D01*
X97956821Y-34086313D01*
X97956821Y-34086313D01*
G37*
G36*
X143588392Y-32079492D02*
X143736352Y-32140780D01*
X143869508Y-32229752D01*
X143982748Y-32342992D01*
X144071720Y-32476148D01*
X144133008Y-32624108D01*
X144164250Y-32781175D01*
X144164250Y-32941325D01*
X144133008Y-33098392D01*
X144071720Y-33246352D01*
X143982748Y-33379508D01*
X143869508Y-33492748D01*
X143736352Y-33581720D01*
X143588392Y-33643008D01*
X143431325Y-33674250D01*
X143271175Y-33674250D01*
X143114108Y-33643008D01*
X142966148Y-33581720D01*
X142832992Y-33492748D01*
X142719752Y-33379508D01*
X142630780Y-33246352D01*
X142569492Y-33098392D01*
X142538250Y-32941325D01*
X142538250Y-32781175D01*
X142569492Y-32624108D01*
X142630780Y-32476148D01*
X142719752Y-32342992D01*
X142832992Y-32229752D01*
X142966148Y-32140780D01*
X143114108Y-32079492D01*
X143271175Y-32048250D01*
X143431325Y-32048250D01*
X143588392Y-32079492D01*
X143588392Y-32079492D01*
G37*
G36*
X126125892Y-32079492D02*
X126273852Y-32140780D01*
X126407008Y-32229752D01*
X126520248Y-32342992D01*
X126609220Y-32476148D01*
X126670508Y-32624108D01*
X126701750Y-32781175D01*
X126701750Y-32941325D01*
X126670508Y-33098392D01*
X126609220Y-33246352D01*
X126520248Y-33379508D01*
X126407008Y-33492748D01*
X126273852Y-33581720D01*
X126125892Y-33643008D01*
X125968825Y-33674250D01*
X125808675Y-33674250D01*
X125651608Y-33643008D01*
X125503648Y-33581720D01*
X125370492Y-33492748D01*
X125257252Y-33379508D01*
X125168280Y-33246352D01*
X125106992Y-33098392D01*
X125075750Y-32941325D01*
X125075750Y-32781175D01*
X125106992Y-32624108D01*
X125168280Y-32476148D01*
X125257252Y-32342992D01*
X125370492Y-32229752D01*
X125503648Y-32140780D01*
X125651608Y-32079492D01*
X125808675Y-32048250D01*
X125968825Y-32048250D01*
X126125892Y-32079492D01*
X126125892Y-32079492D01*
G37*
G36*
X79691000Y-33336000D02*
X77789000Y-33336000D01*
X77789000Y-31434000D01*
X79691000Y-31434000D01*
X79691000Y-33336000D01*
X79691000Y-33336000D01*
G37*
G36*
X111641000Y-30996000D02*
X109339000Y-30996000D01*
X109339000Y-28694000D01*
X111641000Y-28694000D01*
X111641000Y-30996000D01*
X111641000Y-30996000D01*
G37*
G36*
X118234180Y-28700662D02*
X118335635Y-28710654D01*
X118552600Y-28776470D01*
X118552602Y-28776471D01*
X118552605Y-28776472D01*
X118752556Y-28883347D01*
X118927818Y-29027182D01*
X119071653Y-29202444D01*
X119178528Y-29402395D01*
X119178529Y-29402398D01*
X119178530Y-29402400D01*
X119244346Y-29619365D01*
X119266569Y-29845000D01*
X119244346Y-30070635D01*
X119178530Y-30287600D01*
X119178528Y-30287605D01*
X119071653Y-30487556D01*
X118927818Y-30662818D01*
X118752556Y-30806653D01*
X118552605Y-30913528D01*
X118552602Y-30913529D01*
X118552600Y-30913530D01*
X118335635Y-30979346D01*
X118234180Y-30989338D01*
X118166545Y-30996000D01*
X118053455Y-30996000D01*
X117985820Y-30989338D01*
X117884365Y-30979346D01*
X117667400Y-30913530D01*
X117667398Y-30913529D01*
X117667395Y-30913528D01*
X117467444Y-30806653D01*
X117292182Y-30662818D01*
X117148347Y-30487556D01*
X117041472Y-30287605D01*
X117041470Y-30287600D01*
X116975654Y-30070635D01*
X116953431Y-29845000D01*
X116975654Y-29619365D01*
X117041470Y-29402400D01*
X117041471Y-29402398D01*
X117041472Y-29402395D01*
X117148347Y-29202444D01*
X117292182Y-29027182D01*
X117467444Y-28883347D01*
X117667395Y-28776472D01*
X117667398Y-28776471D01*
X117667400Y-28776470D01*
X117884365Y-28710654D01*
X117985820Y-28700662D01*
X118053455Y-28694000D01*
X118166545Y-28694000D01*
X118234180Y-28700662D01*
X118234180Y-28700662D01*
G37*
G36*
X106461000Y-30848500D02*
X104359000Y-30848500D01*
X104359000Y-28841500D01*
X106461000Y-28841500D01*
X106461000Y-30848500D01*
X106461000Y-30848500D01*
G37*
G36*
X88926669Y-25512686D02*
X89103058Y-25530059D01*
X89256572Y-25576627D01*
X89442549Y-25633042D01*
X89755425Y-25800279D01*
X90029661Y-26025339D01*
X90254721Y-26299575D01*
X90421958Y-26612451D01*
X90443181Y-26682415D01*
X90524941Y-26951942D01*
X90559714Y-27305000D01*
X90524941Y-27658058D01*
X90462102Y-27865210D01*
X90421958Y-27997549D01*
X90254721Y-28310425D01*
X90029661Y-28584661D01*
X89755425Y-28809721D01*
X89442549Y-28976958D01*
X89329385Y-29011286D01*
X89103058Y-29079941D01*
X88926669Y-29097314D01*
X88838476Y-29106000D01*
X88661524Y-29106000D01*
X88573331Y-29097314D01*
X88396942Y-29079941D01*
X88170615Y-29011286D01*
X88057451Y-28976958D01*
X87744575Y-28809721D01*
X87470339Y-28584661D01*
X87245279Y-28310425D01*
X87078042Y-27997549D01*
X87037898Y-27865210D01*
X86975059Y-27658058D01*
X86940286Y-27305000D01*
X86975059Y-26951942D01*
X87056819Y-26682415D01*
X87078042Y-26612451D01*
X87245279Y-26299575D01*
X87470339Y-26025339D01*
X87744575Y-25800279D01*
X88057451Y-25633042D01*
X88243428Y-25576627D01*
X88396942Y-25530059D01*
X88573331Y-25512686D01*
X88661524Y-25504000D01*
X88838476Y-25504000D01*
X88926669Y-25512686D01*
X88926669Y-25512686D01*
G37*
G36*
X105565764Y-26307308D02*
X105654220Y-26316020D01*
X105843381Y-26373401D01*
X106017712Y-26466583D01*
X106170515Y-26591985D01*
X106295917Y-26744788D01*
X106389099Y-26919119D01*
X106446480Y-27108280D01*
X106465855Y-27305000D01*
X106446480Y-27501720D01*
X106389099Y-27690881D01*
X106295917Y-27865212D01*
X106170515Y-28018015D01*
X106017712Y-28143417D01*
X105843381Y-28236599D01*
X105654220Y-28293980D01*
X105565764Y-28302692D01*
X105506796Y-28308500D01*
X105313204Y-28308500D01*
X105254236Y-28302692D01*
X105165780Y-28293980D01*
X104976619Y-28236599D01*
X104802288Y-28143417D01*
X104649485Y-28018015D01*
X104524083Y-27865212D01*
X104430901Y-27690881D01*
X104373520Y-27501720D01*
X104354145Y-27305000D01*
X104373520Y-27108280D01*
X104430901Y-26919119D01*
X104524083Y-26744788D01*
X104649485Y-26591985D01*
X104802288Y-26466583D01*
X104976619Y-26373401D01*
X105165780Y-26316020D01*
X105254236Y-26307308D01*
X105313204Y-26301500D01*
X105506796Y-26301500D01*
X105565764Y-26307308D01*
X105565764Y-26307308D01*
G37*
G36*
X145155256Y-23791298D02*
X145261579Y-23812447D01*
X145474037Y-23900450D01*
X145537128Y-23926583D01*
X145562042Y-23936903D01*
X145734274Y-24051985D01*
X145832454Y-24117587D01*
X146062413Y-24347546D01*
X146062415Y-24347549D01*
X146243097Y-24617958D01*
X146367553Y-24918421D01*
X146431000Y-25237391D01*
X146431000Y-25562609D01*
X146367553Y-25881579D01*
X146243097Y-26182042D01*
X146115235Y-26373401D01*
X146062413Y-26452454D01*
X145832454Y-26682413D01*
X145832451Y-26682415D01*
X145562042Y-26863097D01*
X145261579Y-26987553D01*
X145155256Y-27008702D01*
X144942611Y-27051000D01*
X144617389Y-27051000D01*
X144404744Y-27008702D01*
X144298421Y-26987553D01*
X143997958Y-26863097D01*
X143727549Y-26682415D01*
X143727546Y-26682413D01*
X143497587Y-26452454D01*
X143444765Y-26373401D01*
X143316903Y-26182042D01*
X143192447Y-25881579D01*
X143129000Y-25562609D01*
X143129000Y-25237391D01*
X143192447Y-24918421D01*
X143316903Y-24617958D01*
X143497585Y-24347549D01*
X143497587Y-24347546D01*
X143727546Y-24117587D01*
X143825726Y-24051985D01*
X143997958Y-23936903D01*
X144022873Y-23926583D01*
X144085963Y-23900450D01*
X144298421Y-23812447D01*
X144404744Y-23791298D01*
X144617389Y-23749000D01*
X144942611Y-23749000D01*
X145155256Y-23791298D01*
X145155256Y-23791298D01*
G37*
G36*
X79115256Y-23791298D02*
X79221579Y-23812447D01*
X79434037Y-23900450D01*
X79497128Y-23926583D01*
X79522042Y-23936903D01*
X79694274Y-24051985D01*
X79792454Y-24117587D01*
X80022413Y-24347546D01*
X80022415Y-24347549D01*
X80203097Y-24617958D01*
X80327553Y-24918421D01*
X80391000Y-25237391D01*
X80391000Y-25562609D01*
X80327553Y-25881579D01*
X80203097Y-26182042D01*
X80075235Y-26373401D01*
X80022413Y-26452454D01*
X79792454Y-26682413D01*
X79792451Y-26682415D01*
X79522042Y-26863097D01*
X79221579Y-26987553D01*
X79115256Y-27008702D01*
X78902611Y-27051000D01*
X78577389Y-27051000D01*
X78364744Y-27008702D01*
X78258421Y-26987553D01*
X77957958Y-26863097D01*
X77687549Y-26682415D01*
X77687546Y-26682413D01*
X77457587Y-26452454D01*
X77404765Y-26373401D01*
X77276903Y-26182042D01*
X77152447Y-25881579D01*
X77089000Y-25562609D01*
X77089000Y-25237391D01*
X77152447Y-24918421D01*
X77276903Y-24617958D01*
X77457585Y-24347549D01*
X77457587Y-24347546D01*
X77687546Y-24117587D01*
X77785726Y-24051985D01*
X77957958Y-23936903D01*
X77982873Y-23926583D01*
X78045963Y-23900450D01*
X78258421Y-23812447D01*
X78364744Y-23791298D01*
X78577389Y-23749000D01*
X78902611Y-23749000D01*
X79115256Y-23791298D01*
X79115256Y-23791298D01*
G37*
G36*
X115680442Y-24505518D02*
X115746627Y-24512037D01*
X115859853Y-24546384D01*
X115916467Y-24563557D01*
X116018246Y-24617960D01*
X116072991Y-24647222D01*
X116108729Y-24676552D01*
X116210186Y-24759814D01*
X116293448Y-24861271D01*
X116322778Y-24897009D01*
X116322779Y-24897011D01*
X116406443Y-25053533D01*
X116406443Y-25053534D01*
X116457963Y-25223373D01*
X116475359Y-25400000D01*
X116457963Y-25576627D01*
X116423616Y-25689853D01*
X116406443Y-25746467D01*
X116377680Y-25800278D01*
X116322778Y-25902991D01*
X116293448Y-25938729D01*
X116210186Y-26040186D01*
X116108729Y-26123448D01*
X116072991Y-26152778D01*
X116072989Y-26152779D01*
X115916467Y-26236443D01*
X115859853Y-26253616D01*
X115746627Y-26287963D01*
X115680443Y-26294481D01*
X115614260Y-26301000D01*
X115525740Y-26301000D01*
X115459557Y-26294481D01*
X115393373Y-26287963D01*
X115280147Y-26253616D01*
X115223533Y-26236443D01*
X115067011Y-26152779D01*
X115067009Y-26152778D01*
X115031271Y-26123448D01*
X114929814Y-26040186D01*
X114846552Y-25938729D01*
X114817222Y-25902991D01*
X114762320Y-25800278D01*
X114733557Y-25746467D01*
X114716384Y-25689853D01*
X114682037Y-25576627D01*
X114664641Y-25400000D01*
X114682037Y-25223373D01*
X114733557Y-25053534D01*
X114733557Y-25053533D01*
X114817221Y-24897011D01*
X114817222Y-24897009D01*
X114846552Y-24861271D01*
X114929814Y-24759814D01*
X115031271Y-24676552D01*
X115067009Y-24647222D01*
X115121754Y-24617960D01*
X115223533Y-24563557D01*
X115280147Y-24546384D01*
X115393373Y-24512037D01*
X115459557Y-24505519D01*
X115525740Y-24499000D01*
X115614260Y-24499000D01*
X115680442Y-24505518D01*
X115680442Y-24505518D01*
G37*
G36*
X113931000Y-26301000D02*
X112129000Y-26301000D01*
X112129000Y-24499000D01*
X113931000Y-24499000D01*
X113931000Y-26301000D01*
X113931000Y-26301000D01*
G37*
G36*
X132346000Y-26301000D02*
X130544000Y-26301000D01*
X130544000Y-24499000D01*
X132346000Y-24499000D01*
X132346000Y-26301000D01*
X132346000Y-26301000D01*
G37*
G36*
X134095442Y-24505518D02*
X134161627Y-24512037D01*
X134274853Y-24546384D01*
X134331467Y-24563557D01*
X134433246Y-24617960D01*
X134487991Y-24647222D01*
X134523729Y-24676552D01*
X134625186Y-24759814D01*
X134708448Y-24861271D01*
X134737778Y-24897009D01*
X134737779Y-24897011D01*
X134821443Y-25053533D01*
X134821443Y-25053534D01*
X134872963Y-25223373D01*
X134890359Y-25400000D01*
X134872963Y-25576627D01*
X134838616Y-25689853D01*
X134821443Y-25746467D01*
X134792680Y-25800278D01*
X134737778Y-25902991D01*
X134708448Y-25938729D01*
X134625186Y-26040186D01*
X134523729Y-26123448D01*
X134487991Y-26152778D01*
X134487989Y-26152779D01*
X134331467Y-26236443D01*
X134274853Y-26253616D01*
X134161627Y-26287963D01*
X134095443Y-26294481D01*
X134029260Y-26301000D01*
X133940740Y-26301000D01*
X133874557Y-26294481D01*
X133808373Y-26287963D01*
X133695147Y-26253616D01*
X133638533Y-26236443D01*
X133482011Y-26152779D01*
X133482009Y-26152778D01*
X133446271Y-26123448D01*
X133344814Y-26040186D01*
X133261552Y-25938729D01*
X133232222Y-25902991D01*
X133177320Y-25800278D01*
X133148557Y-25746467D01*
X133131384Y-25689853D01*
X133097037Y-25576627D01*
X133079641Y-25400000D01*
X133097037Y-25223373D01*
X133148557Y-25053534D01*
X133148557Y-25053533D01*
X133232221Y-24897011D01*
X133232222Y-24897009D01*
X133261552Y-24861271D01*
X133344814Y-24759814D01*
X133446271Y-24676552D01*
X133482009Y-24647222D01*
X133536754Y-24617960D01*
X133638533Y-24563557D01*
X133695147Y-24546384D01*
X133808373Y-24512037D01*
X133874557Y-24505519D01*
X133940740Y-24499000D01*
X134029260Y-24499000D01*
X134095442Y-24505518D01*
X134095442Y-24505518D01*
G37*
G36*
X105565764Y-23767308D02*
X105654220Y-23776020D01*
X105843381Y-23833401D01*
X106017712Y-23926583D01*
X106170515Y-24051985D01*
X106295917Y-24204788D01*
X106389099Y-24379119D01*
X106446480Y-24568280D01*
X106465855Y-24765000D01*
X106446480Y-24961720D01*
X106389099Y-25150881D01*
X106295917Y-25325212D01*
X106170515Y-25478015D01*
X106017712Y-25603417D01*
X105843381Y-25696599D01*
X105654220Y-25753980D01*
X105565764Y-25762692D01*
X105506796Y-25768500D01*
X105313204Y-25768500D01*
X105254236Y-25762692D01*
X105165780Y-25753980D01*
X104976619Y-25696599D01*
X104802288Y-25603417D01*
X104649485Y-25478015D01*
X104524083Y-25325212D01*
X104430901Y-25150881D01*
X104373520Y-24961720D01*
X104354145Y-24765000D01*
X104373520Y-24568280D01*
X104430901Y-24379119D01*
X104524083Y-24204788D01*
X104649485Y-24051985D01*
X104802288Y-23926583D01*
X104976619Y-23833401D01*
X105165780Y-23776020D01*
X105254236Y-23767308D01*
X105313204Y-23761500D01*
X105506796Y-23761500D01*
X105565764Y-23767308D01*
X105565764Y-23767308D01*
G37*
M02*
